Martel-UltraLight.ufo
<glyph name="quotedbl" format="1">
  <advance width="615"/>
  <unicode hex="0022"/>
  <outline>
    <contour>
      <point x="392" y="472" type="line"/>
      <point x="438" y="472" type="line"/>
      <point x="457" y="870" type="line"/>
      <point x="374" y="870" type="line"/>
    </contour>
    <contour>
      <point x="177" y="472" type="line"/>
      <point x="224" y="472" type="line"/>
      <point x="242" y="870" type="line"/>
      <point x="159" y="870" type="line"/>
    </contour>
  </outline>
</glyph>
<glyph name="percent" format="1">
  <advance width="864"/>
  <unicode hex="0025"/>
  <outline>
    <contour>
      <point x="261" y="0" type="line"/>
      <point x="320" y="0" type="line"/>
      <point x="600" y="782" type="line"/>
      <point x="541" y="782" type="line"/>
    </contour>
    <contour>
      <point x="277" y="340"/>
      <point x="354" y="402"/>
      <point x="354" y="519" type="curve" smooth="yes"/>
      <point x="354" y="617"/>
      <point x="309" y="701"/>
      <point x="206" y="697" type="curve" smooth="yes"/>
      <point x="121" y="694"/>
      <point x="44" y="631"/>
      <point x="44" y="514" type="curve" smooth="yes"/>
      <point x="44" y="419"/>
      <point x="101" y="335"/>
      <point x="192" y="338" type="curve" smooth="yes"/>
    </contour>
    <contour>
      <point x="136" y="377"/>
      <point x="104" y="437"/>
      <point x="104" y="518" type="curve" smooth="yes"/>
      <point x="104" y="604"/>
      <point x="141" y="658"/>
      <point x="202" y="658" type="curve" smooth="yes"/>
      <point x="263" y="658"/>
      <point x="295" y="601"/>
      <point x="295" y="515" type="curve" smooth="yes"/>
      <point x="295" y="428"/>
      <point x="258" y="377"/>
      <point x="197" y="377" type="curve" smooth="yes"/>
    </contour>
    <contour>
      <point x="510" y="161"/>
      <point x="566" y="78"/>
      <point x="658" y="80" type="curve" smooth="yes"/>
      <point x="743" y="83"/>
      <point x="819" y="145"/>
      <point x="819" y="261" type="curve" smooth="yes"/>
      <point x="819" y="359"/>
      <point x="775" y="443"/>
      <point x="672" y="439" type="curve" smooth="yes"/>
      <point x="587" y="437"/>
      <point x="510" y="373"/>
      <point x="510" y="256" type="curve" smooth="yes"/>
    </contour>
    <contour>
      <point x="569" y="346"/>
      <point x="606" y="400"/>
      <point x="667" y="400" type="curve" smooth="yes"/>
      <point x="728" y="400"/>
      <point x="761" y="343"/>
      <point x="761" y="257" type="curve" smooth="yes"/>
      <point x="761" y="170"/>
      <point x="722" y="120"/>
      <point x="662" y="120" type="curve" smooth="yes"/>
      <point x="602" y="120"/>
      <point x="569" y="179"/>
      <point x="569" y="260" type="curve" smooth="yes"/>
    </contour>
  </outline>
</glyph>
<glyph name="parenright" format="1">
  <advance width="397"/>
  <unicode hex="0029"/>
  <outline>
    <contour>
      <point x="108" y="-145" type="line"/>
      <point x="153" y="-119"/>
      <point x="341" y="60"/>
      <point x="341" y="344" type="curve" smooth="yes"/>
      <point x="341" y="668"/>
      <point x="156" y="818"/>
      <point x="111" y="846" type="curve"/>
      <point x="72" y="822" type="line"/>
      <point x="119" y="789"/>
      <point x="283" y="626"/>
      <point x="273" y="320" type="curve" smooth="yes"/>
      <point x="265" y="58"/>
      <point x="117" y="-98"/>
      <point x="74" y="-125" type="curve"/>
    </contour>
  </outline>
</glyph>
<glyph name="zero" format="1">
  <advance width="648"/>
  <unicode hex="0030"/>
  <outline>
    <contour>
      <point x="63" y="141"/>
      <point x="135" y="-14"/>
      <point x="321" y="-14" type="curve" smooth="yes"/>
      <point x="467" y="-14"/>
      <point x="583" y="117"/>
      <point x="584" y="304" type="curve" smooth="yes"/>
      <point x="586" y="477"/>
      <point x="523" y="613"/>
      <point x="333" y="611" type="curve" smooth="yes"/>
      <point x="192" y="610"/>
      <point x="67" y="498"/>
      <point x="64" y="309" type="curve" smooth="yes"/>
    </contour>
    <contour>
      <point x="195" y="30"/>
      <point x="140" y="165"/>
      <point x="140" y="312" type="curve" smooth="yes"/>
      <point x="140" y="472"/>
      <point x="201" y="572"/>
      <point x="332" y="570" type="curve" smooth="yes"/>
      <point x="458" y="568"/>
      <point x="510" y="453"/>
      <point x="510" y="300" type="curve" smooth="yes"/>
      <point x="510" y="134"/>
      <point x="453" y="25"/>
      <point x="321" y="27" type="curve" smooth="yes"/>
    </contour>
  </outline>
</glyph>
<glyph name="colon" format="1">
  <advance width="345"/>
  <unicode hex="003A"/>
  <outline>
    <contour>
      <point x="174" y="388"/>
      <point x="202" y="403"/>
      <point x="206" y="433" type="curve"/>
      <point x="210" y="455"/>
      <point x="201" y="476"/>
      <point x="172" y="480" type="curve" smooth="yes"/>
      <point x="149" y="482"/>
      <point x="121" y="466"/>
      <point x="117" y="438" type="curve" smooth="yes"/>
      <point x="112" y="413"/>
      <point x="128" y="394"/>
      <point x="150" y="391" type="curve"/>
    </contour>
    <contour>
      <point x="112" y="17"/>
      <point x="128" y="-1"/>
      <point x="150" y="-5" type="curve"/>
      <point x="174" y="-7"/>
      <point x="202" y="7"/>
      <point x="206" y="37" type="curve"/>
      <point x="210" y="60"/>
      <point x="201" y="81"/>
      <point x="172" y="84" type="curve" smooth="yes"/>
      <point x="149" y="87"/>
      <point x="121" y="70"/>
      <point x="117" y="42" type="curve" smooth="yes"/>
    </contour>
  </outline>
</glyph>
<glyph name="question" format="1">
  <advance width="494"/>
  <unicode hex="003F"/>
  <outline>
    <contour>
      <point x="265" y="239" type="line"/>
      <point x="242" y="293"/>
      <point x="208" y="352"/>
      <point x="215" y="408" type="curve"/>
      <point x="232" y="468"/>
      <point x="452" y="502"/>
      <point x="452" y="587" type="curve"/>
      <point x="463" y="722"/>
      <point x="379" y="896"/>
      <point x="155" y="896" type="curve" smooth="yes"/>
      <point x="117" y="896"/>
      <point x="72" y="885"/>
      <point x="63" y="874" type="curve"/>
      <point x="63" y="817" type="line"/>
      <point x="83" y="826"/>
      <point x="119" y="831"/>
      <point x="146" y="831" type="curve" smooth="yes"/>
      <point x="286" y="831"/>
      <point x="401" y="718"/>
      <point x="397" y="583" type="curve"/>
      <point x="387" y="519"/>
      <point x="145" y="485"/>
      <point x="145" y="406" type="curve"/>
      <point x="143" y="354"/>
      <point x="197" y="262"/>
      <point x="224" y="239" type="curve"/>
    </contour>
    <contour>
      <point x="220" y="17"/>
      <point x="236" y="-1"/>
      <point x="257" y="-5" type="curve"/>
      <point x="282" y="-7"/>
      <point x="310" y="7"/>
      <point x="313" y="37" type="curve"/>
      <point x="317" y="60"/>
      <point x="308" y="81"/>
      <point x="280" y="84" type="curve" smooth="yes"/>
      <point x="256" y="87"/>
      <point x="228" y="70"/>
      <point x="224" y="42" type="curve" smooth="yes"/>
    </contour>
  </outline>
</glyph>
<glyph name="at" format="1">
  <advance width="1042"/>
  <unicode hex="0040"/>
  <outline>
    <contour>
      <point x="115" y="-34"/>
      <point x="277" y="-185"/>
      <point x="500" y="-185" type="curve" smooth="yes"/>
      <point x="584" y="-185"/>
      <point x="680" y="-161"/>
      <point x="724" y="-127" type="curve"/>
      <point x="710" y="-95" type="line"/>
      <point x="675" y="-113"/>
      <point x="601" y="-134"/>
      <point x="527" y="-134" type="curve" smooth="yes"/>
      <point x="343" y="-134"/>
      <point x="170" y="-35"/>
      <point x="170" y="225" type="curve" smooth="yes"/>
      <point x="170" y="498"/>
      <point x="357" y="654"/>
      <point x="564" y="654" type="curve" smooth="yes"/>
      <point x="728" y="654"/>
      <point x="875" y="572"/>
      <point x="875" y="369" type="curve" smooth="yes"/>
      <point x="875" y="188"/>
      <point x="765" y="64"/>
      <point x="694" y="64" type="curve" smooth="yes"/>
      <point x="679" y="64"/>
      <point x="675" y="121"/>
      <point x="683" y="190" type="curve" smooth="yes"/>
      <point x="693" y="283"/>
      <point x="711" y="423"/>
      <point x="729" y="493" type="curve"/>
      <point x="686" y="507" type="line"/>
      <point x="675" y="509"/>
      <point x="670" y="499"/>
      <point x="665" y="483" type="curve"/>
      <point x="631" y="501"/>
      <point x="569" y="515"/>
      <point x="524" y="515" type="curve" smooth="yes"/>
      <point x="382" y="515"/>
      <point x="301" y="335"/>
      <point x="301" y="210" type="curve" smooth="yes"/>
      <point x="301" y="86"/>
      <point x="365" y="12"/>
      <point x="425" y="12" type="curve" smooth="yes"/>
      <point x="511" y="12"/>
      <point x="595" y="147"/>
      <point x="640" y="280" type="curve"/>
      <point x="629" y="213"/>
      <point x="621" y="157"/>
      <point x="619" y="120" type="curve"/>
      <point x="619" y="53"/>
      <point x="636" y="19"/>
      <point x="664" y="19" type="curve" smooth="yes"/>
      <point x="772" y="19"/>
      <point x="928" y="128"/>
      <point x="928" y="396" type="curve" smooth="yes"/>
      <point x="928" y="588"/>
      <point x="780" y="702"/>
      <point x="593" y="702" type="curve" smooth="yes"/>
      <point x="339" y="702"/>
      <point x="115" y="507"/>
      <point x="115" y="202" type="curve" smooth="yes"/>
    </contour>
    <contour>
      <point x="360" y="346"/>
      <point x="412" y="460"/>
      <point x="523" y="460" type="curve" smooth="yes"/>
      <point x="563" y="460"/>
      <point x="628" y="443"/>
      <point x="650" y="424" type="curve"/>
      <point x="626" y="289"/>
      <point x="515" y="74"/>
      <point x="439" y="74" type="curve" smooth="yes"/>
      <point x="383" y="74"/>
      <point x="360" y="167"/>
      <point x="360" y="237" type="curve" smooth="yes"/>
    </contour>
  </outline>
</glyph>
<glyph name="E" format="1">
  <advance width="644"/>
  <unicode hex="0045"/>
  <outline>
    <contour>
      <point x="50" y="0" type="line"/>
      <point x="589" y="0" type="line"/>
      <point x="611" y="154" type="line"/>
      <point x="575" y="163" type="line"/>
      <point x="531" y="49" type="line"/>
      <point x="209" y="41" type="line"/>
      <point x="209" y="382" type="line"/>
      <point x="409" y="379" type="line"/>
      <point x="421" y="297" type="line"/>
      <point x="460" y="297" type="line"/>
      <point x="460" y="504" type="line"/>
      <point x="421" y="504" type="line"/>
      <point x="409" y="426" type="line"/>
      <point x="209" y="422" type="line"/>
      <point x="209" y="719" type="line"/>
      <point x="508" y="713" type="line"/>
      <point x="531" y="619" type="line"/>
      <point x="572" y="619" type="line"/>
      <point x="558" y="758" type="line"/>
      <point x="52" y="758" type="line"/>
      <point x="52" y="721" type="line"/>
      <point x="138" y="713" type="line"/>
      <point x="138" y="44" type="line"/>
      <point x="50" y="33" type="line"/>
    </contour>
  </outline>
</glyph>
<glyph name="H" format="1">
  <advance width="833"/>
  <unicode hex="0048"/>
  <outline>
    <contour>
      <point x="52" y="0" type="line"/>
      <point x="291" y="0" type="line"/>
      <point x="291" y="33" type="line"/>
      <point x="208" y="44" type="line"/>
      <point x="208" y="343" type="line"/>
      <point x="617" y="343" type="line"/>
      <point x="617" y="44" type="line"/>
      <point x="534" y="33" type="line"/>
      <point x="534" y="0" type="line"/>
      <point x="774" y="0" type="line"/>
      <point x="774" y="33" type="line"/>
      <point x="689" y="45" type="line"/>
      <point x="689" y="714" type="line"/>
      <point x="766" y="721" type="line"/>
      <point x="766" y="758" type="line"/>
      <point x="537" y="758" type="line"/>
      <point x="537" y="721" type="line"/>
      <point x="617" y="714" type="line"/>
      <point x="617" y="388" type="line"/>
      <point x="208" y="388" type="line"/>
      <point x="208" y="714" type="line"/>
      <point x="287" y="721" type="line"/>
      <point x="287" y="758" type="line"/>
      <point x="55" y="758" type="line"/>
      <point x="55" y="721" type="line"/>
      <point x="136" y="714" type="line"/>
      <point x="136" y="45" type="line"/>
      <point x="52" y="33" type="line"/>
    </contour>
  </outline>
</glyph>
<glyph name="O" format="1">
  <advance width="759"/>
  <unicode hex="004F"/>
  <outline>
    <contour>
      <point x="42" y="145"/>
      <point x="173" y="-14"/>
      <point x="372" y="-14" type="curve" smooth="yes"/>
      <point x="560" y="-14"/>
      <point x="716" y="133"/>
      <point x="716" y="396" type="curve" smooth="yes"/>
      <point x="716" y="611"/>
      <point x="592" y="765"/>
      <point x="400" y="765" type="curve" smooth="yes"/>
      <point x="211" y="765"/>
      <point x="51" y="627"/>
      <point x="45" y="369" type="curve" smooth="yes"/>
    </contour>
    <contour>
      <point x="224" y="27"/>
      <point x="125" y="176"/>
      <point x="125" y="369" type="curve" smooth="yes"/>
      <point x="125" y="595"/>
      <point x="234" y="724"/>
      <point x="385" y="724" type="curve" smooth="yes"/>
      <point x="547" y="724"/>
      <point x="638" y="573"/>
      <point x="638" y="386" type="curve" smooth="yes"/>
      <point x="638" y="165"/>
      <point x="536" y="27"/>
      <point x="386" y="27" type="curve" smooth="yes"/>
    </contour>
  </outline>
</glyph>
<glyph name="R" format="1">
  <advance width="693"/>
  <unicode hex="0052"/>
  <outline>
    <contour>
      <point x="42" y="0" type="line"/>
      <point x="318" y="0" type="line"/>
      <point x="318" y="33" type="line"/>
      <point x="212" y="44" type="line"/>
      <point x="212" y="335" type="line"/>
      <point x="250" y="335"/>
      <point x="287" y="335"/>
      <point x="322" y="336" type="curve"/>
      <point x="320" y="335" type="line"/>
      <point x="430" y="343"/>
      <point x="528" y="0"/>
      <point x="572" y="0" type="curve" smooth="yes"/>
      <point x="697" y="0" type="line"/>
      <point x="697" y="33" type="line"/>
      <point x="638" y="44" type="line" smooth="yes"/>
      <point x="592" y="52"/>
      <point x="503" y="318"/>
      <point x="410" y="347" type="curve"/>
      <point x="409" y="347"/>
      <point x="408" y="348"/>
      <point x="408" y="348" type="curve"/>
      <point x="512" y="377"/>
      <point x="580" y="459"/>
      <point x="580" y="561" type="curve" smooth="yes"/>
      <point x="580" y="718"/>
      <point x="475" y="765"/>
      <point x="327" y="765" type="curve" smooth="yes"/>
      <point x="262" y="765"/>
      <point x="210" y="759"/>
      <point x="177" y="758" type="curve" smooth="yes"/>
      <point x="53" y="758" type="line"/>
      <point x="53" y="717" type="line"/>
      <point x="140" y="710" type="line"/>
      <point x="140" y="45" type="line"/>
      <point x="42" y="33" type="line"/>
    </contour>
    <contour>
      <point x="212" y="716" type="line"/>
      <point x="238" y="724"/>
      <point x="282" y="723"/>
      <point x="313" y="724" type="curve" smooth="yes"/>
      <point x="453" y="729"/>
      <point x="504" y="664"/>
      <point x="504" y="552" type="curve" smooth="yes"/>
      <point x="504" y="444"/>
      <point x="443" y="377"/>
      <point x="325" y="375" type="curve" smooth="yes"/>
      <point x="300" y="375"/>
      <point x="235" y="377"/>
      <point x="212" y="379" type="curve"/>
    </contour>
  </outline>
</glyph>
<glyph name="S" format="1">
  <advance width="600"/>
  <unicode hex="0053"/>
  <outline>
    <contour>
      <point x="75" y="31" type="line"/>
      <point x="103" y="14"/>
      <point x="201" y="-11"/>
      <point x="298" y="-11" type="curve" smooth="yes"/>
      <point x="435" y="-11"/>
      <point x="550" y="49"/>
      <point x="550" y="192" type="curve" smooth="yes"/>
      <point x="550" y="307"/>
      <point x="434" y="364"/>
      <point x="327" y="415" type="curve" smooth="yes"/>
      <point x="234" y="459"/>
      <point x="147" y="503"/>
      <point x="147" y="586" type="curve" smooth="yes"/>
      <point x="147" y="689"/>
      <point x="240" y="727"/>
      <point x="311" y="727" type="curve" smooth="yes"/>
      <point x="363" y="727"/>
      <point x="414" y="718"/>
      <point x="443" y="693" type="curve"/>
      <point x="472" y="596" type="line"/>
      <point x="505" y="596" type="line"/>
      <point x="505" y="726" type="line"/>
      <point x="476" y="743"/>
      <point x="417" y="765"/>
      <point x="317" y="765" type="curve" smooth="yes"/>
      <point x="216" y="765"/>
      <point x="80" y="712"/>
      <point x="80" y="575" type="curve" smooth="yes"/>
      <point x="80" y="464"/>
      <point x="187" y="408"/>
      <point x="291" y="358" type="curve" smooth="yes"/>
      <point x="388" y="311"/>
      <point x="482" y="263"/>
      <point x="482" y="173" type="curve" smooth="yes"/>
      <point x="482" y="66"/>
      <point x="391" y="28"/>
      <point x="307" y="28" type="curve" smooth="yes"/>
      <point x="250" y="28"/>
      <point x="174" y="38"/>
      <point x="134" y="77" type="curve"/>
      <point x="111" y="177" type="line"/>
      <point x="75" y="177" type="line"/>
    </contour>
  </outline>
</glyph>
<glyph name="c" format="1">
  <advance width="513"/>
  <unicode hex="0063"/>
  <outline>
    <contour>
      <point x="54" y="106"/>
      <point x="136" y="-10"/>
      <point x="285" y="-10" type="curve" smooth="yes"/>
      <point x="358" y="-10"/>
      <point x="435" y="9"/>
      <point x="473" y="43" type="curve"/>
      <point x="459" y="78" type="line"/>
      <point x="428" y="55"/>
      <point x="357" y="41"/>
      <point x="313" y="41" type="curve" smooth="yes"/>
      <point x="217" y="41"/>
      <point x="119" y="111"/>
      <point x="121" y="296" type="curve" smooth="yes"/>
      <point x="122" y="439"/>
      <point x="210" y="517"/>
      <point x="311" y="517" type="curve" smooth="yes"/>
      <point x="344" y="517"/>
      <point x="379" y="512"/>
      <point x="402" y="495" type="curve"/>
      <point x="422" y="432" type="line"/>
      <point x="458" y="432" type="line"/>
      <point x="458" y="537" type="line"/>
      <point x="432" y="554"/>
      <point x="371" y="563"/>
      <point x="317" y="561" type="curve" smooth="yes"/>
      <point x="167" y="555"/>
      <point x="51" y="443"/>
      <point x="52" y="263" type="curve" smooth="yes"/>
    </contour>
  </outline>
</glyph>
<glyph name="i" format="1">
  <advance width="333"/>
  <unicode hex="0069"/>
  <outline>
    <contour>
      <point x="195" y="691"/>
      <point x="224" y="713"/>
      <point x="224" y="747" type="curve" smooth="yes"/>
      <point x="224" y="773"/>
      <point x="208" y="794"/>
      <point x="175" y="794" type="curve" smooth="yes"/>
      <point x="147" y="794"/>
      <point x="118" y="771"/>
      <point x="118" y="738" type="curve" smooth="yes"/>
      <point x="118" y="709"/>
      <point x="141" y="691"/>
      <point x="166" y="691" type="curve" smooth="yes"/>
    </contour>
    <contour>
      <point x="68" y="0" type="line"/>
      <point x="298" y="0" type="line"/>
      <point x="298" y="33" type="line"/>
      <point x="217" y="42" type="line"/>
      <point x="217" y="544" type="line"/>
      <point x="198" y="553" type="line"/>
      <point x="79" y="523" type="line"/>
      <point x="79" y="499" type="line"/>
      <point x="149" y="474" type="line"/>
      <point x="149" y="41" type="line"/>
      <point x="68" y="33" type="line"/>
    </contour>
  </outline>
</glyph>
<glyph name="o" format="1">
  <advance width="601"/>
  <unicode hex="006F"/>
  <outline>
    <contour>
      <point x="51" y="127"/>
      <point x="121" y="-12"/>
      <point x="297" y="-12" type="curve" smooth="yes"/>
      <point x="440" y="-12"/>
      <point x="549" y="110"/>
      <point x="551" y="282" type="curve" smooth="yes"/>
      <point x="551" y="427"/>
      <point x="482" y="563"/>
      <point x="312" y="563" type="curve" smooth="yes"/>
      <point x="173" y="563"/>
      <point x="51" y="454"/>
      <point x="51" y="278" type="curve" smooth="yes"/>
    </contour>
    <contour>
      <point x="178" y="31"/>
      <point x="126" y="149"/>
      <point x="126" y="288" type="curve" smooth="yes"/>
      <point x="126" y="434"/>
      <point x="191" y="522"/>
      <point x="301" y="522" type="curve" smooth="yes"/>
      <point x="427" y="522"/>
      <point x="476" y="411"/>
      <point x="476" y="277" type="curve" smooth="yes"/>
      <point x="476" y="119"/>
      <point x="416" y="31"/>
      <point x="307" y="31" type="curve" smooth="yes"/>
    </contour>
  </outline>
</glyph>
<glyph name="p" format="1">
  <advance width="646"/>
  <unicode hex="0070"/>
  <outline>
    <contour>
      <point x="203" y="11" type="line"/>
      <point x="238" y="-5"/>
      <point x="277" y="-12"/>
      <point x="318" y="-12" type="curve" smooth="yes"/>
      <point x="482" y="-12"/>
      <point x="594" y="123"/>
      <point x="594" y="291" type="curve" smooth="yes"/>
      <point x="594" y="488"/>
      <point x="488" y="563"/>
      <point x="379" y="563" type="curve" smooth="yes"/>
      <point x="299" y="563"/>
      <point x="231" y="523"/>
      <point x="197" y="489" type="curve"/>
      <point x="197" y="543" type="line"/>
      <point x="178" y="553" type="line"/>
      <point x="63" y="523" type="line"/>
      <point x="63" y="499" type="line"/>
      <point x="134" y="473" type="line"/>
      <point x="134" y="-207" type="line"/>
      <point x="59" y="-217" type="line"/>
      <point x="59" y="-250" type="line"/>
      <point x="317" y="-250" type="line"/>
      <point x="317" y="-217" type="line"/>
      <point x="205" y="-208" type="line"/>
      <point x="205" y="-127" type="line"/>
    </contour>
    <contour>
      <point x="205" y="263" type="line"/>
      <point x="204" y="455" type="line"/>
      <point x="227" y="475"/>
      <point x="275" y="514"/>
      <point x="351" y="514" type="curve" smooth="yes"/>
      <point x="444" y="514"/>
      <point x="525" y="445"/>
      <point x="524" y="283" type="curve" smooth="yes"/>
      <point x="522" y="104"/>
      <point x="424" y="28"/>
      <point x="323" y="28" type="curve" smooth="yes"/>
      <point x="264" y="29"/>
      <point x="220" y="48"/>
      <point x="205" y="74" type="curve"/>
    </contour>
  </outline>
</glyph>
<glyph name="q" format="1">
  <advance width="606"/>
  <unicode hex="0071"/>
  <outline>
    <contour>
      <point x="362" y="-14"/>
      <point x="417" y="28"/>
      <point x="443" y="50" type="curve"/>
      <point x="441" y="-23" type="line"/>
      <point x="441" y="-204" type="line"/>
      <point x="332" y="-213" type="line"/>
      <point x="332" y="-250" type="line"/>
      <point x="583" y="-250" type="line"/>
      <point x="583" y="-213" type="line"/>
      <point x="512" y="-205" type="line"/>
      <point x="512" y="547" type="line"/>
      <point x="494" y="555" type="line"/>
      <point x="452" y="539" type="line"/>
      <point x="422" y="554"/>
      <point x="379" y="563"/>
      <point x="336" y="563" type="curve" smooth="yes"/>
      <point x="170" y="563"/>
      <point x="51" y="433"/>
      <point x="51" y="265" type="curve" smooth="yes"/>
      <point x="51" y="28"/>
      <point x="190" y="-14"/>
      <point x="266" y="-14" type="curve" smooth="yes"/>
    </contour>
    <contour>
      <point x="188" y="38"/>
      <point x="118" y="121"/>
      <point x="121" y="276" type="curve" smooth="yes"/>
      <point x="123" y="446"/>
      <point x="224" y="522"/>
      <point x="324" y="522" type="curve" smooth="yes"/>
      <point x="367" y="522"/>
      <point x="410" y="515"/>
      <point x="441" y="482" type="curve"/>
      <point x="441" y="90" type="line"/>
      <point x="419" y="68"/>
      <point x="372" y="38"/>
      <point x="291" y="38" type="curve" smooth="yes"/>
    </contour>
  </outline>
</glyph>
<glyph name="x" format="1">
  <advance width="570"/>
  <unicode hex="0078"/>
  <outline>
    <contour>
      <point x="9" y="0" type="line"/>
      <point x="232" y="0" type="line"/>
      <point x="232" y="33" type="line"/>
      <point x="143" y="41" type="line"/>
      <point x="251" y="199" type="line"/>
      <point x="273" y="236" type="line"/>
      <point x="306" y="191" type="line"/>
      <point x="308" y="186"/>
      <point x="355" y="123"/>
      <point x="410" y="41" type="curve"/>
      <point x="332" y="33" type="line"/>
      <point x="332" y="0" type="line"/>
      <point x="567" y="0" type="line"/>
      <point x="567" y="33" type="line"/>
      <point x="493" y="42" type="line"/>
      <point x="319" y="273" type="line"/>
      <point x="488" y="499" type="line"/>
      <point x="561" y="506" type="line"/>
      <point x="561" y="546" type="line"/>
      <point x="358" y="546" type="line"/>
      <point x="358" y="506" type="line"/>
      <point x="429" y="500" type="line"/>
      <point x="320" y="340" type="line"/>
      <point x="295" y="301" type="line"/>
      <point x="268" y="341" type="line"/>
      <point x="160" y="500" type="line"/>
      <point x="236" y="506" type="line"/>
      <point x="236" y="546" type="line"/>
      <point x="2" y="546" type="line"/>
      <point x="2" y="506" type="line"/>
      <point x="77" y="499" type="line"/>
      <point x="250" y="266" type="line"/>
      <point x="82" y="42" type="line"/>
      <point x="9" y="33" type="line"/>
    </contour>
  </outline>
</glyph>
<glyph name="yen" format="1">
  <advance width="687"/>
  <unicode hex="00A5"/>
  <outline>
    <contour>
      <point x="204" y="0" type="line"/>
      <point x="482" y="0" type="line"/>
      <point x="482" y="33" type="line"/>
      <point x="377" y="45" type="line"/>
      <point x="377" y="199" type="line"/>
      <point x="591" y="199" type="line"/>
      <point x="591" y="248" type="line"/>
      <point x="377" y="248" type="line"/>
      <point x="377" y="374" type="line"/>
      <point x="591" y="374" type="line"/>
      <point x="591" y="422" type="line"/>
      <point x="405" y="422" type="line"/>
      <point x="594" y="709" type="line"/>
      <point x="664" y="721" type="line"/>
      <point x="664" y="758" type="line"/>
      <point x="455" y="758" type="line"/>
      <point x="455" y="721" type="line"/>
      <point x="531" y="714" type="line"/>
      <point x="491" y="647"/>
      <point x="416" y="530"/>
      <point x="389" y="482" type="curve" smooth="yes"/>
      <point x="356" y="422" type="line"/>
      <point x="345" y="422" type="line"/>
      <point x="316" y="479" type="line"/>
      <point x="162" y="714" type="line"/>
      <point x="241" y="721" type="line"/>
      <point x="241" y="758" type="line"/>
      <point x="12" y="758" type="line"/>
      <point x="12" y="721" type="line"/>
      <point x="80" y="713" type="line"/>
      <point x="279" y="422" type="line"/>
      <point x="89" y="422" type="line"/>
      <point x="89" y="374" type="line"/>
      <point x="306" y="374" type="line"/>
      <point x="306" y="248" type="line"/>
      <point x="89" y="248" type="line"/>
      <point x="89" y="199" type="line"/>
      <point x="306" y="199" type="line"/>
      <point x="306" y="45" type="line"/>
      <point x="204" y="33" type="line"/>
    </contour>
  </outline>
</glyph>
<glyph name="dieresis" format="1">
  <advance width="490"/>
  <unicode hex="00A8"/>
  <outline>
    <contour>
      <point x="376" y="696"/>
      <point x="405" y="716"/>
      <point x="405" y="749" type="curve" smooth="yes"/>
      <point x="405" y="774"/>
      <point x="390" y="795"/>
      <point x="356" y="795" type="curve" smooth="yes"/>
      <point x="329" y="795"/>
      <point x="300" y="771"/>
      <point x="300" y="741" type="curve" smooth="yes"/>
      <point x="300" y="712"/>
      <point x="322" y="696"/>
      <point x="348" y="696" type="curve" smooth="yes"/>
    </contour>
    <contour>
      <point x="154" y="696"/>
      <point x="183" y="716"/>
      <point x="183" y="749" type="curve" smooth="yes"/>
      <point x="183" y="774"/>
      <point x="168" y="795"/>
      <point x="134" y="795" type="curve" smooth="yes"/>
      <point x="106" y="795"/>
      <point x="78" y="771"/>
      <point x="78" y="741" type="curve" smooth="yes"/>
      <point x="78" y="712"/>
      <point x="100" y="696"/>
      <point x="125" y="696" type="curve" smooth="yes"/>
    </contour>
  </outline>
</glyph>
<glyph name="guillemotleft" format="1">
  <advance width="926"/>
  <unicode hex="00AB"/>
  <outline>
    <contour>
      <point x="465" y="269" type="line"/>
      <point x="782" y="80" type="line"/>
      <point x="802" y="114" type="line"/>
      <point x="533" y="301" type="line"/>
      <point x="802" y="492" type="line"/>
      <point x="782" y="525" type="line"/>
      <point x="465" y="330" type="line"/>
    </contour>
    <contour>
      <point x="120" y="269" type="line"/>
      <point x="436" y="80" type="line"/>
      <point x="456" y="114" type="line"/>
      <point x="188" y="301" type="line"/>
      <point x="456" y="492" type="line"/>
      <point x="436" y="525" type="line"/>
      <point x="120" y="330" type="line"/>
    </contour>
  </outline>
</glyph>
<glyph name="plusminus" format="1">
  <advance width="614"/>
  <unicode hex="00B1"/>
  <outline>
    <contour>
      <point x="278" y="157" type="line"/>
      <point x="336" y="157" type="line"/>
      <point x="336" y="283" type="line"/>
      <point x="332" y="364" type="line"/>
      <point x="402" y="360" type="line"/>
      <point x="530" y="360" type="line"/>
      <point x="530" y="418" type="line"/>
      <point x="402" y="418" type="line"/>
      <point x="332" y="413" type="line"/>
      <point x="336" y="494" type="line"/>
      <point x="336" y="615" type="line"/>
      <point x="278" y="615" type="line"/>
      <point x="278" y="494" type="line"/>
      <point x="281" y="413" type="line"/>
      <point x="202" y="418" type="line"/>
      <point x="84" y="418" type="line"/>
      <point x="84" y="360" type="line"/>
      <point x="202" y="360" type="line"/>
      <point x="281" y="363" type="line"/>
      <point x="278" y="283" type="line"/>
    </contour>
    <contour>
      <point x="88" y="32" type="line"/>
      <point x="525" y="32" type="line"/>
      <point x="525" y="86" type="line"/>
      <point x="88" y="86" type="line"/>
    </contour>
  </outline>
</glyph>
<glyph name="acute" format="1">
  <advance width="432"/>
  <unicode hex="00B4"/>
  <outline>
    <contour>
      <point x="151" y="656" type="line"/>
      <point x="210" y="696"/>
      <point x="305" y="764"/>
      <point x="335" y="811" type="curve"/>
      <point x="283" y="864" type="line"/>
      <point x="130" y="677" type="line"/>
    </contour>
  </outline>
</glyph>
<glyph name="onesuperior" format="1">
  <advance width="530"/>
  <unicode hex="00B9"/>
  <outline>
    <contour>
      <point x="105" y="351" type="line"/>
      <point x="452" y="351" type="line"/>
      <point x="452" y="384" type="line"/>
      <point x="318" y="395" type="line"/>
      <point x="319" y="834" type="line"/>
      <point x="294" y="842" type="line"/>
      <point x="271" y="821"/>
      <point x="155" y="764"/>
      <point x="96" y="746" type="curve"/>
      <point x="104" y="707" type="line"/>
      <point x="153" y="719"/>
      <point x="200" y="737"/>
      <point x="247" y="755" type="curve"/>
      <point x="247" y="394" type="line"/>
      <point x="105" y="384" type="line"/>
    </contour>
  </outline>
</glyph>
<glyph name="threequarters" format="1">
  <advance width="1309"/>
  <unicode hex="00BE"/>
  <outline>
    <contour>
      <point x="398" y="-157" type="line"/>
      <point x="448" y="-167" type="line"/>
      <point x="802" y="906" type="line"/>
      <point x="754" y="918" type="line"/>
    </contour>
    <contour>
      <point x="111" y="335" type="line"/>
      <point x="158" y="316"/>
      <point x="213" y="307"/>
      <point x="252" y="307" type="curve" smooth="yes"/>
      <point x="391" y="307"/>
      <point x="479" y="373"/>
      <point x="479" y="467" type="curve" smooth="yes"/>
      <point x="479" y="518"/>
      <point x="446" y="599"/>
      <point x="323" y="593" type="curve"/>
      <point x="403" y="618"/>
      <point x="441" y="667"/>
      <point x="441" y="722" type="curve" smooth="yes"/>
      <point x="441" y="791"/>
      <point x="379" y="845"/>
      <point x="268" y="836" type="curve" smooth="yes"/>
      <point x="195" y="831"/>
      <point x="125" y="798"/>
      <point x="93" y="773" type="curve"/>
      <point x="112" y="739" type="line"/>
      <point x="142" y="764"/>
      <point x="212" y="787"/>
      <point x="263" y="789" type="curve" smooth="yes"/>
      <point x="314" y="791"/>
      <point x="359" y="772"/>
      <point x="365" y="737" type="curve"/>
      <point x="369" y="725"/>
      <point x="369" y="712"/>
      <point x="365" y="699" type="curve" smooth="yes"/>
      <point x="354" y="657"/>
      <point x="318" y="609"/>
      <point x="188" y="588" type="curve"/>
      <point x="188" y="542" type="line"/>
      <point x="270" y="559" type="line"/>
      <point x="357" y="566"/>
      <point x="407" y="532"/>
      <point x="407" y="471" type="curve" smooth="yes"/>
      <point x="407" y="403"/>
      <point x="352" y="355"/>
      <point x="249" y="354" type="curve" smooth="yes"/>
      <point x="208" y="354"/>
      <point x="153" y="362"/>
      <point x="111" y="378" type="curve"/>
    </contour>
    <contour>
      <point x="677" y="127" type="line"/>
      <point x="696" y="91" type="line"/>
      <point x="976" y="91" type="line"/>
      <point x="975" y="-88" type="line"/>
      <point x="1042" y="-88" type="line"/>
      <point x="1042" y="91" type="line"/>
      <point x="1180" y="91" type="line"/>
      <point x="1179" y="154" type="line"/>
      <point x="1042" y="146" type="line"/>
      <point x="1042" y="294" type="line"/>
      <point x="977" y="285" type="line"/>
      <point x="976" y="143" type="line"/>
      <point x="741" y="130" type="line"/>
      <point x="765" y="163" type="line"/>
      <point x="1019" y="509" type="line"/>
      <point x="980" y="545" type="line"/>
      <point x="953" y="544" type="line"/>
    </contour>
  </outline>
</glyph>
<glyph name="Adieresis" format="1">
  <advance width="729"/>
  <unicode hex="00C4"/>
  <outline>
    <contour>
      <point x="499" y="825"/>
      <point x="527" y="847"/>
      <point x="527" y="879" type="curve" smooth="yes"/>
      <point x="527" y="905"/>
      <point x="513" y="926"/>
      <point x="479" y="926" type="curve" smooth="yes"/>
      <point x="452" y="926"/>
      <point x="422" y="902"/>
      <point x="422" y="871" type="curve" smooth="yes"/>
      <point x="422" y="842"/>
      <point x="445" y="825"/>
      <point x="470" y="825" type="curve" smooth="yes"/>
    </contour>
    <contour>
      <point x="276" y="825"/>
      <point x="304" y="847"/>
      <point x="304" y="880" type="curve" smooth="yes"/>
      <point x="304" y="905"/>
      <point x="289" y="926"/>
      <point x="256" y="926" type="curve" smooth="yes"/>
      <point x="229" y="926"/>
      <point x="199" y="903"/>
      <point x="199" y="872" type="curve" smooth="yes"/>
      <point x="199" y="843"/>
      <point x="222" y="825"/>
      <point x="247" y="825" type="curve" smooth="yes"/>
    </contour>
    <contour>
      <point x="1" y="0" type="line"/>
      <point x="221" y="0" type="line"/>
      <point x="221" y="33" type="line"/>
      <point x="136" y="44" type="line"/>
      <point x="197" y="222" type="line"/>
      <point x="512" y="222" type="line"/>
      <point x="574" y="44" type="line"/>
      <point x="492" y="33" type="line"/>
      <point x="492" y="0" type="line"/>
      <point x="730" y="0" type="line"/>
      <point x="730" y="33" type="line"/>
      <point x="649" y="44" type="line"/>
      <point x="394" y="762" type="line"/>
      <point x="335" y="762" type="line"/>
      <point x="72" y="44" type="line"/>
      <point x="1" y="33" type="line"/>
    </contour>
    <contour>
      <point x="212" y="267" type="line"/>
      <point x="356" y="680" type="line"/>
      <point x="392" y="566" type="line"/>
      <point x="497" y="267" type="line"/>
    </contour>
  </outline>
</glyph>
<glyph name="Aring" format="1">
  <advance width="729"/>
  <unicode hex="00C5"/>
  <outline>
    <contour>
      <point x="1" y="0" type="line"/>
      <point x="221" y="0" type="line"/>
      <point x="221" y="33" type="line"/>
      <point x="136" y="44" type="line"/>
      <point x="197" y="222" type="line"/>
      <point x="512" y="222" type="line"/>
      <point x="574" y="44" type="line"/>
      <point x="492" y="33" type="line"/>
      <point x="492" y="0" type="line"/>
      <point x="730" y="0" type="line"/>
      <point x="730" y="33" type="line"/>
      <point x="649" y="44" type="line"/>
      <point x="406" y="729" type="line"/>
      <point x="453" y="743"/>
      <point x="486" y="782"/>
      <point x="486" y="830" type="curve" smooth="yes"/>
      <point x="486" y="893"/>
      <point x="431" y="938"/>
      <point x="363" y="938" type="curve" smooth="yes"/>
      <point x="296" y="938"/>
      <point x="240" y="892"/>
      <point x="240" y="830" type="curve" smooth="yes"/>
      <point x="240" y="780"/>
      <point x="275" y="743"/>
      <point x="322" y="728" type="curve"/>
      <point x="72" y="44" type="line"/>
      <point x="1" y="33" type="line"/>
    </contour>
    <contour>
      <point x="321" y="763"/>
      <point x="286" y="790"/>
      <point x="286" y="830" type="curve" smooth="yes"/>
      <point x="286" y="868"/>
      <point x="321" y="896"/>
      <point x="363" y="896" type="curve" smooth="yes"/>
      <point x="405" y="896"/>
      <point x="440" y="868"/>
      <point x="440" y="829" type="curve" smooth="yes"/>
      <point x="440" y="790"/>
      <point x="405" y="763"/>
      <point x="363" y="763" type="curve" smooth="yes"/>
    </contour>
    <contour>
      <point x="212" y="267" type="line"/>
      <point x="356" y="680" type="line"/>
      <point x="392" y="566" type="line"/>
      <point x="497" y="267" type="line"/>
    </contour>
  </outline>
</glyph>
<glyph name="Edieresis" format="1">
  <advance width="644"/>
  <unicode hex="00CB"/>
  <outline>
    <contour>
      <point x="487" y="825"/>
      <point x="516" y="847"/>
      <point x="516" y="879" type="curve" smooth="yes"/>
      <point x="516" y="905"/>
      <point x="500" y="926"/>
      <point x="467" y="926" type="curve" smooth="yes"/>
      <point x="439" y="926"/>
      <point x="410" y="902"/>
      <point x="410" y="871" type="curve" smooth="yes"/>
      <point x="410" y="842"/>
      <point x="433" y="825"/>
      <point x="458" y="825" type="curve" smooth="yes"/>
    </contour>
    <contour>
      <point x="264" y="825"/>
      <point x="292" y="847"/>
      <point x="292" y="880" type="curve" smooth="yes"/>
      <point x="292" y="905"/>
      <point x="277" y="926"/>
      <point x="244" y="926" type="curve" smooth="yes"/>
      <point x="216" y="926"/>
      <point x="187" y="903"/>
      <point x="187" y="872" type="curve" smooth="yes"/>
      <point x="187" y="843"/>
      <point x="210" y="825"/>
      <point x="235" y="825" type="curve" smooth="yes"/>
    </contour>
    <contour>
      <point x="50" y="0" type="line"/>
      <point x="589" y="0" type="line"/>
      <point x="611" y="154" type="line"/>
      <point x="575" y="163" type="line"/>
      <point x="531" y="49" type="line"/>
      <point x="209" y="41" type="line"/>
      <point x="209" y="382" type="line"/>
      <point x="409" y="379" type="line"/>
      <point x="421" y="297" type="line"/>
      <point x="460" y="297" type="line"/>
      <point x="460" y="504" type="line"/>
      <point x="421" y="504" type="line"/>
      <point x="409" y="426" type="line"/>
      <point x="209" y="422" type="line"/>
      <point x="209" y="719" type="line"/>
      <point x="508" y="713" type="line"/>
      <point x="531" y="619" type="line"/>
      <point x="572" y="619" type="line"/>
      <point x="558" y="758" type="line"/>
      <point x="52" y="758" type="line"/>
      <point x="52" y="721" type="line"/>
      <point x="138" y="713" type="line"/>
      <point x="138" y="44" type="line"/>
      <point x="50" y="33" type="line"/>
    </contour>
  </outline>
</glyph>
<glyph name="Igrave" format="1">
  <advance width="373"/>
  <unicode hex="00CC"/>
  <outline>
    <contour>
      <point x="208" y="806" type="line"/>
      <point x="64" y="938" type="line"/>
      <point x="12" y="884" type="line"/>
      <point x="58" y="848"/>
      <point x="129" y="809"/>
      <point x="188" y="785" type="curve"/>
    </contour>
    <contour>
      <point x="66" y="0" type="line"/>
      <point x="307" y="0" type="line"/>
      <point x="307" y="33" type="line"/>
      <point x="221" y="44" type="line"/>
      <point x="221" y="714" type="line"/>
      <point x="303" y="721" type="line"/>
      <point x="303" y="758" type="line"/>
      <point x="68" y="758" type="line"/>
      <point x="68" y="721" type="line"/>
      <point x="149" y="714" type="line"/>
      <point x="149" y="44" type="line"/>
      <point x="66" y="33" type="line"/>
    </contour>
  </outline>
</glyph>
<glyph name="Idieresis" format="1">
  <advance width="373"/>
  <unicode hex="00CF"/>
  <outline>
    <contour>
      <point x="322" y="825"/>
      <point x="350" y="847"/>
      <point x="350" y="879" type="curve" smooth="yes"/>
      <point x="350" y="905"/>
      <point x="335" y="926"/>
      <point x="302" y="926" type="curve" smooth="yes"/>
      <point x="274" y="926"/>
      <point x="244" y="902"/>
      <point x="244" y="871" type="curve" smooth="yes"/>
      <point x="244" y="842"/>
      <point x="268" y="825"/>
      <point x="292" y="825" type="curve" smooth="yes"/>
    </contour>
    <contour>
      <point x="99" y="825"/>
      <point x="127" y="847"/>
      <point x="127" y="880" type="curve" smooth="yes"/>
      <point x="127" y="905"/>
      <point x="112" y="926"/>
      <point x="78" y="926" type="curve" smooth="yes"/>
      <point x="51" y="926"/>
      <point x="21" y="903"/>
      <point x="21" y="872" type="curve" smooth="yes"/>
      <point x="21" y="843"/>
      <point x="44" y="825"/>
      <point x="69" y="825" type="curve" smooth="yes"/>
    </contour>
    <contour>
      <point x="66" y="0" type="line"/>
      <point x="307" y="0" type="line"/>
      <point x="307" y="33" type="line"/>
      <point x="221" y="44" type="line"/>
      <point x="221" y="714" type="line"/>
      <point x="303" y="721" type="line"/>
      <point x="303" y="758" type="line"/>
      <point x="68" y="758" type="line"/>
      <point x="68" y="721" type="line"/>
      <point x="149" y="714" type="line"/>
      <point x="149" y="44" type="line"/>
      <point x="66" y="33" type="line"/>
    </contour>
  </outline>
</glyph>
<glyph name="Ntilde" format="1">
  <advance width="812"/>
  <unicode hex="00D1"/>
  <outline>
    <contour>
      <point x="237" y="831" type="line"/>
      <point x="258" y="855"/>
      <point x="292" y="879"/>
      <point x="331" y="879" type="curve" smooth="yes"/>
      <point x="381" y="879"/>
      <point x="404" y="807"/>
      <point x="467" y="807" type="curve" smooth="yes"/>
      <point x="520" y="807"/>
      <point x="570" y="844"/>
      <point x="595" y="885" type="curve"/>
      <point x="575" y="915" type="line"/>
      <point x="553" y="890"/>
      <point x="523" y="867"/>
      <point x="481" y="867" type="curve" smooth="yes"/>
      <point x="432" y="867"/>
      <point x="409" y="938"/>
      <point x="346" y="938" type="curve" smooth="yes"/>
      <point x="293" y="938"/>
      <point x="242" y="902"/>
      <point x="216" y="859" type="curve"/>
    </contour>
    <contour>
      <point x="51" y="0" type="line"/>
      <point x="291" y="0" type="line"/>
      <point x="291" y="33" type="line"/>
      <point x="190" y="44" type="line"/>
      <point x="190" y="191"/>
      <point x="191" y="529"/>
      <point x="191" y="680" type="curve"/>
      <point x="263" y="543" type="line"/>
      <point x="610" y="0" type="line"/>
      <point x="689" y="0" type="line"/>
      <point x="689" y="710" type="line"/>
      <point x="774" y="718" type="line"/>
      <point x="774" y="758" type="line"/>
      <point x="551" y="758" type="line"/>
      <point x="551" y="718" type="line"/>
      <point x="636" y="710" type="line"/>
      <point x="636" y="63" type="line"/>
      <point x="564" y="195" type="line"/>
      <point x="213" y="758" type="line"/>
      <point x="54" y="758" type="line"/>
      <point x="54" y="717" type="line"/>
      <point x="137" y="710" type="line"/>
      <point x="137" y="44" type="line"/>
      <point x="51" y="33" type="line"/>
    </contour>
  </outline>
</glyph>
<glyph name="Ocircumflex" format="1">
  <advance width="759"/>
  <unicode hex="00D4"/>
  <outline>
    <contour>
      <point x="252" y="790" type="line"/>
      <point x="388" y="887" type="line"/>
      <point x="521" y="790" type="line"/>
      <point x="556" y="809" type="line"/>
      <point x="424" y="938" type="line"/>
      <point x="353" y="938" type="line"/>
      <point x="222" y="808" type="line"/>
    </contour>
    <contour>
      <point x="42" y="142"/>
      <point x="176" y="-18"/>
      <point x="379" y="-14" type="curve" smooth="yes"/>
      <point x="562" y="-10"/>
      <point x="711" y="132"/>
      <point x="716" y="386" type="curve" smooth="yes"/>
      <point x="720" y="609"/>
      <point x="592" y="769"/>
      <point x="393" y="765" type="curve" smooth="yes"/>
      <point x="207" y="761"/>
      <point x="51" y="624"/>
      <point x="45" y="369" type="curve" smooth="yes"/>
    </contour>
    <contour>
      <point x="224" y="27"/>
      <point x="125" y="176"/>
      <point x="125" y="369" type="curve" smooth="yes"/>
      <point x="125" y="595"/>
      <point x="234" y="724"/>
      <point x="385" y="724" type="curve" smooth="yes"/>
      <point x="547" y="724"/>
      <point x="638" y="573"/>
      <point x="638" y="386" type="curve" smooth="yes"/>
      <point x="638" y="165"/>
      <point x="536" y="27"/>
      <point x="386" y="27" type="curve" smooth="yes"/>
    </contour>
  </outline>
</glyph>
<glyph name="Odieresis" format="1">
  <advance width="759"/>
  <unicode hex="00D6"/>
  <outline>
    <contour>
      <point x="523" y="825"/>
      <point x="552" y="847"/>
      <point x="552" y="879" type="curve" smooth="yes"/>
      <point x="552" y="905"/>
      <point x="537" y="926"/>
      <point x="503" y="926" type="curve" smooth="yes"/>
      <point x="476" y="926"/>
      <point x="446" y="902"/>
      <point x="446" y="871" type="curve" smooth="yes"/>
      <point x="446" y="842"/>
      <point x="470" y="825"/>
      <point x="495" y="825" type="curve" smooth="yes"/>
    </contour>
    <contour>
      <point x="300" y="825"/>
      <point x="329" y="847"/>
      <point x="329" y="880" type="curve" smooth="yes"/>
      <point x="329" y="905"/>
      <point x="313" y="926"/>
      <point x="280" y="926" type="curve" smooth="yes"/>
      <point x="253" y="926"/>
      <point x="223" y="903"/>
      <point x="223" y="872" type="curve" smooth="yes"/>
      <point x="223" y="843"/>
      <point x="246" y="825"/>
      <point x="271" y="825" type="curve" smooth="yes"/>
    </contour>
    <contour>
      <point x="42" y="142"/>
      <point x="176" y="-18"/>
      <point x="379" y="-14" type="curve" smooth="yes"/>
      <point x="562" y="-10"/>
      <point x="711" y="132"/>
      <point x="716" y="386" type="curve" smooth="yes"/>
      <point x="720" y="609"/>
      <point x="592" y="769"/>
      <point x="393" y="765" type="curve" smooth="yes"/>
      <point x="207" y="761"/>
      <point x="51" y="624"/>
      <point x="45" y="369" type="curve" smooth="yes"/>
    </contour>
    <contour>
      <point x="224" y="27"/>
      <point x="125" y="176"/>
      <point x="125" y="369" type="curve" smooth="yes"/>
      <point x="125" y="595"/>
      <point x="234" y="724"/>
      <point x="385" y="724" type="curve" smooth="yes"/>
      <point x="547" y="724"/>
      <point x="638" y="573"/>
      <point x="638" y="386" type="curve" smooth="yes"/>
      <point x="638" y="165"/>
      <point x="536" y="27"/>
      <point x="386" y="27" type="curve" smooth="yes"/>
    </contour>
  </outline>
</glyph>
<glyph name="multiply" format="1">
  <advance width="606"/>
  <unicode hex="00D7"/>
  <outline>
    <contour>
      <point x="137" y="176" type="line"/>
      <point x="302" y="352" type="line"/>
      <point x="469" y="176" type="line"/>
      <point x="513" y="223" type="line"/>
      <point x="340" y="389" type="line"/>
      <point x="513" y="555" type="line"/>
      <point x="469" y="602" type="line"/>
      <point x="302" y="426" type="line"/>
      <point x="137" y="602" type="line"/>
      <point x="93" y="555" type="line"/>
      <point x="266" y="389" type="line"/>
      <point x="93" y="223" type="line"/>
    </contour>
  </outline>
</glyph>
<glyph name="Uacute" format="1">
  <advance width="770"/>
  <unicode hex="00DA"/>
  <outline>
    <contour>
      <point x="386" y="785" type="line"/>
      <point x="445" y="809"/>
      <point x="516" y="848"/>
      <point x="562" y="884" type="curve"/>
      <point x="510" y="938" type="line"/>
      <point x="366" y="806" type="line"/>
    </contour>
    <contour>
      <point x="91" y="316" type="line" smooth="yes"/>
      <point x="91" y="94"/>
      <point x="175" y="-14"/>
      <point x="382" y="-14" type="curve" smooth="yes"/>
      <point x="548" y="-14"/>
      <point x="663" y="81"/>
      <point x="663" y="324" type="curve" smooth="yes"/>
      <point x="663" y="713" type="line"/>
      <point x="739" y="721" type="line"/>
      <point x="739" y="758" type="line"/>
      <point x="522" y="758" type="line"/>
      <point x="522" y="721" type="line"/>
      <point x="606" y="713" type="line"/>
      <point x="606" y="324" type="line" smooth="yes"/>
      <point x="606" y="134"/>
      <point x="541" y="25"/>
      <point x="396" y="25" type="curve" smooth="yes"/>
      <point x="261" y="25"/>
      <point x="164" y="89"/>
      <point x="164" y="313" type="curve" smooth="yes"/>
      <point x="164" y="713" type="line"/>
      <point x="249" y="721" type="line"/>
      <point x="249" y="758" type="line"/>
      <point x="16" y="758" type="line"/>
      <point x="16" y="721" type="line"/>
      <point x="91" y="714" type="line"/>
    </contour>
  </outline>
</glyph>
<glyph name="germandbls" format="1">
  <advance width="651"/>
  <unicode hex="00DF"/>
  <outline>
    <contour>
      <point x="33" y="0" type="line"/>
      <point x="180" y="0" type="line"/>
      <point x="180" y="426" type="line" smooth="yes"/>
      <point x="180" y="654"/>
      <point x="248" y="725"/>
      <point x="355" y="725" type="curve" smooth="yes"/>
      <point x="427" y="725"/>
      <point x="462" y="672"/>
      <point x="462" y="604" type="curve" smooth="yes"/>
      <point x="462" y="510"/>
      <point x="361" y="441"/>
      <point x="361" y="367" type="curve" smooth="yes"/>
      <point x="361" y="249"/>
      <point x="572" y="255"/>
      <point x="572" y="137" type="curve" smooth="yes"/>
      <point x="572" y="59"/>
      <point x="512" y="33"/>
      <point x="443" y="33" type="curve" smooth="yes"/>
      <point x="405" y="33"/>
      <point x="354" y="51"/>
      <point x="329" y="64" type="curve"/>
      <point x="329" y="-1" type="line"/>
      <point x="368" y="-10"/>
      <point x="408" y="-10"/>
      <point x="437" y="-10" type="curve" smooth="yes"/>
      <point x="544" y="-10"/>
      <point x="639" y="37"/>
      <point x="639" y="151" type="curve" smooth="yes"/>
      <point x="639" y="308"/>
      <point x="428" y="292"/>
      <point x="428" y="394" type="curve" smooth="yes"/>
      <point x="428" y="484"/>
      <point x="526" y="511"/>
      <point x="526" y="629" type="curve" smooth="yes"/>
      <point x="526" y="740"/>
      <point x="444" y="770"/>
      <point x="374" y="770" type="curve" smooth="yes"/>
      <point x="237" y="770"/>
      <point x="109" y="665"/>
      <point x="109" y="426" type="curve" smooth="yes"/>
      <point x="109" y="45" type="line"/>
      <point x="33" y="33" type="line"/>
    </contour>
  </outline>
</glyph>
<glyph name="aring" format="1">
  <advance width="559"/>
  <unicode hex="00E5"/>
  <outline>
    <contour>
      <point x="335" y="645"/>
      <point x="389" y="696"/>
      <point x="389" y="760" type="curve" smooth="yes"/>
      <point x="389" y="824"/>
      <point x="335" y="875"/>
      <point x="270" y="875" type="curve" smooth="yes"/>
      <point x="204" y="875"/>
      <point x="149" y="824"/>
      <point x="149" y="760" type="curve" smooth="yes"/>
      <point x="149" y="696"/>
      <point x="204" y="645"/>
      <point x="270" y="645" type="curve" smooth="yes"/>
    </contour>
    <contour>
      <point x="229" y="685"/>
      <point x="195" y="716"/>
      <point x="195" y="759" type="curve" smooth="yes"/>
      <point x="195" y="801"/>
      <point x="229" y="833"/>
      <point x="269" y="833" type="curve" smooth="yes"/>
      <point x="310" y="833"/>
      <point x="344" y="801"/>
      <point x="344" y="759" type="curve" smooth="yes"/>
      <point x="344" y="716"/>
      <point x="310" y="685"/>
      <point x="269" y="685" type="curve" smooth="yes"/>
    </contour>
    <contour>
      <point x="50" y="47"/>
      <point x="134" y="-11"/>
      <point x="221" y="-11" type="curve" smooth="yes"/>
      <point x="308" y="-11"/>
      <point x="361" y="18"/>
      <point x="397" y="59" type="curve"/>
      <point x="397" y="39" type="line" smooth="yes"/>
      <point x="397" y="-5"/>
      <point x="420" y="-8"/>
      <point x="443" y="-8" type="curve" smooth="yes"/>
      <point x="477" y="-8"/>
      <point x="508" y="-1"/>
      <point x="527" y="8" type="curve"/>
      <point x="527" y="35" type="line"/>
      <point x="463" y="35" type="line"/>
      <point x="464" y="377" type="line" smooth="yes"/>
      <point x="464" y="521"/>
      <point x="377" y="556"/>
      <point x="273" y="556" type="curve" smooth="yes"/>
      <point x="226" y="556"/>
      <point x="126" y="537"/>
      <point x="78" y="497" type="curve"/>
      <point x="92" y="462" type="line"/>
      <point x="128" y="485"/>
      <point x="200" y="506"/>
      <point x="249" y="506" type="curve" smooth="yes"/>
      <point x="338" y="506"/>
      <point x="393" y="477"/>
      <point x="393" y="368" type="curve" smooth="yes"/>
      <point x="393" y="325" type="line"/>
      <point x="271" y="325"/>
      <point x="68" y="288"/>
      <point x="57" y="152" type="curve" smooth="yes"/>
    </contour>
    <contour>
      <point x="128" y="257"/>
      <point x="288" y="285"/>
      <point x="393" y="285" type="curve"/>
      <point x="393" y="216"/>
      <point x="393" y="135"/>
      <point x="393" y="88" type="curve"/>
      <point x="375" y="73"/>
      <point x="327" y="37"/>
      <point x="257" y="37" type="curve" smooth="yes"/>
      <point x="181" y="37"/>
      <point x="127" y="71"/>
      <point x="128" y="151" type="curve" smooth="yes"/>
    </contour>
  </outline>
</glyph>
<glyph name="ae" format="1">
  <advance width="884"/>
  <unicode hex="00E6"/>
  <outline>
    <contour>
      <point x="50" y="48"/>
      <point x="133" y="-11"/>
      <point x="216" y="-11" type="curve" smooth="yes"/>
      <point x="314" y="-11"/>
      <point x="402" y="35"/>
      <point x="431" y="105" type="curve"/>
      <point x="468" y="32"/>
      <point x="535" y="-12"/>
      <point x="637" y="-12" type="curve" smooth="yes"/>
      <point x="705" y="-12"/>
      <point x="789" y="9"/>
      <point x="824" y="43" type="curve"/>
      <point x="809" y="77" type="line"/>
      <point x="783" y="58"/>
      <point x="718" y="38"/>
      <point x="663" y="38" type="curve" smooth="yes"/>
      <point x="547" y="38"/>
      <point x="458" y="114"/>
      <point x="461" y="280" type="curve"/>
      <point x="829" y="280" type="line"/>
      <point x="832" y="301"/>
      <point x="835" y="326"/>
      <point x="834" y="359" type="curve" smooth="yes"/>
      <point x="830" y="491"/>
      <point x="761" y="564"/>
      <point x="652" y="563" type="curve" smooth="yes"/>
      <point x="559" y="561"/>
      <point x="489" y="519"/>
      <point x="446" y="447" type="curve"/>
      <point x="424" y="537"/>
      <point x="354" y="556"/>
      <point x="277" y="556" type="curve" smooth="yes"/>
      <point x="219" y="556"/>
      <point x="123" y="532"/>
      <point x="79" y="497" type="curve"/>
      <point x="91" y="460" type="line"/>
      <point x="135" y="486"/>
      <point x="205" y="506"/>
      <point x="252" y="506" type="curve" smooth="yes"/>
      <point x="333" y="506"/>
      <point x="391" y="480"/>
      <point x="391" y="368" type="curve" smooth="yes"/>
      <point x="391" y="323" type="line"/>
      <point x="290" y="327"/>
      <point x="66" y="292"/>
      <point x="57" y="153" type="curve" smooth="yes"/>
    </contour>
    <contour>
      <point x="462" y="324" type="line"/>
      <point x="473" y="453"/>
      <point x="542" y="522"/>
      <point x="633" y="522" type="curve" smooth="yes"/>
      <point x="656" y="522"/>
      <point x="676" y="518"/>
      <point x="693" y="508" type="curve" smooth="yes"/>
      <point x="748" y="479"/>
      <point x="764" y="409"/>
      <point x="759" y="324" type="curve"/>
    </contour>
    <contour>
      <point x="128" y="261"/>
      <point x="305" y="287"/>
      <point x="391" y="285" type="curve"/>
      <point x="391" y="244"/>
      <point x="390" y="174"/>
      <point x="390" y="133" type="curve"/>
      <point x="376" y="77"/>
      <point x="319" y="37"/>
      <point x="252" y="37" type="curve" smooth="yes"/>
      <point x="177" y="37"/>
      <point x="128" y="75"/>
      <point x="128" y="152" type="curve" smooth="yes"/>
    </contour>
  </outline>
</glyph>
<glyph name="ecircumflex" format="1">
  <advance width="559"/>
  <unicode hex="00EA"/>
  <outline>
    <contour>
      <point x="155" y="653" type="line"/>
      <point x="296" y="802" type="line"/>
      <point x="432" y="653" type="line"/>
      <point x="465" y="671" type="line"/>
      <point x="332" y="865" type="line"/>
      <point x="262" y="865" type="line"/>
      <point x="125" y="670" type="line"/>
    </contour>
    <contour>
      <point x="50" y="100"/>
      <point x="136" y="-12"/>
      <point x="293" y="-12" type="curve" smooth="yes"/>
      <point x="368" y="-12"/>
      <point x="455" y="9"/>
      <point x="493" y="43" type="curve"/>
      <point x="478" y="77" type="line"/>
      <point x="450" y="58"/>
      <point x="381" y="39"/>
      <point x="319" y="39" type="curve" smooth="yes"/>
      <point x="210" y="39"/>
      <point x="120" y="112"/>
      <point x="122" y="275" type="curve" smooth="yes"/>
      <point x="122" y="280" type="line"/>
      <point x="501" y="280" type="line"/>
      <point x="505" y="301"/>
      <point x="508" y="326"/>
      <point x="506" y="359" type="curve" smooth="yes"/>
      <point x="504" y="489"/>
      <point x="430" y="564"/>
      <point x="318" y="563" type="curve" smooth="yes"/>
      <point x="162" y="560"/>
      <point x="50" y="438"/>
      <point x="50" y="271" type="curve" smooth="yes"/>
    </contour>
    <contour>
      <point x="124" y="324" type="line"/>
      <point x="137" y="456"/>
      <point x="210" y="522"/>
      <point x="300" y="522" type="curve" smooth="yes"/>
      <point x="326" y="522"/>
      <point x="348" y="517"/>
      <point x="366" y="507" type="curve" smooth="yes"/>
      <point x="422" y="477"/>
      <point x="437" y="406"/>
      <point x="432" y="324" type="curve"/>
    </contour>
  </outline>
</glyph>
<glyph name="eth" format="1">
  <advance width="601"/>
  <unicode hex="00F0"/>
  <outline>
    <contour>
      <point x="49" y="93"/>
      <point x="148" y="-17"/>
      <point x="299" y="-13" type="curve" smooth="yes"/>
      <point x="438" y="-11"/>
      <point x="552" y="99"/>
      <point x="552" y="298" type="curve" smooth="yes"/>
      <point x="552" y="481"/>
      <point x="468" y="636"/>
      <point x="337" y="735" type="curve"/>
      <point x="388" y="780" type="line" smooth="yes"/>
      <point x="398" y="788"/>
      <point x="408" y="797"/>
      <point x="417" y="806" type="curve"/>
      <point x="377" y="838" type="line"/>
      <point x="347" y="810" type="line"/>
      <point x="296" y="763" type="line"/>
      <point x="257" y="787"/>
      <point x="215" y="807"/>
      <point x="169" y="822" type="curve"/>
      <point x="160" y="781" type="line"/>
      <point x="191" y="771"/>
      <point x="227" y="754"/>
      <point x="262" y="729" type="curve"/>
      <point x="179" y="653" type="line"/>
      <point x="217" y="623" type="line"/>
      <point x="302" y="700" type="line"/>
      <point x="378" y="637"/>
      <point x="448" y="544"/>
      <point x="472" y="428" type="curve"/>
      <point x="437" y="472"/>
      <point x="364" y="504"/>
      <point x="300" y="504" type="curve" smooth="yes"/>
      <point x="166" y="504"/>
      <point x="49" y="417"/>
      <point x="49" y="245" type="curve" smooth="yes"/>
    </contour>
    <contour>
      <point x="125" y="379"/>
      <point x="183" y="463"/>
      <point x="300" y="463" type="curve" smooth="yes"/>
      <point x="396" y="463"/>
      <point x="458" y="392"/>
      <point x="473" y="335" type="curve"/>
      <point x="477" y="313"/>
      <point x="476" y="279"/>
      <point x="476" y="263" type="curve" smooth="yes"/>
      <point x="475" y="155"/>
      <point x="419" y="27"/>
      <point x="305" y="27" type="curve" smooth="yes"/>
      <point x="182" y="27"/>
      <point x="125" y="134"/>
      <point x="125" y="250" type="curve" smooth="yes"/>
    </contour>
  </outline>
</glyph>
<glyph name="ntilde" format="1">
  <advance width="682"/>
  <unicode hex="00F1"/>
  <outline>
    <contour>
      <point x="187" y="703" type="line"/>
      <point x="208" y="728"/>
      <point x="239" y="755"/>
      <point x="280" y="755" type="curve" smooth="yes"/>
      <point x="330" y="755"/>
      <point x="354" y="681"/>
      <point x="416" y="681" type="curve" smooth="yes"/>
      <point x="469" y="681"/>
      <point x="520" y="719"/>
      <point x="544" y="761" type="curve"/>
      <point x="524" y="790" type="line"/>
      <point x="502" y="765"/>
      <point x="471" y="738"/>
      <point x="431" y="738" type="curve" smooth="yes"/>
      <point x="381" y="738"/>
      <point x="358" y="812"/>
      <point x="295" y="812" type="curve" smooth="yes"/>
      <point x="243" y="812"/>
      <point x="191" y="774"/>
      <point x="166" y="731" type="curve"/>
    </contour>
    <contour>
      <point x="67" y="0" type="line"/>
      <point x="285" y="0" type="line"/>
      <point x="285" y="33" type="line"/>
      <point x="208" y="42" type="line"/>
      <point x="208" y="443" type="line"/>
      <point x="257" y="477"/>
      <point x="323" y="501"/>
      <point x="374" y="503" type="curve" smooth="yes"/>
      <point x="472" y="507"/>
      <point x="501" y="454"/>
      <point x="501" y="315" type="curve" smooth="yes"/>
      <point x="501" y="42" type="line"/>
      <point x="426" y="33" type="line"/>
      <point x="426" y="0" type="line"/>
      <point x="651" y="0" type="line"/>
      <point x="651" y="33" type="line"/>
      <point x="572" y="42" type="line"/>
      <point x="572" y="324" type="line" smooth="yes"/>
      <point x="572" y="499"/>
      <point x="528" y="562"/>
      <point x="405" y="558" type="curve" smooth="yes"/>
      <point x="337" y="555"/>
      <point x="244" y="512"/>
      <point x="199" y="477" type="curve"/>
      <point x="199" y="544" type="line"/>
      <point x="181" y="553" type="line"/>
      <point x="65" y="523" type="line"/>
      <point x="65" y="499" type="line"/>
      <point x="137" y="473" type="line"/>
      <point x="137" y="42" type="line"/>
      <point x="67" y="33" type="line"/>
    </contour>
  </outline>
</glyph>
<glyph name="ocircumflex" format="1">
  <advance width="601"/>
  <unicode hex="00F4"/>
  <outline>
    <contour>
      <point x="165" y="653" type="line"/>
      <point x="307" y="802" type="line"/>
      <point x="442" y="653" type="line"/>
      <point x="475" y="671" type="line"/>
      <point x="342" y="865" type="line"/>
      <point x="272" y="865" type="line"/>
      <point x="135" y="670" type="line"/>
    </contour>
    <contour>
      <point x="49" y="131"/>
      <point x="118" y="-12"/>
      <point x="297" y="-12" type="curve" smooth="yes"/>
      <point x="440" y="-12"/>
      <point x="549" y="110"/>
      <point x="551" y="282" type="curve" smooth="yes"/>
      <point x="551" y="428"/>
      <point x="481" y="564"/>
      <point x="310" y="563" type="curve" smooth="yes"/>
      <point x="173" y="561"/>
      <point x="54" y="456"/>
      <point x="51" y="284" type="curve" smooth="yes"/>
    </contour>
    <contour>
      <point x="177" y="33"/>
      <point x="126" y="151"/>
      <point x="126" y="288" type="curve" smooth="yes"/>
      <point x="126" y="436"/>
      <point x="192" y="524"/>
      <point x="305" y="522" type="curve" smooth="yes"/>
      <point x="428" y="520"/>
      <point x="476" y="409"/>
      <point x="476" y="277" type="curve" smooth="yes"/>
      <point x="476" y="116"/>
      <point x="414" y="28"/>
      <point x="301" y="31" type="curve" smooth="yes"/>
    </contour>
  </outline>
</glyph>
<glyph name="otilde" format="1">
  <advance width="601"/>
  <unicode hex="00F5"/>
  <outline>
    <contour>
      <point x="134" y="703" type="line"/>
      <point x="155" y="728"/>
      <point x="187" y="755"/>
      <point x="228" y="755" type="curve" smooth="yes"/>
      <point x="278" y="755"/>
      <point x="301" y="681"/>
      <point x="364" y="681" type="curve" smooth="yes"/>
      <point x="417" y="681"/>
      <point x="468" y="719"/>
      <point x="492" y="761" type="curve"/>
      <point x="472" y="790" type="line"/>
      <point x="450" y="765"/>
      <point x="419" y="738"/>
      <point x="378" y="738" type="curve" smooth="yes"/>
      <point x="329" y="738"/>
      <point x="306" y="812"/>
      <point x="243" y="812" type="curve" smooth="yes"/>
      <point x="191" y="812"/>
      <point x="139" y="774"/>
      <point x="113" y="731" type="curve"/>
    </contour>
    <contour>
      <point x="49" y="131"/>
      <point x="118" y="-12"/>
      <point x="297" y="-12" type="curve" smooth="yes"/>
      <point x="440" y="-12"/>
      <point x="549" y="110"/>
      <point x="551" y="282" type="curve" smooth="yes"/>
      <point x="551" y="428"/>
      <point x="481" y="564"/>
      <point x="310" y="563" type="curve" smooth="yes"/>
      <point x="173" y="561"/>
      <point x="54" y="456"/>
      <point x="51" y="284" type="curve" smooth="yes"/>
    </contour>
    <contour>
      <point x="177" y="33"/>
      <point x="126" y="151"/>
      <point x="126" y="288" type="curve" smooth="yes"/>
      <point x="126" y="436"/>
      <point x="192" y="524"/>
      <point x="305" y="522" type="curve" smooth="yes"/>
      <point x="428" y="520"/>
      <point x="476" y="409"/>
      <point x="476" y="277" type="curve" smooth="yes"/>
      <point x="476" y="116"/>
      <point x="414" y="28"/>
      <point x="301" y="31" type="curve" smooth="yes"/>
    </contour>
  </outline>
</glyph>
<glyph name="odieresis" format="1">
  <advance width="601"/>
  <unicode hex="00F6"/>
  <outline>
    <contour>
      <point x="441" y="696"/>
      <point x="469" y="716"/>
      <point x="469" y="749" type="curve" smooth="yes"/>
      <point x="469" y="774"/>
      <point x="454" y="795"/>
      <point x="421" y="795" type="curve" smooth="yes"/>
      <point x="393" y="795"/>
      <point x="364" y="771"/>
      <point x="364" y="741" type="curve" smooth="yes"/>
      <point x="364" y="712"/>
      <point x="387" y="696"/>
      <point x="412" y="696" type="curve" smooth="yes"/>
    </contour>
    <contour>
      <point x="219" y="696"/>
      <point x="247" y="716"/>
      <point x="247" y="749" type="curve" smooth="yes"/>
      <point x="247" y="774"/>
      <point x="232" y="795"/>
      <point x="199" y="795" type="curve" smooth="yes"/>
      <point x="171" y="795"/>
      <point x="142" y="771"/>
      <point x="142" y="741" type="curve" smooth="yes"/>
      <point x="142" y="712"/>
      <point x="165" y="696"/>
      <point x="189" y="696" type="curve" smooth="yes"/>
    </contour>
    <contour>
      <point x="49" y="131"/>
      <point x="118" y="-12"/>
      <point x="297" y="-12" type="curve" smooth="yes"/>
      <point x="440" y="-12"/>
      <point x="549" y="110"/>
      <point x="551" y="282" type="curve" smooth="yes"/>
      <point x="551" y="428"/>
      <point x="481" y="564"/>
      <point x="310" y="563" type="curve" smooth="yes"/>
      <point x="173" y="561"/>
      <point x="54" y="456"/>
      <point x="51" y="284" type="curve" smooth="yes"/>
    </contour>
    <contour>
      <point x="177" y="33"/>
      <point x="126" y="151"/>
      <point x="126" y="288" type="curve" smooth="yes"/>
      <point x="126" y="436"/>
      <point x="192" y="524"/>
      <point x="305" y="522" type="curve" smooth="yes"/>
      <point x="428" y="520"/>
      <point x="476" y="409"/>
      <point x="476" y="277" type="curve" smooth="yes"/>
      <point x="476" y="116"/>
      <point x="414" y="28"/>
      <point x="301" y="31" type="curve" smooth="yes"/>
    </contour>
  </outline>
</glyph>
<glyph name="yacute" format="1">
  <advance width="562"/>
  <unicode hex="00FD"/>
  <outline>
    <contour>
      <point x="262" y="656" type="line"/>
      <point x="322" y="697"/>
      <point x="415" y="764"/>
      <point x="446" y="811" type="curve"/>
      <point x="394" y="864" type="line"/>
      <point x="241" y="677" type="line"/>
    </contour>
    <contour>
      <point x="73" y="-244" type="line"/>
      <point x="79" y="-248"/>
      <point x="99" y="-251"/>
      <point x="112" y="-251" type="curve" smooth="yes"/>
      <point x="127" y="-251"/>
      <point x="142" y="-250"/>
      <point x="154" y="-247" type="curve" smooth="yes"/>
      <point x="235" y="-227"/>
      <point x="286" y="-146"/>
      <point x="336" y="-16" type="curve" smooth="yes"/>
      <point x="352" y="23"/>
      <point x="384" y="117"/>
      <point x="511" y="500" type="curve"/>
      <point x="572" y="506" type="line"/>
      <point x="572" y="546" type="line"/>
      <point x="370" y="546" type="line"/>
      <point x="370" y="506" type="line"/>
      <point x="450" y="500" type="line"/>
      <point x="342" y="149" type="line"/>
      <point x="309" y="33" type="line"/>
      <point x="265" y="157" type="line"/>
      <point x="140" y="499" type="line"/>
      <point x="221" y="506" type="line"/>
      <point x="221" y="546" type="line"/>
      <point x="1" y="546" type="line"/>
      <point x="1" y="506" type="line"/>
      <point x="62" y="499" type="line"/>
      <point x="267" y="-12" type="line"/>
      <point x="280" y="-12" type="line"/>
      <point x="233" y="-159"/>
      <point x="159" y="-192"/>
      <point x="112" y="-190" type="curve" smooth="yes"/>
      <point x="101" y="-190"/>
      <point x="84" y="-188"/>
      <point x="73" y="-184" type="curve"/>
    </contour>
  </outline>
</glyph>
<glyph name="ydieresis" format="1">
  <advance width="562"/>
  <unicode hex="00FF"/>
  <outline>
    <contour>
      <point x="433" y="696"/>
      <point x="461" y="716"/>
      <point x="461" y="749" type="curve" smooth="yes"/>
      <point x="461" y="774"/>
      <point x="446" y="795"/>
      <point x="413" y="795" type="curve" smooth="yes"/>
      <point x="385" y="795"/>
      <point x="356" y="771"/>
      <point x="356" y="741" type="curve" smooth="yes"/>
      <point x="356" y="712"/>
      <point x="379" y="696"/>
      <point x="404" y="696" type="curve" smooth="yes"/>
    </contour>
    <contour>
      <point x="211" y="696"/>
      <point x="239" y="716"/>
      <point x="239" y="749" type="curve" smooth="yes"/>
      <point x="239" y="774"/>
      <point x="224" y="795"/>
      <point x="191" y="795" type="curve" smooth="yes"/>
      <point x="163" y="795"/>
      <point x="134" y="771"/>
      <point x="134" y="741" type="curve" smooth="yes"/>
      <point x="134" y="712"/>
      <point x="157" y="696"/>
      <point x="182" y="696" type="curve" smooth="yes"/>
    </contour>
    <contour>
      <point x="73" y="-244" type="line"/>
      <point x="79" y="-248"/>
      <point x="99" y="-251"/>
      <point x="112" y="-251" type="curve" smooth="yes"/>
      <point x="127" y="-251"/>
      <point x="142" y="-250"/>
      <point x="154" y="-247" type="curve" smooth="yes"/>
      <point x="235" y="-227"/>
      <point x="286" y="-146"/>
      <point x="336" y="-16" type="curve" smooth="yes"/>
      <point x="352" y="23"/>
      <point x="384" y="117"/>
      <point x="511" y="500" type="curve"/>
      <point x="572" y="506" type="line"/>
      <point x="572" y="546" type="line"/>
      <point x="370" y="546" type="line"/>
      <point x="370" y="506" type="line"/>
      <point x="450" y="500" type="line"/>
      <point x="342" y="149" type="line"/>
      <point x="309" y="33" type="line"/>
      <point x="265" y="157" type="line"/>
      <point x="140" y="499" type="line"/>
      <point x="221" y="506" type="line"/>
      <point x="221" y="546" type="line"/>
      <point x="1" y="546" type="line"/>
      <point x="1" y="506" type="line"/>
      <point x="62" y="499" type="line"/>
      <point x="267" y="-12" type="line"/>
      <point x="280" y="-12" type="line"/>
      <point x="233" y="-159"/>
      <point x="159" y="-192"/>
      <point x="112" y="-190" type="curve" smooth="yes"/>
      <point x="101" y="-190"/>
      <point x="84" y="-188"/>
      <point x="73" y="-184" type="curve"/>
    </contour>
  </outline>
</glyph>
<glyph name="aogonek" format="1">
  <advance width="559"/>
  <unicode hex="0105"/>
  <outline>
    <contour>
      <point x="50" y="47"/>
      <point x="134" y="-11"/>
      <point x="221" y="-11" type="curve" smooth="yes"/>
      <point x="308" y="-11"/>
      <point x="361" y="18"/>
      <point x="397" y="59" type="curve"/>
      <point x="397" y="39" type="line" smooth="yes"/>
      <point x="397" y="0"/>
      <point x="415" y="-6"/>
      <point x="435" y="-8" type="curve"/>
      <point x="385" y="-27"/>
      <point x="303" y="-83"/>
      <point x="303" y="-155" type="curve" smooth="yes"/>
      <point x="303" y="-275"/>
      <point x="464" y="-269"/>
      <point x="529" y="-217" type="curve"/>
      <point x="529" y="-183" type="line"/>
      <point x="473" y="-215"/>
      <point x="370" y="-223"/>
      <point x="370" y="-136" type="curve" smooth="yes"/>
      <point x="370" y="-70"/>
      <point x="458" y="-20"/>
      <point x="533" y="8" type="curve"/>
      <point x="525" y="6" type="line"/>
      <point x="527" y="8" type="line"/>
      <point x="527" y="35" type="line"/>
      <point x="463" y="35" type="line"/>
      <point x="464" y="377" type="line" smooth="yes"/>
      <point x="464" y="521"/>
      <point x="377" y="556"/>
      <point x="273" y="556" type="curve" smooth="yes"/>
      <point x="226" y="556"/>
      <point x="126" y="537"/>
      <point x="78" y="497" type="curve"/>
      <point x="92" y="462" type="line"/>
      <point x="128" y="485"/>
      <point x="200" y="506"/>
      <point x="249" y="506" type="curve" smooth="yes"/>
      <point x="338" y="506"/>
      <point x="393" y="477"/>
      <point x="393" y="368" type="curve" smooth="yes"/>
      <point x="393" y="325" type="line"/>
      <point x="271" y="325"/>
      <point x="68" y="288"/>
      <point x="57" y="152" type="curve" smooth="yes"/>
    </contour>
    <contour>
      <point x="128" y="257"/>
      <point x="288" y="285"/>
      <point x="393" y="285" type="curve"/>
      <point x="393" y="216"/>
      <point x="393" y="135"/>
      <point x="393" y="88" type="curve"/>
      <point x="375" y="73"/>
      <point x="327" y="37"/>
      <point x="257" y="37" type="curve" smooth="yes"/>
      <point x="181" y="37"/>
      <point x="127" y="71"/>
      <point x="128" y="151" type="curve" smooth="yes"/>
    </contour>
  </outline>
</glyph>
<glyph name="eogonek" format="1">
  <advance width="559"/>
  <unicode hex="0119"/>
  <outline>
    <contour>
      <point x="50" y="100"/>
      <point x="136" y="-12"/>
      <point x="293" y="-12" type="curve" smooth="yes"/>
      <point x="321" y="-12"/>
      <point x="349" y="-9"/>
      <point x="377" y="-3" type="curve"/>
      <point x="317" y="-40"/>
      <point x="270" y="-96"/>
      <point x="270" y="-148" type="curve" smooth="yes"/>
      <point x="270" y="-269"/>
      <point x="431" y="-268"/>
      <point x="496" y="-217" type="curve"/>
      <point x="496" y="-180" type="line"/>
      <point x="440" y="-215"/>
      <point x="336" y="-214"/>
      <point x="336" y="-131" type="curve" smooth="yes"/>
      <point x="336" y="-71"/>
      <point x="413" y="-20"/>
      <point x="495" y="42" type="curve"/>
      <point x="491" y="41" type="line"/>
      <point x="492" y="42"/>
      <point x="492" y="42"/>
      <point x="493" y="43" type="curve"/>
      <point x="478" y="77" type="line"/>
      <point x="450" y="58"/>
      <point x="381" y="39"/>
      <point x="319" y="39" type="curve" smooth="yes"/>
      <point x="210" y="39"/>
      <point x="120" y="112"/>
      <point x="122" y="275" type="curve" smooth="yes"/>
      <point x="122" y="280" type="line"/>
      <point x="501" y="280" type="line"/>
      <point x="505" y="301"/>
      <point x="508" y="326"/>
      <point x="506" y="359" type="curve" smooth="yes"/>
      <point x="504" y="489"/>
      <point x="430" y="564"/>
      <point x="318" y="563" type="curve" smooth="yes"/>
      <point x="162" y="560"/>
      <point x="50" y="438"/>
      <point x="50" y="271" type="curve" smooth="yes"/>
    </contour>
    <contour>
      <point x="124" y="324" type="line"/>
      <point x="137" y="456"/>
      <point x="210" y="522"/>
      <point x="300" y="522" type="curve" smooth="yes"/>
      <point x="326" y="522"/>
      <point x="348" y="517"/>
      <point x="366" y="507" type="curve" smooth="yes"/>
      <point x="422" y="477"/>
      <point x="437" y="406"/>
      <point x="432" y="324" type="curve"/>
    </contour>
  </outline>
</glyph>
<glyph name="Jcircumflex" format="1">
  <advance width="352"/>
  <unicode hex="0134"/>
  <outline>
    <contour>
      <point x="43" y="790" type="line"/>
      <point x="180" y="887" type="line"/>
      <point x="313" y="790" type="line"/>
      <point x="347" y="809" type="line"/>
      <point x="215" y="938" type="line"/>
      <point x="144" y="938" type="line"/>
      <point x="13" y="808" type="line"/>
    </contour>
    <contour>
      <point x="97" y="-92"/>
      <point x="38" y="-139"/>
      <point x="-42" y="-160" type="curve"/>
      <point x="-21" y="-189" type="line"/>
      <point x="79" y="-175"/>
      <point x="183" y="-100"/>
      <point x="207" y="17" type="curve" smooth="yes"/>
      <point x="218" y="78"/>
      <point x="215" y="151"/>
      <point x="215" y="232" type="curve" smooth="yes"/>
      <point x="215" y="714" type="line"/>
      <point x="303" y="721" type="line"/>
      <point x="303" y="758" type="line"/>
      <point x="57" y="758" type="line"/>
      <point x="57" y="721" type="line"/>
      <point x="143" y="714" type="line"/>
      <point x="143" y="196" type="line" smooth="yes"/>
      <point x="143" y="96"/>
      <point x="142" y="28"/>
      <point x="122" y="-29" type="curve"/>
    </contour>
  </outline>
</glyph>
<glyph name="jcircumflex" format="1">
  <advance width="317"/>
  <unicode hex="0135"/>
  <outline>
    <contour>
      <point x="41" y="653" type="line"/>
      <point x="182" y="802" type="line"/>
      <point x="317" y="653" type="line"/>
      <point x="350" y="671" type="line"/>
      <point x="217" y="865" type="line"/>
      <point x="147" y="865" type="line"/>
      <point x="11" y="670" type="line"/>
    </contour>
    <contour>
      <point x="148" y="-1" type="line" smooth="yes"/>
      <point x="148" y="-156"/>
      <point x="112" y="-198"/>
      <point x="49" y="-198" type="curve" smooth="yes"/>
      <point x="38" y="-198"/>
      <point x="6" y="-197"/>
      <point x="-5" y="-193" type="curve"/>
      <point x="-5" y="-244" type="line"/>
      <point x="1" y="-249"/>
      <point x="35" y="-251"/>
      <point x="48" y="-251" type="curve" smooth="yes"/>
      <point x="156" y="-251"/>
      <point x="217" y="-160"/>
      <point x="217" y="-8" type="curve" smooth="yes"/>
      <point x="217" y="544" type="line"/>
      <point x="198" y="553" type="line"/>
      <point x="74" y="523" type="line"/>
      <point x="74" y="499" type="line"/>
      <point x="148" y="474" type="line"/>
    </contour>
  </outline>
</glyph>
<glyph name="kcommaaccent" format="1">
  <advance width="622"/>
  <unicode hex="0137"/>
  <outline>
    <contour>
      <point x="59" y="0" type="line"/>
      <point x="285" y="0" type="line"/>
      <point x="285" y="33" type="line"/>
      <point x="209" y="42" type="line"/>
      <point x="209" y="96" type="line"/>
      <point x="207" y="211" type="line"/>
      <point x="296" y="295" type="line"/>
      <point x="479" y="42" type="line"/>
      <point x="407" y="33" type="line"/>
      <point x="407" y="0" type="line"/>
      <point x="630" y="0" type="line"/>
      <point x="630" y="33" type="line"/>
      <point x="558" y="42" type="line"/>
      <point x="339" y="331" type="line"/>
      <point x="521" y="505" type="line"/>
      <point x="596" y="512" type="line"/>
      <point x="596" y="551" type="line"/>
      <point x="382" y="551" type="line"/>
      <point x="382" y="511" type="line"/>
      <point x="455" y="505" type="line"/>
      <point x="207" y="264" type="line"/>
      <point x="209" y="373" type="line"/>
      <point x="209" y="782" type="line"/>
      <point x="192" y="792" type="line"/>
      <point x="52" y="776" type="line"/>
      <point x="52" y="742" type="line"/>
      <point x="138" y="730" type="line"/>
      <point x="138" y="42" type="line"/>
      <point x="59" y="33" type="line"/>
    </contour>
    <contour>
      <point x="292" y="-73" type="line"/>
      <point x="292" y="-94" type="line"/>
      <point x="315" y="-94"/>
      <point x="351" y="-120"/>
      <point x="351" y="-163" type="curve" smooth="yes"/>
      <point x="351" y="-212"/>
      <point x="330" y="-265"/>
      <point x="292" y="-281" type="curve"/>
      <point x="292" y="-294" type="line"/>
      <point x="312" y="-313" type="line"/>
      <point x="360" y="-295"/>
      <point x="427" y="-229"/>
      <point x="425" y="-147" type="curve" smooth="yes"/>
      <point x="424" y="-101"/>
      <point x="392" y="-48"/>
      <point x="328" y="-36" type="curve"/>
    </contour>
  </outline>
</glyph>
<glyph name="Ldot" format="1">
  <advance width="680"/>
  <unicode hex="013F"/>
  <outline>
    <contour>
      <point x="52" y="0" type="line"/>
      <point x="561" y="0" type="line"/>
      <point x="593" y="155" type="line"/>
      <point x="560" y="171" type="line"/>
      <point x="507" y="51" type="line"/>
      <point x="211" y="42" type="line"/>
      <point x="212" y="710" type="line"/>
      <point x="307" y="717" type="line"/>
      <point x="307" y="758" type="line"/>
      <point x="54" y="758" type="line"/>
      <point x="54" y="717" type="line"/>
      <point x="140" y="710" type="line"/>
      <point x="140" y="45" type="line"/>
      <point x="52" y="33" type="line"/>
    </contour>
    <contour>
      <point x="601" y="366"/>
      <point x="628" y="383"/>
      <point x="632" y="411" type="curve" smooth="yes"/>
      <point x="636" y="434"/>
      <point x="628" y="455"/>
      <point x="599" y="459" type="curve" smooth="yes"/>
      <point x="576" y="461"/>
      <point x="547" y="444"/>
      <point x="543" y="417" type="curve" smooth="yes"/>
      <point x="539" y="392"/>
      <point x="555" y="373"/>
      <point x="576" y="370" type="curve" smooth="yes"/>
    </contour>
  </outline>
</glyph>
<glyph name="Ydieresis" format="1">
  <advance width="660"/>
  <unicode hex="0178"/>
  <outline>
    <contour>
      <point x="479" y="825"/>
      <point x="507" y="847"/>
      <point x="507" y="879" type="curve" smooth="yes"/>
      <point x="507" y="905"/>
      <point x="492" y="926"/>
      <point x="458" y="926" type="curve" smooth="yes"/>
      <point x="431" y="926"/>
      <point x="401" y="902"/>
      <point x="401" y="871" type="curve" smooth="yes"/>
      <point x="401" y="842"/>
      <point x="425" y="825"/>
      <point x="450" y="825" type="curve" smooth="yes"/>
    </contour>
    <contour>
      <point x="255" y="825"/>
      <point x="284" y="847"/>
      <point x="284" y="880" type="curve" smooth="yes"/>
      <point x="284" y="905"/>
      <point x="269" y="926"/>
      <point x="235" y="926" type="curve" smooth="yes"/>
      <point x="208" y="926"/>
      <point x="178" y="903"/>
      <point x="178" y="872" type="curve" smooth="yes"/>
      <point x="178" y="843"/>
      <point x="202" y="825"/>
      <point x="227" y="825" type="curve" smooth="yes"/>
    </contour>
    <contour>
      <point x="206" y="0" type="line"/>
      <point x="480" y="0" type="line"/>
      <point x="480" y="33" type="line"/>
      <point x="377" y="45" type="line"/>
      <point x="377" y="311" type="line"/>
      <point x="587" y="710" type="line"/>
      <point x="653" y="721" type="line"/>
      <point x="653" y="758" type="line"/>
      <point x="442" y="758" type="line"/>
      <point x="442" y="721" type="line"/>
      <point x="526" y="713" type="line"/>
      <point x="370" y="405" type="line"/>
      <point x="346" y="353" type="line"/>
      <point x="320" y="405" type="line"/>
      <point x="148" y="714" type="line"/>
      <point x="230" y="721" type="line"/>
      <point x="230" y="758" type="line"/>
      <point x="6" y="758" type="line"/>
      <point x="6" y="721" type="line"/>
      <point x="65" y="714" type="line"/>
      <point x="305" y="313" type="line"/>
      <point x="305" y="45" type="line"/>
      <point x="206" y="33" type="line"/>
    </contour>
  </outline>
</glyph>
<glyph name="Zdotaccent" format="1">
  <advance width="660"/>
  <unicode hex="017B"/>
  <outline>
    <contour>
      <point x="382" y="825"/>
      <point x="410" y="847"/>
      <point x="410" y="880" type="curve" smooth="yes"/>
      <point x="410" y="905"/>
      <point x="396" y="926"/>
      <point x="362" y="926" type="curve" smooth="yes"/>
      <point x="334" y="926"/>
      <point x="305" y="903"/>
      <point x="305" y="872" type="curve" smooth="yes"/>
      <point x="305" y="843"/>
      <point x="328" y="825"/>
      <point x="353" y="825" type="curve" smooth="yes"/>
    </contour>
    <contour>
      <point x="48" y="34" type="line"/>
      <point x="60" y="0" type="line"/>
      <point x="595" y="0" type="line"/>
      <point x="630" y="170" type="line"/>
      <point x="591" y="179" type="line"/>
      <point x="535" y="56" type="line"/>
      <point x="131" y="42" type="line"/>
      <point x="193" y="121" type="line"/>
      <point x="620" y="726" type="line"/>
      <point x="608" y="759" type="line"/>
      <point x="93" y="759" type="line"/>
      <point x="79" y="606" type="line"/>
      <point x="119" y="600" type="line"/>
      <point x="157" y="709" type="line"/>
      <point x="540" y="718" type="line"/>
      <point x="482" y="647" type="line"/>
    </contour>
  </outline>
</glyph>
<glyph name="zdotaccent" format="1">
  <advance width="526"/>
  <unicode hex="017C"/>
  <outline>
    <contour>
      <point x="292" y="688"/>
      <point x="321" y="710"/>
      <point x="321" y="743" type="curve" smooth="yes"/>
      <point x="321" y="768"/>
      <point x="306" y="790"/>
      <point x="272" y="790" type="curve" smooth="yes"/>
      <point x="245" y="790"/>
      <point x="215" y="766"/>
      <point x="215" y="735" type="curve" smooth="yes"/>
      <point x="215" y="706"/>
      <point x="238" y="688"/>
      <point x="263" y="688" type="curve" smooth="yes"/>
    </contour>
    <contour>
      <point x="43" y="34" type="line"/>
      <point x="57" y="0" type="line"/>
      <point x="489" y="0" type="line"/>
      <point x="498" y="134" type="line"/>
      <point x="486" y="134"/>
      <point x="471" y="135"/>
      <point x="459" y="135" type="curve"/>
      <point x="432" y="47" type="line"/>
      <point x="127" y="38" type="line"/>
      <point x="176" y="99" type="line"/>
      <point x="488" y="514" type="line"/>
      <point x="477" y="546" type="line"/>
      <point x="67" y="546" type="line"/>
      <point x="66" y="411" type="line"/>
      <point x="101" y="411" type="line"/>
      <point x="125" y="503" type="line"/>
      <point x="405" y="511" type="line"/>
      <point x="363" y="460" type="line"/>
      <point x="81" y="84" type="line"/>
    </contour>
  </outline>
</glyph>
<glyph name="zcaron" format="1">
  <advance width="526"/>
  <unicode hex="017E"/>
  <outline>
    <contour>
      <point x="239" y="653" type="line"/>
      <point x="308" y="653" type="line"/>
      <point x="442" y="847" type="line"/>
      <point x="412" y="865" type="line"/>
      <point x="274" y="715" type="line"/>
      <point x="135" y="865" type="line"/>
      <point x="102" y="847" type="line"/>
    </contour>
    <contour>
      <point x="43" y="34" type="line"/>
      <point x="57" y="0" type="line"/>
      <point x="489" y="0" type="line"/>
      <point x="498" y="134" type="line"/>
      <point x="486" y="134"/>
      <point x="471" y="135"/>
      <point x="459" y="135" type="curve"/>
      <point x="432" y="47" type="line"/>
      <point x="127" y="38" type="line"/>
      <point x="176" y="99" type="line"/>
      <point x="488" y="514" type="line"/>
      <point x="477" y="546" type="line"/>
      <point x="67" y="546" type="line"/>
      <point x="66" y="411" type="line"/>
      <point x="101" y="411" type="line"/>
      <point x="125" y="503" type="line"/>
      <point x="405" y="511" type="line"/>
      <point x="363" y="460" type="line"/>
      <point x="81" y="84" type="line"/>
    </contour>
  </outline>
</glyph>
<glyph name="florin" format="1">
  <advance width="519"/>
  <unicode hex="0192"/>
  <outline>
    <contour>
      <point x="148" y="-173" type="line"/>
      <point x="218" y="-173" type="line"/>
      <point x="268" y="486" type="line"/>
      <point x="428" y="486" type="line"/>
      <point x="432" y="537" type="line"/>
      <point x="271" y="537" type="line"/>
      <point x="279" y="616" type="line" smooth="yes"/>
      <point x="289" y="741"/>
      <point x="346" y="764"/>
      <point x="401" y="764" type="curve" smooth="yes"/>
      <point x="444" y="764"/>
      <point x="473" y="757"/>
      <point x="484" y="750" type="curve"/>
      <point x="488" y="813" type="line"/>
      <point x="476" y="818"/>
      <point x="459" y="821"/>
      <point x="419" y="821" type="curve" smooth="yes"/>
      <point x="334" y="821"/>
      <point x="218" y="734"/>
      <point x="206" y="588" type="curve" smooth="yes"/>
      <point x="202" y="537" type="line"/>
      <point x="89" y="516" type="line"/>
      <point x="87" y="486" type="line"/>
      <point x="197" y="486" type="line"/>
    </contour>
  </outline>
</glyph>
<glyph name="hungarumlaut" format="1">
  <advance width="414"/>
  <unicode hex="02DD"/>
  <outline>
    <contour>
      <point x="335" y="656" type="line"/>
      <point x="393" y="702"/>
      <point x="487" y="784"/>
      <point x="522" y="831" type="curve"/>
      <point x="477" y="874" type="line"/>
      <point x="314" y="677" type="line"/>
    </contour>
    <contour>
      <point x="101" y="656" type="line"/>
      <point x="158" y="702"/>
      <point x="253" y="784"/>
      <point x="288" y="831" type="curve"/>
      <point x="242" y="874" type="line"/>
      <point x="80" y="677" type="line"/>
    </contour>
  </outline>
</glyph>
<glyph name="lvocalicdeva" format="1">
  <advance width="698"/>
  <unicode hex="090C"/>
  <outline>
    <contour>
      <point x="121" y="442"/>
      <point x="58" y="379"/>
      <point x="58" y="296" type="curve" smooth="yes"/>
      <point x="58" y="166"/>
      <point x="145" y="44"/>
      <point x="189" y="-13" type="curve"/>
      <point x="219" y="7" type="line"/>
      <point x="187" y="52"/>
      <point x="108" y="159"/>
      <point x="108" y="272" type="curve" smooth="yes"/>
      <point x="108" y="343"/>
      <point x="151" y="392"/>
      <point x="216" y="392" type="curve" smooth="yes"/>
      <point x="270" y="392"/>
      <point x="320" y="345"/>
      <point x="351" y="304" type="curve"/>
      <point x="375" y="334" type="line"/>
      <point x="337" y="382"/>
      <point x="273" y="442"/>
      <point x="193" y="442" type="curve" smooth="yes"/>
    </contour>
    <contour>
      <point x="-29" y="634" type="line"/>
      <point x="-29" y="624" type="line"/>
      <point x="-12" y="590" type="line"/>
      <point x="698" y="590" type="line"/>
      <point x="698" y="601" type="line"/>
      <point x="679" y="634" type="line"/>
    </contour>
    <contour>
      <point x="572" y="171"/>
      <point x="416" y="105"/>
      <point x="416" y="24" type="curve" smooth="yes"/>
      <point x="415" y="-61"/>
      <point x="502" y="-98"/>
      <point x="559" y="-98" type="curve" smooth="yes"/>
      <point x="609" y="-98"/>
      <point x="656" y="-71"/>
      <point x="695" y="-32" type="curve"/>
      <point x="660" y="9" type="line"/>
      <point x="618" y="-30"/>
      <point x="580" y="-54"/>
      <point x="537" y="-54" type="curve" smooth="yes"/>
      <point x="494" y="-54"/>
      <point x="466" y="-30"/>
      <point x="466" y="3" type="curve" smooth="yes"/>
      <point x="467" y="79"/>
      <point x="624" y="145"/>
      <point x="626" y="282" type="curve" smooth="yes"/>
      <point x="627" y="368"/>
      <point x="540" y="424"/>
      <point x="469" y="424" type="curve" smooth="yes"/>
      <point x="373" y="424"/>
      <point x="308" y="311"/>
      <point x="284" y="212" type="curve"/>
      <point x="343" y="178" type="line"/>
      <point x="362" y="258"/>
      <point x="412" y="380"/>
      <point x="491" y="380" type="curve" smooth="yes"/>
      <point x="528" y="380"/>
      <point x="578" y="361"/>
      <point x="576" y="303" type="curve" smooth="yes"/>
    </contour>
    <contour>
      <point x="444" y="610" type="line"/>
      <point x="443" y="393" type="line"/>
      <point x="498" y="393" type="line"/>
      <point x="498" y="610" type="line"/>
    </contour>
    <contour>
      <point x="472" y="634" type="move" name="top"/>
    </contour>
    <contour>
      <point x="369" y="0" type="move" name="bottom"/>
    </contour>
  </outline>
</glyph>
<glyph name="ecandradeva" format="1">
  <advance width="569"/>
  <unicode hex="090D"/>
  <outline>
    <component base="edeva"/>
    <component base="ecandravowelsigndeva" xOffset="596"/>
    <contour>
      <point x="286" y="762" type="move" name="top"/>
    </contour>
  </outline>
</glyph>
<glyph name="eshortdeva" format="1">
  <advance width="569"/>
  <unicode hex="090E"/>
  <outline>
    <contour>
      <point x="-16" y="937"/>
      <point x="-26" y="907"/>
      <point x="-26" y="878" type="curve" smooth="yes"/>
      <point x="-26" y="835"/>
      <point x="36" y="775"/>
      <point x="161" y="775" type="curve" smooth="yes"/>
      <point x="220" y="775"/>
      <point x="279" y="786"/>
      <point x="317" y="786" type="curve" smooth="yes"/>
      <point x="405" y="786"/>
      <point x="430" y="721"/>
      <point x="430" y="664" type="curve" smooth="yes"/>
      <point x="430" y="649"/>
      <point x="426" y="636"/>
      <point x="419" y="625" type="curve"/>
      <point x="465" y="622" type="line"/>
      <point x="469" y="637"/>
      <point x="474" y="661"/>
      <point x="474" y="679" type="curve" smooth="yes"/>
      <point x="474" y="715"/>
      <point x="457" y="754"/>
      <point x="431" y="786" type="curve" smooth="yes"/>
      <point x="407" y="816"/>
      <point x="359" y="836"/>
      <point x="307" y="836" type="curve" smooth="yes"/>
      <point x="273" y="836"/>
      <point x="150" y="824"/>
      <point x="113" y="824" type="curve" smooth="yes"/>
      <point x="59" y="824"/>
      <point x="18" y="850"/>
      <point x="18" y="893" type="curve" smooth="yes"/>
      <point x="18" y="908"/>
      <point x="23" y="927"/>
      <point x="29" y="948" type="curve"/>
      <point x="-10" y="955" type="line"/>
    </contour>
    <component base="edeva"/>
  </outline>
</glyph>
<glyph name="oshortdeva" format="1">
  <advance width="1024"/>
  <unicode hex="0912"/>
  <outline>
    <contour>
      <point x="423" y="937"/>
      <point x="413" y="907"/>
      <point x="413" y="878" type="curve" smooth="yes"/>
      <point x="413" y="835"/>
      <point x="475" y="775"/>
      <point x="600" y="775" type="curve" smooth="yes"/>
      <point x="659" y="775"/>
      <point x="718" y="786"/>
      <point x="756" y="786" type="curve" smooth="yes"/>
      <point x="844" y="786"/>
      <point x="869" y="721"/>
      <point x="869" y="664" type="curve" smooth="yes"/>
      <point x="869" y="649"/>
      <point x="865" y="636"/>
      <point x="858" y="625" type="curve"/>
      <point x="904" y="622" type="line"/>
      <point x="908" y="637"/>
      <point x="913" y="661"/>
      <point x="913" y="679" type="curve" smooth="yes"/>
      <point x="913" y="715"/>
      <point x="896" y="754"/>
      <point x="870" y="786" type="curve" smooth="yes"/>
      <point x="846" y="816"/>
      <point x="798" y="836"/>
      <point x="746" y="836" type="curve" smooth="yes"/>
      <point x="712" y="836"/>
      <point x="589" y="824"/>
      <point x="552" y="824" type="curve" smooth="yes"/>
      <point x="498" y="824"/>
      <point x="457" y="850"/>
      <point x="457" y="893" type="curve" smooth="yes"/>
      <point x="457" y="908"/>
      <point x="462" y="927"/>
      <point x="468" y="948" type="curve"/>
      <point x="429" y="955" type="line"/>
    </contour>
    <component base="aadeva"/>
  </outline>
</glyph>
<glyph name="odeva" format="1">
  <advance width="1024"/>
  <unicode hex="0913"/>
  <outline>
    <component base="aadeva"/>
    <component base="evowelsigndeva" xOffset="1039"/>
    <contour>
      <point x="899" y="634" type="move" name="top"/>
    </contour>
  </outline>
</glyph>
<glyph name="audeva" format="1">
  <advance width="1024"/>
  <unicode hex="0914"/>
  <outline>
    <component base="aadeva"/>
    <component base="aivowelsigndeva" xOffset="1024"/>
    <contour>
      <point x="913" y="634" type="move" name="top"/>
    </contour>
  </outline>
</glyph>
<glyph name="khadeva" format="1">
  <advance width="788"/>
  <unicode hex="0916"/>
  <outline>
    <contour>
      <point x="-29" y="634" type="line"/>
      <point x="-29" y="624" type="line"/>
      <point x="-11" y="590" type="line"/>
      <point x="621" y="590" type="line"/>
      <point x="621" y="393" type="line"/>
      <point x="612" y="393" type="line"/>
      <point x="621" y="367" type="line"/>
      <point x="621" y="275" type="line"/>
      <point x="613" y="270" type="line"/>
      <point x="621" y="265" type="line"/>
      <point x="622" y="103" type="line"/>
      <point x="620" y="13" type="line"/>
      <point x="663" y="-11" type="line"/>
      <point x="675" y="-11" type="line"/>
      <point x="675" y="590" type="line"/>
      <point x="806" y="590" type="line"/>
      <point x="806" y="601" type="line"/>
      <point x="788" y="634" type="line"/>
    </contour>
    <contour>
      <point x="366" y="477"/>
      <point x="300" y="416"/>
      <point x="300" y="323" type="curve" smooth="yes"/>
      <point x="300" y="253"/>
      <point x="350" y="182"/>
      <point x="455" y="182" type="curve" smooth="yes"/>
      <point x="520" y="182"/>
      <point x="581" y="231"/>
      <point x="625" y="269" type="curve"/>
      <point x="623" y="331" type="line"/>
      <point x="573" y="279"/>
      <point x="496" y="232"/>
      <point x="436" y="232" type="curve" smooth="yes"/>
      <point x="373" y="232"/>
      <point x="346" y="266"/>
      <point x="346" y="303" type="curve" smooth="yes"/>
      <point x="346" y="373"/>
      <point x="394" y="428"/>
      <point x="466" y="427" type="curve" smooth="yes"/>
      <point x="528" y="426"/>
      <point x="589" y="378"/>
      <point x="630" y="318" type="curve"/>
      <point x="630" y="378" type="line"/>
      <point x="599" y="416"/>
      <point x="526" y="477"/>
      <point x="446" y="477" type="curve" smooth="yes"/>
    </contour>
    <contour>
      <point x="167" y="601" type="line"/>
      <point x="179" y="557"/>
      <point x="186" y="484"/>
      <point x="186" y="440" type="curve" smooth="yes"/>
      <point x="186" y="399"/>
      <point x="177" y="366"/>
      <point x="154" y="330" type="curve"/>
      <point x="106" y="372" type="line"/>
      <point x="90" y="366"/>
      <point x="67" y="346"/>
      <point x="67" y="323" type="curve" smooth="yes"/>
      <point x="67" y="286"/>
      <point x="82" y="250"/>
      <point x="132" y="193" type="curve" smooth="yes"/>
      <point x="203" y="112"/>
      <point x="292" y="29"/>
      <point x="397" y="29" type="curve" smooth="yes"/>
      <point x="489" y="29"/>
      <point x="583" y="70"/>
      <point x="632" y="99" type="curve"/>
      <point x="633" y="157" type="line"/>
      <point x="568" y="113"/>
      <point x="491" y="79"/>
      <point x="397" y="79" type="curve" smooth="yes"/>
      <point x="284" y="79"/>
      <point x="181" y="188"/>
      <point x="143" y="236" type="curve"/>
      <point x="192" y="278"/>
      <point x="236" y="321"/>
      <point x="236" y="412" type="curve" smooth="yes"/>
      <point x="236" y="450"/>
      <point x="230" y="535"/>
      <point x="217" y="601" type="curve"/>
    </contour>
    <contour>
      <point x="138" y="0" type="move" name="nukta"/>
    </contour>
    <contour>
      <point x="647" y="0" type="move" name="bottom"/>
    </contour>
    <contour>
      <point x="647" y="634" type="move" name="top"/>
    </contour>
  </outline>
</glyph>
<glyph name="tthadeva" format="1">
  <advance width="548"/>
  <unicode hex="0920"/>
  <outline>
    <contour>
      <point x="212" y="445"/>
      <point x="64" y="402"/>
      <point x="64" y="266" type="curve" smooth="yes"/>
      <point x="64" y="156"/>
      <point x="146" y="53"/>
      <point x="270" y="53" type="curve" smooth="yes"/>
      <point x="389" y="53"/>
      <point x="484" y="149"/>
      <point x="484" y="247" type="curve" smooth="yes"/>
      <point x="484" y="332"/>
      <point x="415" y="407"/>
      <point x="318" y="460" type="curve"/>
    </contour>
    <contour>
      <point x="373" y="389"/>
      <point x="434" y="327"/>
      <point x="434" y="261" type="curve" smooth="yes"/>
      <point x="434" y="175"/>
      <point x="363" y="97"/>
      <point x="255" y="97" type="curve" smooth="yes"/>
      <point x="189" y="97"/>
      <point x="108" y="144"/>
      <point x="108" y="239" type="curve" smooth="yes"/>
      <point x="108" y="347"/>
      <point x="240" y="395"/>
      <point x="333" y="406" type="curve"/>
    </contour>
    <contour>
      <point x="313" y="577"/>
      <point x="329" y="548"/>
      <point x="329" y="522" type="curve" smooth="yes"/>
      <point x="329" y="489"/>
      <point x="318" y="455"/>
      <point x="309" y="442" type="curve"/>
      <point x="358" y="419" type="line"/>
      <point x="372" y="445"/>
      <point x="384" y="480"/>
      <point x="384" y="507" type="curve" smooth="yes"/>
      <point x="384" y="538"/>
      <point x="369" y="568"/>
      <point x="350" y="598" type="curve"/>
      <point x="299" y="599" type="line"/>
    </contour>
    <contour>
      <point x="-29" y="634" type="line"/>
      <point x="-29" y="624" type="line"/>
      <point x="-12" y="590" type="line"/>
      <point x="548" y="590" type="line"/>
      <point x="548" y="601" type="line"/>
      <point x="529" y="634" type="line"/>
    </contour>
    <contour>
      <point x="264" y="-70" type="move" name="nukta"/>
    </contour>
    <contour>
      <point x="270" y="56" type="move" name="bottom"/>
    </contour>
    <contour>
      <point x="306" y="634" type="move" name="top"/>
    </contour>
  </outline>
</glyph>
<glyph name="bhadeva" format="1">
  <advance width="680"/>
  <unicode hex="092D"/>
  <outline>
    <contour>
      <point x="92" y="650"/>
      <point x="49" y="609"/>
      <point x="49" y="551" type="curve" smooth="yes"/>
      <point x="49" y="462"/>
      <point x="127" y="414"/>
      <point x="237" y="377" type="curve"/>
      <point x="250" y="417" type="line"/>
      <point x="177" y="440"/>
      <point x="99" y="475"/>
      <point x="99" y="535" type="curve" smooth="yes"/>
      <point x="99" y="578"/>
      <point x="127" y="606"/>
      <point x="162" y="606" type="curve" smooth="yes"/>
      <point x="202" y="606"/>
      <point x="230" y="575"/>
      <point x="230" y="516" type="curve" smooth="yes"/>
      <point x="230" y="474"/>
      <point x="230" y="447"/>
      <point x="230" y="407" type="curve"/>
      <point x="230" y="390" type="line"/>
      <point x="230" y="251" type="line"/>
      <point x="542" y="251" type="line"/>
      <point x="542" y="295" type="line"/>
      <point x="148" y="295" type="line"/>
      <point x="140" y="219"/>
      <point x="185" y="172"/>
      <point x="229" y="172" type="curve"/>
      <point x="280" y="172"/>
      <point x="284" y="235"/>
      <point x="284" y="269" type="curve"/>
      <point x="284" y="503" type="line" smooth="yes"/>
      <point x="284" y="623"/>
      <point x="196" y="650"/>
      <point x="142" y="650" type="curve" smooth="yes"/>
    </contour>
    <contour>
      <point x="333" y="634" type="line"/>
      <point x="333" y="624" type="line"/>
      <point x="351" y="590" type="line"/>
      <point x="510" y="590" type="line"/>
      <point x="509" y="13" type="line"/>
      <point x="551" y="-11" type="line"/>
      <point x="563" y="-11" type="line"/>
      <point x="563" y="590" type="line"/>
      <point x="680" y="590" type="line"/>
      <point x="680" y="601" type="line"/>
      <point x="661" y="634" type="line"/>
    </contour>
    <contour>
      <point x="73" y="48" type="move" name="nukta"/>
    </contour>
    <contour>
      <point x="536" y="0" type="move" name="bottom"/>
    </contour>
    <contour>
      <point x="536" y="634" type="move" name="top"/>
    </contour>
  </outline>
</glyph>
<glyph name="lladeva" format="1">
  <advance width="761"/>
  <unicode hex="0933"/>
  <outline>
    <contour>
      <point x="391" y="348" type="line"/>
      <point x="354" y="394"/>
      <point x="291" y="456"/>
      <point x="207" y="456" type="curve" smooth="yes"/>
      <point x="133" y="456"/>
      <point x="56" y="392"/>
      <point x="56" y="281" type="curve" smooth="yes"/>
      <point x="56" y="155"/>
      <point x="127" y="95"/>
      <point x="229" y="95" type="curve" smooth="yes"/>
      <point x="309" y="95"/>
      <point x="351" y="145"/>
      <point x="391" y="220" type="curve"/>
      <point x="434" y="319"/>
      <point x="466" y="416"/>
      <point x="558" y="416" type="curve" smooth="yes"/>
      <point x="627" y="416"/>
      <point x="662" y="359"/>
      <point x="662" y="295" type="curve" smooth="yes"/>
      <point x="662" y="224"/>
      <point x="616" y="162"/>
      <point x="543" y="162" type="curve" smooth="yes"/>
      <point x="483" y="162"/>
      <point x="414" y="228"/>
      <point x="387" y="279" type="curve"/>
      <point x="381" y="220" type="line"/>
      <point x="412" y="182"/>
      <point x="479" y="112"/>
      <point x="570" y="112" type="curve" smooth="yes"/>
      <point x="639" y="112"/>
      <point x="707" y="169"/>
      <point x="707" y="263" type="curve" smooth="yes"/>
      <point x="707" y="394"/>
      <point x="644" y="466"/>
      <point x="544" y="466" type="curve"/>
      <point x="466" y="465"/>
      <point x="425" y="424"/>
      <point x="382" y="344" type="curve"/>
      <point x="337" y="237"/>
      <point x="305" y="145"/>
      <point x="208" y="145" type="curve" smooth="yes"/>
      <point x="138" y="145"/>
      <point x="101" y="189"/>
      <point x="101" y="249" type="curve" smooth="yes"/>
      <point x="101" y="325"/>
      <point x="147" y="406"/>
      <point x="234" y="406" type="curve" smooth="yes"/>
      <point x="286" y="406"/>
      <point x="347" y="355"/>
      <point x="385" y="290" type="curve"/>
    </contour>
    <contour>
      <point x="-29" y="634" type="line"/>
      <point x="-29" y="624" type="line"/>
      <point x="-12" y="590" type="line"/>
      <point x="761" y="590" type="line"/>
      <point x="761" y="601" type="line"/>
      <point x="742" y="634" type="line"/>
    </contour>
    <contour>
      <point x="532" y="424" type="line"/>
      <point x="586" y="424" type="line"/>
      <point x="586" y="596" type="line"/>
      <point x="532" y="596" type="line"/>
    </contour>
    <contour>
      <point x="400" y="20" type="move" name="nukta"/>
    </contour>
    <contour>
      <point x="557" y="0" type="move" name="bottom"/>
    </contour>
    <contour>
      <point x="557" y="634" type="move" name="top"/>
    </contour>
  </outline>
</glyph>
<glyph name="rrvocalicvowelsigndeva" format="1">
  <advance width="0"/>
  <unicode hex="0944"/>
  <outline>
    <contour>
      <point x="-199" y="20"/>
      <point x="-282" y="-27"/>
      <point x="-282" y="-90" type="curve" smooth="yes"/>
      <point x="-282" y="-167"/>
      <point x="-229" y="-215"/>
      <point x="-135" y="-215" type="curve" smooth="yes"/>
      <point x="-107" y="-215"/>
      <point x="-68" y="-203"/>
      <point x="-41" y="-188" type="curve"/>
      <point x="-75" y="-139" type="line"/>
      <point x="-103" y="-155"/>
      <point x="-144" y="-165"/>
      <point x="-170" y="-165" type="curve" smooth="yes"/>
      <point x="-225" y="-165"/>
      <point x="-239" y="-136"/>
      <point x="-239" y="-110" type="curve" smooth="yes"/>
      <point x="-239" y="-58"/>
      <point x="-173" y="-19"/>
      <point x="-93" y="-19" type="curve"/>
      <point x="-116" y="21" type="line"/>
    </contour>
    <contour>
      <point x="-200" y="-212"/>
      <point x="-211" y="-241"/>
      <point x="-211" y="-273" type="curve" smooth="yes"/>
      <point x="-211" y="-347"/>
      <point x="-158" y="-395"/>
      <point x="-64" y="-395" type="curve" smooth="yes"/>
      <point x="-36" y="-395"/>
      <point x="3" y="-383"/>
      <point x="30" y="-368" type="curve"/>
      <point x="-4" y="-319" type="line"/>
      <point x="-32" y="-335"/>
      <point x="-73" y="-345"/>
      <point x="-99" y="-345" type="curve" smooth="yes"/>
      <point x="-154" y="-345"/>
      <point x="-167" y="-313"/>
      <point x="-168" y="-289" type="curve" smooth="yes"/>
      <point x="-169" y="-258"/>
      <point x="-153" y="-232"/>
      <point x="-117" y="-204" type="curve"/>
      <point x="-172" y="-181" type="line"/>
    </contour>
    <contour>
      <point x="-153" y="0" type="move" name="_bottom"/>
    </contour>
  </outline>
</glyph>
<glyph name="uni094A" format="1">
  <advance width="287"/>
  <unicode hex="094A"/>
  <outline>
    <contour>
      <point x="-314" y="937"/>
      <point x="-324" y="907"/>
      <point x="-324" y="878" type="curve" smooth="yes"/>
      <point x="-324" y="835"/>
      <point x="-262" y="775"/>
      <point x="-137" y="775" type="curve" smooth="yes"/>
      <point x="-78" y="775"/>
      <point x="-19" y="786"/>
      <point x="19" y="786" type="curve" smooth="yes"/>
      <point x="107" y="786"/>
      <point x="132" y="721"/>
      <point x="132" y="664" type="curve" smooth="yes"/>
      <point x="132" y="649"/>
      <point x="128" y="636"/>
      <point x="121" y="625" type="curve"/>
      <point x="167" y="622" type="line"/>
      <point x="171" y="637"/>
      <point x="176" y="661"/>
      <point x="176" y="679" type="curve" smooth="yes"/>
      <point x="176" y="714"/>
      <point x="159" y="754"/>
      <point x="133" y="786" type="curve" smooth="yes"/>
      <point x="109" y="816"/>
      <point x="61" y="836"/>
      <point x="9" y="836" type="curve" smooth="yes"/>
      <point x="-25" y="836"/>
      <point x="-148" y="824"/>
      <point x="-185" y="824" type="curve" smooth="yes"/>
      <point x="-239" y="824"/>
      <point x="-280" y="850"/>
      <point x="-280" y="893" type="curve" smooth="yes"/>
      <point x="-280" y="908"/>
      <point x="-275" y="927"/>
      <point x="-269" y="948" type="curve"/>
      <point x="-308" y="955" type="line"/>
    </contour>
    <component base="uni093E"/>
    <contour>
      <point x="257" y="644" type="move" name="top"/>
    </contour>
  </outline>
</glyph>
<glyph name="uni094C" format="1">
  <advance width="287"/>
  <unicode hex="094C"/>
  <outline>
    <contour>
      <point x="-29" y="634" type="line"/>
      <point x="-29" y="624" type="line"/>
      <point x="-12" y="590" type="line"/>
      <point x="117" y="590" type="line"/>
      <point x="116" y="13" type="line"/>
      <point x="159" y="-11" type="line"/>
      <point x="171" y="-11" type="line"/>
      <point x="171" y="590" type="line"/>
      <point x="287" y="590" type="line"/>
      <point x="287" y="601" type="line"/>
      <point x="268" y="634" type="line"/>
    </contour>
    <contour>
      <point x="-172" y="861"/>
      <point x="-194" y="843"/>
      <point x="-194" y="812" type="curve" smooth="yes"/>
      <point x="-194" y="788"/>
      <point x="-181" y="768"/>
      <point x="-171" y="759" type="curve"/>
      <point x="-170" y="759" type="line"/>
      <point x="-45" y="779" type="line"/>
      <point x="-23" y="769"/>
      <point x="33" y="701"/>
      <point x="106" y="604" type="curve"/>
      <point x="132" y="607" type="line"/>
      <point x="55" y="736"/>
      <point x="-49" y="861"/>
      <point x="-137" y="861" type="curve" smooth="yes"/>
    </contour>
    <contour>
      <point x="-157" y="1037"/>
      <point x="-181" y="1017"/>
      <point x="-181" y="983" type="curve" smooth="yes"/>
      <point x="-181" y="956"/>
      <point x="-165" y="932"/>
      <point x="-151" y="921" type="curve"/>
      <point x="-150" y="921" type="line"/>
      <point x="-37" y="955" type="line"/>
      <point x="-19" y="944"/>
      <point x="27" y="876"/>
      <point x="81" y="775" type="curve" smooth="yes"/>
      <point x="96" y="747"/>
      <point x="132" y="662"/>
      <point x="151" y="614" type="curve"/>
      <point x="183" y="614" type="line"/>
      <point x="162" y="669"/>
      <point x="120" y="779"/>
      <point x="99" y="822" type="curve" smooth="yes"/>
      <point x="41" y="938"/>
      <point x="-22" y="1037"/>
      <point x="-119" y="1037" type="curve" smooth="yes"/>
    </contour>
    <contour>
      <point x="232" y="634" type="move" name="top"/>
    </contour>
  </outline>
</glyph>
<glyph name="omdeva" format="1">
  <advance width="1074"/>
  <unicode hex="0950"/>
  <outline>
    <contour>
      <point x="712" y="469"/>
      <point x="667" y="170"/>
      <point x="551" y="170" type="curve" smooth="yes"/>
      <point x="477" y="170"/>
      <point x="418" y="251"/>
      <point x="371" y="304" type="curve"/>
      <point x="394" y="188" type="line"/>
      <point x="415" y="204" type="line"/>
      <point x="418" y="206" type="line"/>
      <point x="445" y="183"/>
      <point x="500" y="115"/>
      <point x="580" y="115" type="curve" smooth="yes"/>
      <point x="623" y="115"/>
      <point x="661" y="173"/>
      <point x="717" y="262" type="curve"/>
      <point x="742" y="303"/>
      <point x="755" y="322"/>
      <point x="768" y="340" type="curve" smooth="yes"/>
      <point x="800" y="385"/>
      <point x="836" y="419"/>
      <point x="878" y="419" type="curve" smooth="yes"/>
      <point x="930" y="419"/>
      <point x="963" y="372"/>
      <point x="963" y="306" type="curve" smooth="yes"/>
      <point x="963" y="248"/>
      <point x="910" y="189"/>
      <point x="833" y="189" type="curve" smooth="yes"/>
      <point x="782" y="189"/>
      <point x="745" y="234"/>
      <point x="721" y="295" type="curve"/>
      <point x="693" y="269" type="line"/>
      <point x="729" y="197"/>
      <point x="781" y="139"/>
      <point x="864" y="139" type="curve" smooth="yes"/>
      <point x="942" y="139"/>
      <point x="1007" y="195"/>
      <point x="1007" y="286" type="curve" smooth="yes"/>
      <point x="1007" y="382"/>
      <point x="942" y="469"/>
      <point x="853" y="469" type="curve" smooth="yes"/>
    </contour>
    <contour>
      <point x="281" y="339" type="line"/>
      <point x="322" y="308"/>
      <point x="369" y="257"/>
      <point x="369" y="202" type="curve" smooth="yes"/>
      <point x="369" y="137"/>
      <point x="321" y="94"/>
      <point x="251" y="94" type="curve" smooth="yes"/>
      <point x="155" y="94"/>
      <point x="71" y="205"/>
      <point x="30" y="280" type="curve"/>
      <point x="0" y="261" type="line"/>
      <point x="41" y="185"/>
      <point x="124" y="44"/>
      <point x="275" y="44" type="curve" smooth="yes"/>
      <point x="358" y="44"/>
      <point x="419" y="107"/>
      <point x="419" y="179" type="curve" smooth="yes"/>
      <point x="419" y="260"/>
      <point x="359" y="325"/>
      <point x="311" y="363" type="curve"/>
    </contour>
    <contour>
      <point x="371" y="304" type="move"/>
      <point x="357" y="320" type="line"/>
    </contour>
    <contour>
      <point x="191" y="653"/>
      <point x="116" y="622"/>
      <point x="83" y="600" type="curve"/>
      <point x="111" y="547" type="line"/>
      <point x="148" y="575"/>
      <point x="197" y="603"/>
      <point x="243" y="603" type="curve"/>
      <point x="288" y="603"/>
      <point x="350" y="556"/>
      <point x="352" y="510" type="curve" smooth="yes"/>
      <point x="354" y="461"/>
      <point x="333" y="429"/>
      <point x="303" y="408" type="curve" smooth="yes"/>
      <point x="266" y="383"/>
      <point x="215" y="374"/>
      <point x="174" y="370" type="curve"/>
      <point x="170" y="360" type="line"/>
      <point x="192" y="320" type="line"/>
      <point x="233" y="321"/>
      <point x="276" y="328"/>
      <point x="312" y="345" type="curve" smooth="yes"/>
      <point x="364" y="368"/>
      <point x="402" y="408"/>
      <point x="402" y="471" type="curve" smooth="yes"/>
      <point x="402" y="570"/>
      <point x="313" y="653"/>
      <point x="222" y="653" type="curve" smooth="yes"/>
    </contour>
    <contour>
      <point x="433" y="659" type="line" smooth="yes"/>
      <point x="470" y="603"/>
      <point x="541" y="527"/>
      <point x="643" y="526" type="curve"/>
      <point x="737" y="525"/>
      <point x="792" y="571"/>
      <point x="838" y="628" type="curve" smooth="yes"/>
      <point x="798" y="665" type="line" smooth="yes"/>
      <point x="768" y="626"/>
      <point x="704" y="575"/>
      <point x="614" y="576" type="curve"/>
      <point x="549" y="577"/>
      <point x="497" y="622"/>
      <point x="456" y="676" type="curve" smooth="yes"/>
    </contour>
    <contour>
      <point x="561" y="726" type="line" smooth="yes"/>
      <point x="624" y="663" type="line" smooth="yes"/>
      <point x="687" y="726" type="line" smooth="yes"/>
      <point x="624" y="789" type="line" smooth="yes"/>
    </contour>
  </outline>
</glyph>
<glyph name="udattadeva" format="1">
  <advance width="0"/>
  <unicode hex="0951"/>
  <outline>
    <contour>
      <point x="-181" y="739" type="line"/>
      <point x="-127" y="739" type="line"/>
      <point x="-127" y="1002" type="line"/>
      <point x="-181" y="1002" type="line"/>
    </contour>
    <contour>
      <point x="-153" y="650" type="move" name="_top"/>
    </contour>
  </outline>
</glyph>
<glyph name="acutedeva" format="1">
  <advance width="0"/>
  <unicode hex="0954"/>
  <outline>
    <contour>
      <point x="33" y="976" type="line"/>
      <point x="-26" y="991" type="line"/>
      <point x="-181" y="766" type="line"/>
      <point x="-181" y="759" type="line"/>
      <point x="-150" y="739" type="line"/>
      <point x="33" y="969" type="line"/>
    </contour>
    <contour>
      <point x="-153" y="650" type="move" name="_top"/>
    </contour>
  </outline>
</glyph>
<glyph name="rrvocalicdeva" format="1">
  <advance width="824"/>
  <unicode hex="0960"/>
  <outline>
    <contour>
      <point x="575" y="455"/>
      <point x="550" y="443"/>
      <point x="542" y="434" type="curve"/>
      <point x="663" y="203" type="line"/>
      <point x="600" y="165"/>
      <point x="573" y="126"/>
      <point x="573" y="84" type="curve" smooth="yes"/>
      <point x="573" y="8"/>
      <point x="626" y="-41"/>
      <point x="720" y="-41" type="curve" smooth="yes"/>
      <point x="748" y="-41"/>
      <point x="787" y="-29"/>
      <point x="814" y="-14" type="curve"/>
      <point x="780" y="35" type="line"/>
      <point x="752" y="19"/>
      <point x="711" y="9"/>
      <point x="685" y="9" type="curve" smooth="yes"/>
      <point x="630" y="9"/>
      <point x="617" y="40"/>
      <point x="616" y="64" type="curve" smooth="yes"/>
      <point x="614" y="103"/>
      <point x="653" y="133"/>
      <point x="723" y="170" type="curve"/>
      <point x="594" y="418" type="line"/>
      <point x="581" y="359" type="line"/>
      <point x="540" y="323"/>
      <point x="484" y="322"/>
      <point x="435" y="329" type="curve"/>
      <point x="429" y="282" type="line"/>
      <point x="501" y="262"/>
      <point x="662" y="295"/>
      <point x="662" y="395" type="curve" smooth="yes"/>
      <point x="662" y="433"/>
      <point x="633" y="455"/>
      <point x="596" y="455" type="curve"/>
    </contour>
    <contour>
      <point x="71" y="71" type="line"/>
      <point x="111" y="28" type="line"/>
      <point x="403" y="268" type="line"/>
      <point x="403" y="325" type="line"/>
    </contour>
    <contour>
      <point x="133" y="449"/>
      <point x="57" y="425"/>
      <point x="36" y="417" type="curve"/>
      <point x="65" y="365" type="line"/>
      <point x="95" y="376"/>
      <point x="150" y="399"/>
      <point x="197" y="398" type="curve" smooth="yes"/>
      <point x="256" y="397"/>
      <point x="320" y="378"/>
      <point x="396" y="296" type="curve"/>
      <point x="400" y="359" type="line"/>
      <point x="328" y="412"/>
      <point x="275" y="448"/>
      <point x="177" y="449" type="curve" smooth="yes"/>
    </contour>
    <contour>
      <point x="655" y="-38"/>
      <point x="644" y="-67"/>
      <point x="644" y="-99" type="curve" smooth="yes"/>
      <point x="644" y="-173"/>
      <point x="697" y="-221"/>
      <point x="791" y="-221" type="curve" smooth="yes"/>
      <point x="819" y="-221"/>
      <point x="858" y="-209"/>
      <point x="885" y="-194" type="curve"/>
      <point x="851" y="-145" type="line"/>
      <point x="823" y="-161"/>
      <point x="782" y="-171"/>
      <point x="756" y="-171" type="curve" smooth="yes"/>
      <point x="701" y="-171"/>
      <point x="688" y="-139"/>
      <point x="687" y="-115" type="curve" smooth="yes"/>
      <point x="686" y="-84"/>
      <point x="702" y="-58"/>
      <point x="738" y="-30" type="curve"/>
      <point x="683" y="-7" type="line"/>
    </contour>
    <contour>
      <point x="384" y="610" type="line"/>
      <point x="383" y="289" type="line"/>
      <point x="337" y="265" type="line"/>
      <point x="383" y="249" type="line"/>
      <point x="383" y="13" type="line"/>
      <point x="426" y="-11" type="line"/>
      <point x="438" y="-11" type="line"/>
      <point x="438" y="610" type="line"/>
    </contour>
    <contour>
      <point x="-29" y="634" type="line"/>
      <point x="-29" y="624" type="line"/>
      <point x="-12" y="590" type="line"/>
      <point x="824" y="590" type="line"/>
      <point x="824" y="601" type="line"/>
      <point x="805" y="634" type="line"/>
    </contour>
    <contour>
      <point x="412" y="634" type="move" name="top"/>
    </contour>
    <contour>
      <point x="412" y="0" type="move" name="bottom"/>
    </contour>
  </outline>
</glyph>
<glyph name="llvocalicdeva" format="1">
  <advance width="698"/>
  <unicode hex="0961"/>
  <outline>
    <contour>
      <point x="562" y="-76" type="line"/>
      <point x="540" y="-100"/>
      <point x="535" y="-121"/>
      <point x="535" y="-138" type="curve" smooth="yes"/>
      <point x="534" y="-213"/>
      <point x="621" y="-244"/>
      <point x="678" y="-244" type="curve" smooth="yes"/>
      <point x="728" y="-244"/>
      <point x="775" y="-217"/>
      <point x="814" y="-178" type="curve"/>
      <point x="779" y="-137" type="line"/>
      <point x="737" y="-176"/>
      <point x="699" y="-200"/>
      <point x="656" y="-200" type="curve" smooth="yes"/>
      <point x="613" y="-200"/>
      <point x="585" y="-176"/>
      <point x="585" y="-142" type="curve" smooth="yes"/>
      <point x="585" y="-120"/>
      <point x="597" y="-100"/>
      <point x="627" y="-75" type="curve"/>
    </contour>
    <component base="lvocalicdeva"/>
    <contour>
      <point x="472" y="634" type="move" name="top"/>
    </contour>
    <contour>
      <point x="369" y="0" type="move" name="bottom"/>
    </contour>
  </outline>
</glyph>
<glyph name="llvocalicvowelsigndeva" format="1">
  <advance width="0"/>
  <unicode hex="0963"/>
  <outline>
    <contour>
      <point x="-368" y="-79"/>
      <point x="-433" y="-101"/>
      <point x="-434" y="-177" type="curve" smooth="yes"/>
      <point x="-435" y="-234"/>
      <point x="-380" y="-301"/>
      <point x="-328" y="-344" type="curve"/>
      <point x="-308" y="-327" type="line"/>
      <point x="-344" y="-285"/>
      <point x="-384" y="-235"/>
      <point x="-384" y="-180" type="curve" smooth="yes"/>
      <point x="-384" y="-148"/>
      <point x="-360" y="-127"/>
      <point x="-322" y="-127" type="curve" smooth="yes"/>
      <point x="-300" y="-127"/>
      <point x="-278" y="-140"/>
      <point x="-265" y="-155" type="curve"/>
      <point x="-278" y="-179"/>
      <point x="-285" y="-204"/>
      <point x="-290" y="-224" type="curve"/>
      <point x="-291" y="-224"/>
      <point x="-238" y="-239"/>
      <point x="-238" y="-239" type="curve"/>
      <point x="-228" y="-202"/>
      <point x="-204" y="-123"/>
      <point x="-145" y="-123" type="curve" smooth="yes"/>
      <point x="-124" y="-123"/>
      <point x="-105" y="-135"/>
      <point x="-105" y="-160" type="curve" smooth="yes"/>
      <point x="-105" y="-222"/>
      <point x="-175" y="-254"/>
      <point x="-175" y="-291" type="curve" smooth="yes"/>
      <point x="-175" y="-347"/>
      <point x="-113" y="-366"/>
      <point x="-79" y="-366" type="curve" smooth="yes"/>
      <point x="-40" y="-366"/>
      <point x="-10" y="-353"/>
      <point x="19" y="-331" type="curve"/>
      <point x="-13" y="-290" type="line"/>
      <point x="-30" y="-307"/>
      <point x="-59" y="-331"/>
      <point x="-92" y="-331" type="curve" smooth="yes"/>
      <point x="-110" y="-331"/>
      <point x="-126" y="-320"/>
      <point x="-126" y="-304" type="curve" smooth="yes"/>
      <point x="-126" y="-267"/>
      <point x="-55" y="-230"/>
      <point x="-55" y="-176" type="curve" smooth="yes"/>
      <point x="-55" y="-133"/>
      <point x="-126" y="-86"/>
      <point x="-165" y="-86" type="curve" smooth="yes"/>
      <point x="-193" y="-85"/>
      <point x="-225" y="-100"/>
      <point x="-247" y="-125" type="curve"/>
      <point x="-271" y="-101"/>
      <point x="-304" y="-79"/>
      <point x="-339" y="-79" type="curve" smooth="yes"/>
    </contour>
    <contour>
      <point x="-85" y="-351"/>
      <point x="-94" y="-364"/>
      <point x="-94" y="-378" type="curve" smooth="yes"/>
      <point x="-94" y="-434"/>
      <point x="-29" y="-453"/>
      <point x="6" y="-453" type="curve" smooth="yes"/>
      <point x="45" y="-453"/>
      <point x="75" y="-440"/>
      <point x="104" y="-418" type="curve"/>
      <point x="72" y="-377" type="line"/>
      <point x="55" y="-394"/>
      <point x="26" y="-418"/>
      <point x="-7" y="-418" type="curve" smooth="yes"/>
      <point x="-24" y="-418"/>
      <point x="-45" y="-407"/>
      <point x="-45" y="-391" type="curve" smooth="yes"/>
      <point x="-45" y="-375"/>
      <point x="-35" y="-355"/>
      <point x="-13" y="-342" type="curve"/>
      <point x="-68" y="-337" type="line"/>
    </contour>
    <contour>
      <point x="-170" y="13" type="line"/>
      <point x="-170" y="-106" type="line"/>
      <point x="-116" y="-121" type="line"/>
      <point x="-116" y="-119" type="line"/>
      <point x="-116" y="13" type="line"/>
    </contour>
    <contour>
      <point x="-153" y="0" type="move" name="_bottom"/>
    </contour>
  </outline>
</glyph>
<glyph name="onedeva" format="1">
  <advance width="631"/>
  <unicode hex="0967"/>
  <outline>
    <contour>
      <point x="225" y="669"/>
      <point x="160" y="606"/>
      <point x="160" y="522" type="curve" smooth="yes"/>
      <point x="160" y="420"/>
      <point x="262" y="363"/>
      <point x="331" y="333" type="curve"/>
      <point x="359" y="370" type="line"/>
      <point x="294" y="391"/>
      <point x="210" y="446"/>
      <point x="210" y="509" type="curve" smooth="yes"/>
      <point x="210" y="571"/>
      <point x="259" y="625"/>
      <point x="320" y="625" type="curve" smooth="yes"/>
      <point x="381" y="625"/>
      <point x="420" y="570"/>
      <point x="420" y="521" type="curve" smooth="yes"/>
      <point x="420" y="464"/>
      <point x="372" y="386"/>
      <point x="303" y="307" type="curve" smooth="yes"/>
      <point x="196" y="183" type="line"/>
      <point x="196" y="182" type="line"/>
      <point x="275" y="107"/>
      <point x="371" y="6"/>
      <point x="431" y="-62" type="curve"/>
      <point x="377" y="-107" type="line"/>
      <point x="377" y="-109" type="line"/>
      <point x="389" y="-136"/>
      <point x="414" y="-165"/>
      <point x="451" y="-165" type="curve" smooth="yes"/>
      <point x="477" y="-165"/>
      <point x="508" y="-144"/>
      <point x="507" y="-107" type="curve" smooth="yes"/>
      <point x="506" y="-62"/>
      <point x="474" y="-26"/>
      <point x="414" y="36" type="curve" smooth="yes"/>
      <point x="270" y="184" type="line"/>
      <point x="340" y="266" type="line" smooth="yes"/>
      <point x="398" y="334"/>
      <point x="470" y="413"/>
      <point x="470" y="503" type="curve" smooth="yes"/>
      <point x="470" y="604"/>
      <point x="398" y="669"/>
      <point x="303" y="669" type="curve" smooth="yes"/>
    </contour>
  </outline>
</glyph>
<glyph name="twodeva" format="1">
  <advance width="631"/>
  <unicode hex="0968"/>
  <outline>
    <contour>
      <point x="460" y="313"/>
      <point x="359" y="251"/>
      <point x="247" y="237" type="curve"/>
      <point x="196" y="313" type="line"/>
      <point x="194" y="314"/>
      <point x="189" y="315"/>
      <point x="183" y="315" type="curve" smooth="yes"/>
      <point x="150" y="315"/>
      <point x="116" y="293"/>
      <point x="116" y="251" type="curve" smooth="yes"/>
      <point x="116" y="206"/>
      <point x="251" y="192"/>
      <point x="259" y="192" type="curve" smooth="yes"/>
      <point x="390" y="192"/>
      <point x="510" y="307"/>
      <point x="510" y="433" type="curve" smooth="yes"/>
      <point x="510" y="553"/>
      <point x="436" y="653"/>
      <point x="298" y="653" type="curve" smooth="yes"/>
      <point x="240" y="653"/>
      <point x="166" y="620"/>
      <point x="121" y="596" type="curve"/>
      <point x="152" y="544" type="line"/>
      <point x="202" y="571"/>
      <point x="270" y="603"/>
      <point x="319" y="603" type="curve" smooth="yes"/>
      <point x="409" y="603"/>
      <point x="460" y="530"/>
      <point x="460" y="458" type="curve" smooth="yes"/>
    </contour>
    <contour>
      <point x="222" y="212" type="line"/>
      <point x="406" y="-122" type="line" smooth="yes"/>
      <point x="464" y="-91" type="line" smooth="yes"/>
      <point x="266" y="209" type="line"/>
    </contour>
  </outline>
</glyph>
<glyph name="fivedeva" format="1">
  <advance width="631"/>
  <unicode hex="096B"/>
  <outline>
    <contour>
      <point x="171" y="524"/>
      <point x="124" y="373"/>
      <point x="124" y="284" type="curve" smooth="yes"/>
      <point x="124" y="177"/>
      <point x="210" y="121"/>
      <point x="312" y="121" type="curve" smooth="yes"/>
      <point x="400" y="121"/>
      <point x="506" y="211"/>
      <point x="506" y="275" type="curve" smooth="yes"/>
      <point x="506" y="314"/>
      <point x="465" y="341"/>
      <point x="420" y="341" type="curve" smooth="yes"/>
      <point x="398" y="341"/>
      <point x="381" y="334"/>
      <point x="367" y="324" type="curve"/>
      <point x="412" y="231" type="line"/>
      <point x="370" y="192"/>
      <point x="315" y="164"/>
      <point x="272" y="164" type="curve" smooth="yes"/>
      <point x="210" y="164"/>
      <point x="174" y="216"/>
      <point x="174" y="265" type="curve" smooth="yes"/>
      <point x="174" y="346"/>
      <point x="230" y="481"/>
      <point x="280" y="584" type="curve"/>
      <point x="217" y="632" type="line"/>
    </contour>
    <contour>
      <point x="436" y="178" type="line"/>
      <point x="579" y="-122" type="line"/>
      <point x="628" y="-98" type="line"/>
      <point x="457" y="219" type="line"/>
    </contour>
  </outline>
</glyph>
<glyph name="sixdeva" format="1">
  <advance width="631"/>
  <unicode hex="096C"/>
  <outline>
    <contour>
      <point x="440" y="33"/>
      <point x="532" y="81"/>
      <point x="532" y="140" type="curve" smooth="yes"/>
      <point x="532" y="172"/>
      <point x="503" y="195"/>
      <point x="468" y="195" type="curve" smooth="yes"/>
      <point x="448" y="195"/>
      <point x="429" y="190"/>
      <point x="408" y="176" type="curve"/>
      <point x="441" y="112" type="line"/>
      <point x="399" y="94"/>
      <point x="354" y="83"/>
      <point x="316" y="83" type="curve" smooth="yes"/>
      <point x="247" y="83"/>
      <point x="177" y="142"/>
      <point x="177" y="213" type="curve" smooth="yes"/>
      <point x="177" y="276"/>
      <point x="217" y="309"/>
      <point x="266" y="330" type="curve"/>
      <point x="235" y="353" type="line"/>
      <point x="211" y="358"/>
      <point x="106" y="395"/>
      <point x="106" y="477" type="curve" smooth="yes"/>
      <point x="106" y="590"/>
      <point x="192" y="608"/>
      <point x="289" y="608" type="curve" smooth="yes"/>
      <point x="308" y="608"/>
      <point x="324" y="606"/>
      <point x="335" y="603" type="curve"/>
      <point x="311" y="651" type="line"/>
      <point x="305" y="652"/>
      <point x="292" y="653"/>
      <point x="268" y="653" type="curve" smooth="yes"/>
      <point x="169" y="653"/>
      <point x="56" y="618"/>
      <point x="56" y="502" type="curve" smooth="yes"/>
      <point x="56" y="411"/>
      <point x="126" y="348"/>
      <point x="216" y="318" type="curve"/>
      <point x="337" y="317"/>
      <point x="426" y="345"/>
      <point x="426" y="360" type="curve" smooth="yes"/>
      <point x="426" y="384"/>
      <point x="409" y="413"/>
      <point x="390" y="413" type="curve" smooth="yes"/>
      <point x="300" y="413"/>
      <point x="127" y="363"/>
      <point x="127" y="238" type="curve" smooth="yes"/>
      <point x="127" y="123"/>
      <point x="211" y="33"/>
      <point x="340" y="33" type="curve"/>
    </contour>
    <contour>
      <point x="456" y="82" type="line"/>
      <point x="561" y="-122" type="line" smooth="yes"/>
      <point x="610" y="-98" type="line" smooth="yes"/>
      <point x="483" y="93" type="line"/>
    </contour>
  </outline>
</glyph>
<glyph name="sevendeva" format="1">
  <advance width="631"/>
  <unicode hex="096D"/>
  <outline>
    <contour>
      <point x="39" y="629" type="line"/>
      <point x="72" y="249"/>
      <point x="201" y="26"/>
      <point x="384" y="26" type="curve" smooth="yes"/>
      <point x="487" y="26"/>
      <point x="601" y="116"/>
      <point x="601" y="295" type="curve" smooth="yes"/>
      <point x="601" y="399"/>
      <point x="577" y="523"/>
      <point x="505" y="586" type="curve" smooth="yes"/>
      <point x="475" y="610"/>
      <point x="442" y="624"/>
      <point x="391" y="624" type="curve" smooth="yes"/>
      <point x="319" y="624"/>
      <point x="261" y="544"/>
      <point x="261" y="472" type="curve" smooth="yes"/>
      <point x="261" y="350"/>
      <point x="334" y="283"/>
      <point x="442" y="283" type="curve" smooth="yes"/>
      <point x="484" y="283"/>
      <point x="517" y="296"/>
      <point x="557" y="324" type="curve"/>
      <point x="547" y="378" type="line"/>
      <point x="515" y="345"/>
      <point x="465" y="327"/>
      <point x="431" y="327" type="curve" smooth="yes"/>
      <point x="346" y="327"/>
      <point x="311" y="392"/>
      <point x="311" y="448" type="curve" smooth="yes"/>
      <point x="311" y="526"/>
      <point x="360" y="580"/>
      <point x="418" y="580" type="curve" smooth="yes"/>
      <point x="494" y="580"/>
      <point x="547" y="468"/>
      <point x="547" y="325" type="curve" smooth="yes"/>
      <point x="547" y="194"/>
      <point x="506" y="76"/>
      <point x="373" y="76" type="curve" smooth="yes"/>
      <point x="260" y="76"/>
      <point x="123" y="213"/>
      <point x="78" y="641" type="curve"/>
    </contour>
  </outline>
</glyph>
<glyph name="eightdeva" format="1">
  <advance width="631"/>
  <unicode hex="096E"/>
  <outline>
    <contour>
      <point x="179" y="370" type="line" smooth="yes"/>
      <point x="94" y="273"/>
      <point x="86" y="218"/>
      <point x="86" y="176" type="curve" smooth="yes"/>
      <point x="86" y="62"/>
      <point x="164" y="-18"/>
      <point x="303" y="-18" type="curve" smooth="yes"/>
      <point x="390" y="-18"/>
      <point x="460" y="14"/>
      <point x="558" y="119" type="curve"/>
      <point x="515" y="160" type="line"/>
      <point x="440" y="82"/>
      <point x="359" y="26"/>
      <point x="280" y="26" type="curve" smooth="yes"/>
      <point x="172" y="26"/>
      <point x="136" y="106"/>
      <point x="136" y="154" type="curve" smooth="yes"/>
      <point x="136" y="221"/>
      <point x="162" y="268"/>
      <point x="279" y="401" type="curve" smooth="yes"/>
      <point x="494" y="644" type="line"/>
      <point x="470" y="702" type="line"/>
    </contour>
  </outline>
</glyph>
<glyph name="emdash" format="1">
  <advance width="1168"/>
  <unicode hex="2014"/>
  <outline>
    <contour>
      <point x="84" y="363" type="line"/>
      <point x="1084" y="363" type="line"/>
      <point x="1084" y="417" type="line"/>
      <point x="84" y="417" type="line"/>
    </contour>
  </outline>
</glyph>
<glyph name="quotedblbase" format="1">
  <advance width="639"/>
  <unicode hex="201E"/>
  <outline>
    <contour>
      <point x="418" y="41" type="line"/>
      <point x="455" y="35"/>
      <point x="490" y="-10"/>
      <point x="490" y="-70" type="curve" smooth="yes"/>
      <point x="490" y="-143"/>
      <point x="437" y="-210"/>
      <point x="391" y="-226" type="curve"/>
      <point x="391" y="-237" type="line"/>
      <point x="408" y="-259" type="line"/>
      <point x="478" y="-230"/>
      <point x="560" y="-150"/>
      <point x="559" y="-41" type="curve"/>
      <point x="559" y="15"/>
      <point x="528" y="92"/>
      <point x="458" y="109" type="curve"/>
      <point x="418" y="59" type="line"/>
    </contour>
    <contour>
      <point x="149" y="41" type="line"/>
      <point x="186" y="35"/>
      <point x="221" y="-10"/>
      <point x="221" y="-70" type="curve" smooth="yes"/>
      <point x="221" y="-143"/>
      <point x="167" y="-210"/>
      <point x="122" y="-226" type="curve"/>
      <point x="122" y="-237" type="line"/>
      <point x="139" y="-259" type="line"/>
      <point x="210" y="-230"/>
      <point x="291" y="-150"/>
      <point x="290" y="-41" type="curve"/>
      <point x="290" y="15"/>
      <point x="259" y="92"/>
      <point x="188" y="109" type="curve"/>
      <point x="149" y="59" type="line"/>
    </contour>
  </outline>
</glyph>
<glyph name="daggerdbl" format="1">
  <advance width="451"/>
  <unicode hex="2021"/>
  <outline>
    <contour>
      <point x="192" y="172" type="line"/>
      <point x="208" y="-179" type="line"/>
      <point x="243" y="-179" type="line"/>
      <point x="258" y="172" type="line"/>
      <point x="255" y="263" type="line"/>
      <point x="405" y="260" type="line"/>
      <point x="405" y="315" type="line"/>
      <point x="250" y="313" type="line"/>
      <point x="258" y="488" type="line"/>
      <point x="255" y="563" type="line"/>
      <point x="405" y="561" type="line"/>
      <point x="405" y="616" type="line"/>
      <point x="250" y="614" type="line"/>
      <point x="258" y="722" type="line"/>
      <point x="260" y="805" type="line"/>
      <point x="190" y="805" type="line"/>
      <point x="192" y="722" type="line"/>
      <point x="200" y="614" type="line"/>
      <point x="45" y="616" type="line"/>
      <point x="45" y="561" type="line"/>
      <point x="195" y="563" type="line"/>
      <point x="192" y="488" type="line"/>
      <point x="200" y="313" type="line"/>
      <point x="45" y="315" type="line"/>
      <point x="45" y="260" type="line"/>
      <point x="195" y="263" type="line"/>
    </contour>
  </outline>
</glyph>
<glyph name="uni20B9" format="1">
  <advance width="631"/>
  <unicode hex="20B9"/>
  <outline>
    <contour>
      <point x="150" y="601" type="line"/>
      <point x="150" y="590" type="line"/>
      <point x="544" y="590" type="line"/>
      <point x="561" y="624" type="line"/>
      <point x="561" y="634" type="line"/>
      <point x="168" y="634" type="line"/>
    </contour>
    <contour>
      <point x="150" y="452" type="line"/>
      <point x="150" y="441" type="line"/>
      <point x="544" y="441" type="line"/>
      <point x="561" y="475" type="line"/>
      <point x="561" y="485" type="line"/>
      <point x="168" y="485" type="line"/>
    </contour>
    <contour>
      <point x="414" y="-15" type="line"/>
      <point x="453" y="14" type="line"/>
      <point x="217" y="264" type="line"/>
      <point x="289" y="287"/>
      <point x="399" y="338"/>
      <point x="399" y="461" type="curve" smooth="yes"/>
      <point x="399" y="514"/>
      <point x="373" y="559"/>
      <point x="331" y="596" type="curve"/>
      <point x="252" y="596" type="line"/>
      <point x="308" y="550"/>
      <point x="345" y="501"/>
      <point x="345" y="453" type="curve" smooth="yes"/>
      <point x="345" y="359"/>
      <point x="213" y="306"/>
      <point x="175" y="297" type="curve"/>
      <point x="170" y="293" type="line"/>
      <point x="172" y="278"/>
      <point x="183" y="244"/>
      <point x="219" y="207" type="curve"/>
    </contour>
  </outline>
</glyph>
<glyph name="infinity" format="1">
  <advance width="864"/>
  <unicode hex="221E"/>
  <outline>
    <contour>
      <point x="312" y="128"/>
      <point x="363" y="192"/>
      <point x="417" y="260" type="curve"/>
      <point x="471" y="195"/>
      <point x="533" y="126"/>
      <point x="619" y="126" type="curve" smooth="yes"/>
      <point x="713" y="126"/>
      <point x="797" y="205"/>
      <point x="797" y="310" type="curve" smooth="yes"/>
      <point x="797" y="399"/>
      <point x="738" y="478"/>
      <point x="628" y="476" type="curve" smooth="yes"/>
      <point x="549" y="475"/>
      <point x="492" y="410"/>
      <point x="437" y="342" type="curve"/>
      <point x="382" y="407"/>
      <point x="319" y="476"/>
      <point x="235" y="476" type="curve" smooth="yes"/>
      <point x="141" y="476"/>
      <point x="56" y="398"/>
      <point x="56" y="293" type="curve" smooth="yes"/>
      <point x="56" y="203"/>
      <point x="122" y="125"/>
      <point x="232" y="126" type="curve" smooth="yes"/>
    </contour>
    <contour>
      <point x="173" y="171"/>
      <point x="122" y="231"/>
      <point x="122" y="308" type="curve" smooth="yes"/>
      <point x="122" y="379"/>
      <point x="159" y="430"/>
      <point x="224" y="430" type="curve" smooth="yes"/>
      <point x="292" y="430"/>
      <point x="347" y="350"/>
      <point x="395" y="290" type="curve"/>
      <point x="349" y="230"/>
      <point x="301" y="171"/>
      <point x="240" y="171" type="curve" smooth="yes"/>
    </contour>
    <contour>
      <point x="503" y="371"/>
      <point x="560" y="428"/>
      <point x="621" y="428" type="curve" smooth="yes"/>
      <point x="688" y="428"/>
      <point x="732" y="370"/>
      <point x="732" y="295" type="curve" smooth="yes"/>
      <point x="732" y="224"/>
      <point x="701" y="169"/>
      <point x="636" y="169" type="curve" smooth="yes"/>
      <point x="570" y="169"/>
      <point x="506" y="251"/>
      <point x="458" y="313" type="curve"/>
    </contour>
  </outline>
</glyph>
<glyph name="integral" format="1">
  <advance width="519"/>
  <unicode hex="222B"/>
  <outline>
    <contour>
      <point x="0" y="-160" type="line"/>
      <point x="22" y="-210"/>
      <point x="84" y="-219"/>
      <point x="117" y="-219" type="curve" smooth="yes"/>
      <point x="238" y="-219"/>
      <point x="310" y="-106"/>
      <point x="310" y="19" type="curve" smooth="yes"/>
      <point x="310" y="199"/>
      <point x="234" y="425"/>
      <point x="234" y="611" type="curve" smooth="yes"/>
      <point x="234" y="711"/>
      <point x="257" y="780"/>
      <point x="351" y="780" type="curve" smooth="yes"/>
      <point x="386" y="780"/>
      <point x="421" y="758"/>
      <point x="430" y="733" type="curve"/>
      <point x="430" y="733"/>
      <point x="441" y="742"/>
      <point x="455" y="750" type="curve"/>
      <point x="479" y="767" type="line"/>
      <point x="458" y="816"/>
      <point x="395" y="826"/>
      <point x="362" y="826" type="curve" smooth="yes"/>
      <point x="240" y="826"/>
      <point x="169" y="710"/>
      <point x="169" y="587" type="curve" smooth="yes"/>
      <point x="169" y="406"/>
      <point x="245" y="167"/>
      <point x="245" y="0" type="curve" smooth="yes"/>
      <point x="245" y="-104"/>
      <point x="224" y="-173"/>
      <point x="129" y="-173" type="curve" smooth="yes"/>
      <point x="93" y="-173"/>
      <point x="58" y="-151"/>
      <point x="50" y="-126" type="curve"/>
    </contour>
  </outline>
</glyph>
<glyph name="notequal" format="1">
  <advance width="600"/>
  <unicode hex="2260"/>
  <outline>
    <contour>
      <point x="208" y="173" type="line"/>
      <point x="272" y="173" type="line"/>
      <point x="297" y="261" type="line"/>
      <point x="516" y="261" type="line"/>
      <point x="516" y="315" type="line"/>
      <point x="313" y="315" type="line"/>
      <point x="353" y="460" type="line"/>
      <point x="516" y="460" type="line"/>
      <point x="516" y="514" type="line"/>
      <point x="369" y="514" type="line"/>
      <point x="395" y="605" type="line"/>
      <point x="330" y="605" type="line"/>
      <point x="304" y="514" type="line"/>
      <point x="84" y="514" type="line"/>
      <point x="84" y="460" type="line"/>
      <point x="289" y="460" type="line"/>
      <point x="249" y="315" type="line"/>
      <point x="84" y="315" type="line"/>
      <point x="84" y="261" type="line"/>
      <point x="232" y="261" type="line"/>
    </contour>
  </outline>
</glyph>
<glyph name="uni09480930094D" format="1">
  <advance width="0"/>
  <outline>
    <contour>
      <point x="-473" y="1037"/>
      <point x="-497" y="1017"/>
      <point x="-497" y="983" type="curve" smooth="yes"/>
      <point x="-497" y="956"/>
      <point x="-481" y="932"/>
      <point x="-467" y="921" type="curve"/>
      <point x="-466" y="921" type="line"/>
      <point x="-353" y="955" type="line"/>
      <point x="-335" y="944"/>
      <point x="-289" y="876"/>
      <point x="-235" y="775" type="curve" smooth="yes"/>
      <point x="-220" y="747"/>
      <point x="-184" y="662"/>
      <point x="-165" y="614" type="curve"/>
      <point x="-123" y="614" type="line"/>
      <point x="-158" y="694"/>
      <point x="-193" y="763"/>
      <point x="-196" y="824" type="curve" smooth="yes"/>
      <point x="-194" y="888"/>
      <point x="-147" y="922"/>
      <point x="-96" y="922" type="curve" smooth="yes"/>
      <point x="-54" y="922"/>
      <point x="-20" y="902"/>
      <point x="10" y="882" type="curve"/>
      <point x="32" y="915" type="line"/>
      <point x="-6" y="948"/>
      <point x="-57" y="972"/>
      <point x="-107" y="972" type="curve" smooth="yes"/>
      <point x="-177" y="972"/>
      <point x="-244" y="912"/>
      <point x="-245" y="839" type="curve" smooth="yes"/>
      <point x="-245" y="830"/>
      <point x="-244" y="821"/>
      <point x="-243" y="812" type="curve"/>
      <point x="-217" y="822" type="line"/>
      <point x="-276" y="938"/>
      <point x="-338" y="1037"/>
      <point x="-435" y="1037" type="curve" smooth="yes"/>
    </contour>
    <contour>
      <point x="-488" y="861"/>
      <point x="-510" y="843"/>
      <point x="-510" y="812" type="curve" smooth="yes"/>
      <point x="-510" y="788"/>
      <point x="-497" y="768"/>
      <point x="-487" y="759" type="curve"/>
      <point x="-486" y="759" type="line"/>
      <point x="-361" y="779" type="line"/>
      <point x="-339" y="769"/>
      <point x="-283" y="701"/>
      <point x="-210" y="604" type="curve"/>
      <point x="-184" y="607" type="line"/>
      <point x="-261" y="736"/>
      <point x="-365" y="861"/>
      <point x="-453" y="861" type="curve" smooth="yes"/>
    </contour>
    <contour>
      <point x="-158" y="634" type="move" name="_top"/>
    </contour>
  </outline>
</glyph>
<glyph name="uni09480930094D0902" format="1">
  <advance width="0"/>
  <outline>
    <contour>
      <point x="-131" y="779" type="line"/>
      <point x="-68" y="716" type="line"/>
      <point x="-5" y="779" type="line"/>
      <point x="-68" y="842" type="line"/>
    </contour>
    <component base="uni09480930094D"/>
  </outline>
</glyph>
<glyph name="auMatra_reph-deva" format="1">
  <advance width="287"/>
  <outline>
    <contour>
      <point x="-29" y="634" type="line"/>
      <point x="-29" y="624" type="line"/>
      <point x="-12" y="590" type="line"/>
      <point x="117" y="590" type="line"/>
      <point x="116" y="13" type="line"/>
      <point x="159" y="-11" type="line"/>
      <point x="171" y="-11" type="line"/>
      <point x="171" y="590" type="line"/>
      <point x="287" y="590" type="line"/>
      <point x="287" y="601" type="line"/>
      <point x="268" y="634" type="line"/>
    </contour>
    <contour>
      <point x="-172" y="861"/>
      <point x="-194" y="843"/>
      <point x="-194" y="812" type="curve" smooth="yes"/>
      <point x="-194" y="788"/>
      <point x="-181" y="768"/>
      <point x="-171" y="759" type="curve"/>
      <point x="-170" y="759" type="line"/>
      <point x="-45" y="779" type="line"/>
      <point x="-23" y="769"/>
      <point x="33" y="701"/>
      <point x="106" y="604" type="curve"/>
      <point x="132" y="607" type="line"/>
      <point x="55" y="736"/>
      <point x="-49" y="861"/>
      <point x="-137" y="861" type="curve" smooth="yes"/>
    </contour>
    <contour>
      <point x="-157" y="1037"/>
      <point x="-181" y="1017"/>
      <point x="-181" y="983" type="curve" smooth="yes"/>
      <point x="-181" y="956"/>
      <point x="-165" y="932"/>
      <point x="-151" y="921" type="curve"/>
      <point x="-150" y="921" type="line"/>
      <point x="-37" y="955" type="line"/>
      <point x="-19" y="944"/>
      <point x="27" y="876"/>
      <point x="81" y="775" type="curve" smooth="yes"/>
      <point x="96" y="747"/>
      <point x="132" y="662"/>
      <point x="151" y="614" type="curve"/>
      <point x="193" y="614" type="line"/>
      <point x="158" y="694"/>
      <point x="123" y="763"/>
      <point x="120" y="824" type="curve" smooth="yes"/>
      <point x="122" y="888"/>
      <point x="169" y="922"/>
      <point x="220" y="922" type="curve" smooth="yes"/>
      <point x="262" y="922"/>
      <point x="296" y="902"/>
      <point x="326" y="882" type="curve"/>
      <point x="348" y="915" type="line"/>
      <point x="310" y="948"/>
      <point x="259" y="972"/>
      <point x="209" y="972" type="curve" smooth="yes"/>
      <point x="139" y="972"/>
      <point x="72" y="912"/>
      <point x="71" y="839" type="curve" smooth="yes"/>
      <point x="71" y="830"/>
      <point x="72" y="821"/>
      <point x="73" y="812" type="curve"/>
      <point x="99" y="822" type="line"/>
      <point x="40" y="938"/>
      <point x="-22" y="1037"/>
      <point x="-119" y="1037" type="curve" smooth="yes"/>
    </contour>
    <component base="uni094C_uni0902"/>
  </outline>
</glyph>
<glyph name="uni091A094D091A" format="1">
  <advance width="944"/>
  <outline>
    <contour>
      <point x="276" y="634" type="line"/>
      <point x="276" y="624" type="line"/>
      <point x="293" y="590" type="line"/>
      <point x="774" y="590" type="line"/>
      <point x="774" y="238" type="line"/>
      <point x="749" y="238" type="line"/>
      <point x="774" y="222" type="line"/>
      <point x="773" y="11" type="line"/>
      <point x="818" y="-11" type="line"/>
      <point x="829" y="-11" type="line"/>
      <point x="829" y="590" type="line"/>
      <point x="944" y="590" type="line"/>
      <point x="944" y="601" type="line"/>
      <point x="925" y="634" type="line"/>
    </contour>
    <contour>
      <point x="470" y="430" type="line"/>
      <point x="470" y="391" type="line"/>
      <point x="447" y="371"/>
      <point x="423" y="330"/>
      <point x="423" y="288" type="curve" smooth="yes"/>
      <point x="423" y="230"/>
      <point x="450" y="196"/>
      <point x="476" y="170" type="curve" smooth="yes"/>
      <point x="504" y="142"/>
      <point x="544" y="126"/>
      <point x="593" y="126" type="curve" smooth="yes"/>
      <point x="661" y="126"/>
      <point x="734" y="187"/>
      <point x="781" y="230" type="curve"/>
      <point x="780" y="300" type="line"/>
      <point x="742" y="262"/>
      <point x="658" y="176"/>
      <point x="566" y="176" type="curve" smooth="yes"/>
      <point x="522" y="176"/>
      <point x="473" y="205"/>
      <point x="472" y="265" type="curve" smooth="yes"/>
      <point x="473" y="319"/>
      <point x="517" y="391"/>
      <point x="596" y="392" type="curve"/>
      <point x="596" y="430" type="line"/>
    </contour>
    <contour>
      <point x="347" y="436" type="line"/>
      <point x="347" y="426" type="line"/>
      <point x="364" y="392" type="line"/>
      <point x="687" y="392" type="line"/>
      <point x="687" y="403" type="line"/>
      <point x="668" y="436" type="line"/>
    </contour>
    <contour>
      <point x="-29" y="634" type="line"/>
      <point x="-29" y="624" type="line"/>
      <point x="-12" y="590" type="line"/>
      <point x="395" y="590" type="line"/>
      <point x="395" y="601" type="line"/>
      <point x="376" y="634" type="line"/>
    </contour>
    <contour>
      <point x="42" y="436" type="line"/>
      <point x="42" y="426" type="line"/>
      <point x="59" y="392" type="line"/>
      <point x="382" y="392" type="line"/>
      <point x="382" y="403" type="line"/>
      <point x="363" y="436" type="line"/>
    </contour>
    <contour>
      <point x="165" y="430" type="line"/>
      <point x="165" y="391" type="line"/>
      <point x="142" y="371"/>
      <point x="118" y="330"/>
      <point x="118" y="288" type="curve" smooth="yes"/>
      <point x="118" y="230"/>
      <point x="145" y="196"/>
      <point x="171" y="170" type="curve" smooth="yes"/>
      <point x="199" y="142"/>
      <point x="239" y="126"/>
      <point x="288" y="126" type="curve" smooth="yes"/>
      <point x="348" y="126"/>
      <point x="412" y="173"/>
      <point x="462" y="217" type="curve"/>
      <point x="457" y="282" type="line"/>
      <point x="414" y="240"/>
      <point x="340" y="176"/>
      <point x="261" y="176" type="curve" smooth="yes"/>
      <point x="217" y="176"/>
      <point x="168" y="205"/>
      <point x="167" y="265" type="curve" smooth="yes"/>
      <point x="168" y="319"/>
      <point x="212" y="391"/>
      <point x="291" y="392" type="curve"/>
      <point x="291" y="430" type="line"/>
    </contour>
    <contour>
      <point x="98" y="63" type="move" name="nukta"/>
    </contour>
    <contour>
      <point x="800" y="0" type="move" name="bottom"/>
    </contour>
    <contour>
      <point x="800" y="634" type="move" name="top"/>
    </contour>
  </outline>
</glyph>
<glyph name="uni091B094D" format="1">
  <advance width="548"/>
  <outline>
    <contour>
      <point x="-29" y="634" type="line"/>
      <point x="-29" y="624" type="line"/>
      <point x="-12" y="590" type="line"/>
      <point x="567" y="590" type="line"/>
      <point x="567" y="601" type="line"/>
      <point x="548" y="634" type="line"/>
    </contour>
    <contour>
      <point x="413" y="477"/>
      <point x="367" y="442"/>
      <point x="367" y="374" type="curve" smooth="yes"/>
      <point x="367" y="259"/>
      <point x="481" y="201"/>
      <point x="569" y="165" type="curve"/>
      <point x="590" y="208" type="line"/>
      <point x="518" y="224"/>
      <point x="417" y="288"/>
      <point x="417" y="362" type="curve" smooth="yes"/>
      <point x="417" y="416"/>
      <point x="457" y="433"/>
      <point x="489" y="434" type="curve" smooth="yes"/>
      <point x="546" y="433"/>
      <point x="592" y="388"/>
      <point x="592" y="328" type="curve" smooth="yes"/>
      <point x="592" y="178"/>
      <point x="438" y="58"/>
      <point x="258" y="57" type="curve" smooth="yes"/>
      <point x="207" y="57"/>
      <point x="160" y="79"/>
      <point x="160" y="122" type="curve" smooth="yes"/>
      <point x="160" y="174"/>
      <point x="205" y="225"/>
      <point x="279" y="225" type="curve" smooth="yes"/>
      <point x="295" y="225"/>
      <point x="311" y="224"/>
      <point x="328" y="219" type="curve"/>
      <point x="331" y="228" type="line"/>
      <point x="312" y="266" type="line"/>
      <point x="294" y="271"/>
      <point x="268" y="275"/>
      <point x="247" y="275" type="curve" smooth="yes"/>
      <point x="184" y="275"/>
      <point x="115" y="223"/>
      <point x="115" y="145" type="curve" smooth="yes"/>
      <point x="115" y="63"/>
      <point x="202" y="6"/>
      <point x="283" y="7" type="curve" smooth="yes"/>
      <point x="459" y="9"/>
      <point x="642" y="157"/>
      <point x="642" y="308" type="curve" smooth="yes"/>
      <point x="641" y="416"/>
      <point x="551" y="478"/>
      <point x="469" y="478" type="curve"/>
    </contour>
    <contour>
      <point x="104" y="470"/>
      <point x="51" y="413"/>
      <point x="51" y="358" type="curve" smooth="yes"/>
      <point x="51" y="281"/>
      <point x="95" y="256"/>
      <point x="166" y="221" type="curve"/>
      <point x="202" y="258" type="line"/>
      <point x="170" y="263"/>
      <point x="95" y="292"/>
      <point x="95" y="345" type="curve" smooth="yes"/>
      <point x="95" y="395"/>
      <point x="147" y="420"/>
      <point x="189" y="420" type="curve" smooth="yes"/>
      <point x="215" y="419"/>
      <point x="234" y="417"/>
      <point x="265" y="403" type="curve"/>
      <point x="242" y="458" type="line"/>
      <point x="228" y="464"/>
      <point x="200" y="470"/>
      <point x="169" y="470" type="curve" smooth="yes"/>
    </contour>
  </outline>
</glyph>
<glyph name="uni091B094D0935" format="1">
  <advance width="688"/>
  <outline>
    <contour>
      <point x="452" y="615" type="line"/>
      <point x="452" y="494" type="line"/>
      <point x="506" y="494" type="line"/>
      <point x="506" y="615" type="line"/>
    </contour>
    <contour>
      <point x="93" y="517"/>
      <point x="43" y="473"/>
      <point x="43" y="425" type="curve" smooth="yes"/>
      <point x="43" y="378"/>
      <point x="79" y="338"/>
      <point x="138" y="308" type="curve"/>
      <point x="164" y="335" type="line"/>
      <point x="137" y="348"/>
      <point x="87" y="377"/>
      <point x="87" y="412" type="curve" smooth="yes"/>
      <point x="87" y="452"/>
      <point x="135" y="468"/>
      <point x="173" y="467" type="curve" smooth="yes"/>
      <point x="199" y="466"/>
      <point x="218" y="464"/>
      <point x="249" y="450" type="curve"/>
      <point x="226" y="505" type="line"/>
      <point x="212" y="511"/>
      <point x="184" y="517"/>
      <point x="153" y="517" type="curve" smooth="yes"/>
    </contour>
    <contour>
      <point x="252" y="119"/>
      <point x="196" y="68"/>
      <point x="196" y="6" type="curve" smooth="yes"/>
      <point x="196" y="-82"/>
      <point x="259" y="-122"/>
      <point x="323" y="-122" type="curve" smooth="yes"/>
      <point x="379" y="-122"/>
      <point x="433" y="-82"/>
      <point x="466" y="-55" type="curve"/>
      <point x="461" y="-5" type="line"/>
      <point x="419" y="-39"/>
      <point x="362" y="-77"/>
      <point x="303" y="-77" type="curve" smooth="yes"/>
      <point x="268" y="-77"/>
      <point x="237" y="-55"/>
      <point x="237" y="-19" type="curve" smooth="yes"/>
      <point x="237" y="37"/>
      <point x="281" y="73"/>
      <point x="331" y="74" type="curve" smooth="yes"/>
      <point x="385" y="75"/>
      <point x="432" y="21"/>
      <point x="466" y="-35" type="curve"/>
      <point x="465" y="19" type="line"/>
      <point x="436" y="59"/>
      <point x="382" y="119"/>
      <point x="311" y="119" type="curve"/>
    </contour>
    <contour>
      <point x="452" y="221" type="line"/>
      <point x="451" y="-66" type="line"/>
      <point x="453" y="-67" type="line"/>
      <point x="451" y="-181" type="line"/>
      <point x="494" y="-205" type="line"/>
      <point x="506" y="-205" type="line"/>
      <point x="506" y="221" type="line"/>
    </contour>
    <contour>
      <point x="527" y="294" type="line"/>
      <point x="465" y="320"/>
      <point x="407" y="367"/>
      <point x="407" y="419" type="curve" smooth="yes"/>
      <point x="407" y="466"/>
      <point x="444" y="481"/>
      <point x="469" y="481" type="curve" smooth="yes"/>
      <point x="520" y="480"/>
      <point x="562" y="440"/>
      <point x="562" y="385" type="curve" smooth="yes"/>
      <point x="562" y="280"/>
      <point x="422" y="193"/>
      <point x="258" y="193" type="curve" smooth="yes"/>
      <point x="204" y="193"/>
      <point x="153" y="214"/>
      <point x="153" y="250" type="curve" smooth="yes"/>
      <point x="153" y="290"/>
      <point x="196" y="326"/>
      <point x="265" y="326" type="curve" smooth="yes"/>
      <point x="281" y="326"/>
      <point x="297" y="325"/>
      <point x="314" y="320" type="curve"/>
      <point x="317" y="329" type="line"/>
      <point x="298" y="367" type="line"/>
      <point x="280" y="372"/>
      <point x="254" y="376"/>
      <point x="233" y="376" type="curve" smooth="yes"/>
      <point x="174" y="376"/>
      <point x="108" y="336"/>
      <point x="108" y="273" type="curve" smooth="yes"/>
      <point x="108" y="196"/>
      <point x="199" y="143"/>
      <point x="283" y="143" type="curve" smooth="yes"/>
      <point x="445" y="143"/>
      <point x="613" y="255"/>
      <point x="612" y="365" type="curve" smooth="yes"/>
      <point x="611" y="467"/>
      <point x="526" y="525"/>
      <point x="449" y="525" type="curve"/>
      <point x="400" y="524"/>
      <point x="360" y="493"/>
      <point x="357" y="431" type="curve" smooth="yes"/>
      <point x="353" y="349"/>
      <point x="424" y="297"/>
      <point x="493" y="262" type="curve"/>
      <point x="530" y="243" type="line"/>
      <point x="579" y="220"/>
      <point x="617" y="199"/>
      <point x="620" y="161" type="curve" smooth="yes"/>
      <point x="623" y="128"/>
      <point x="613" y="98"/>
      <point x="576" y="61" type="curve"/>
      <point x="617" y="16" type="line"/>
      <point x="655" y="64"/>
      <point x="665" y="111"/>
      <point x="664" y="149" type="curve" smooth="yes"/>
      <point x="662" y="218"/>
      <point x="610" y="254"/>
      <point x="553" y="281" type="curve"/>
    </contour>
    <contour>
      <point x="-29" y="634" type="line"/>
      <point x="-29" y="624" type="line"/>
      <point x="-12" y="590" type="line"/>
      <point x="688" y="590" type="line"/>
      <point x="688" y="601" type="line"/>
      <point x="669" y="634" type="line"/>
    </contour>
    <contour>
      <point x="96" y="0" type="move" name="nukta"/>
    </contour>
    <contour>
      <point x="480" y="-181" type="move" name="bottom"/>
    </contour>
    <contour>
      <point x="479" y="634" type="move" name="top"/>
    </contour>
  </outline>
</glyph>
<glyph name="uni0926094D0917" format="1">
  <advance width="537"/>
  <outline>
    <contour>
      <point x="-29" y="634" type="line"/>
      <point x="-29" y="624" type="line"/>
      <point x="-12" y="590" type="line"/>
      <point x="340" y="590" type="line"/>
      <point x="340" y="477" type="line"/>
      <point x="255" y="477" type="line" smooth="yes"/>
      <point x="127" y="477"/>
      <point x="65" y="414"/>
      <point x="65" y="302" type="curve" smooth="yes"/>
      <point x="65" y="158"/>
      <point x="186" y="84"/>
      <point x="288" y="84" type="curve" smooth="yes"/>
      <point x="319" y="84"/>
      <point x="351" y="89"/>
      <point x="377" y="98" type="curve"/>
      <point x="466" y="-111" type="line"/>
      <point x="517" y="-86" type="line"/>
      <point x="410" y="114" type="line"/>
      <point x="443" y="134"/>
      <point x="460" y="162"/>
      <point x="460" y="195" type="curve" smooth="yes"/>
      <point x="460" y="236"/>
      <point x="435" y="274"/>
      <point x="384" y="274" type="curve" smooth="yes"/>
      <point x="368" y="274"/>
      <point x="340" y="268"/>
      <point x="315" y="243" type="curve"/>
      <point x="358" y="141" type="line"/>
      <point x="338" y="136"/>
      <point x="314" y="134"/>
      <point x="290" y="134" type="curve" smooth="yes"/>
      <point x="230" y="134"/>
      <point x="109" y="166"/>
      <point x="109" y="286" type="curve" smooth="yes"/>
      <point x="109" y="373"/>
      <point x="158" y="433"/>
      <point x="268" y="433" type="curve" smooth="yes"/>
      <point x="394" y="433" type="line"/>
      <point x="394" y="590" type="line"/>
      <point x="537" y="590" type="line"/>
      <point x="537" y="601" type="line"/>
      <point x="518" y="634" type="line"/>
    </contour>
    <contour>
      <point x="199" y="130" type="line"/>
      <point x="250" y="-86" type="line"/>
      <point x="174" y="-94" type="line"/>
      <point x="173" y="-146"/>
      <point x="202" y="-197"/>
      <point x="246" y="-198" type="curve" smooth="yes"/>
      <point x="285" y="-198"/>
      <point x="317" y="-178"/>
      <point x="317" y="-129" type="curve" smooth="yes"/>
      <point x="317" y="-94"/>
      <point x="287" y="9"/>
      <point x="257" y="110" type="curve"/>
    </contour>
    <contour>
      <point x="99" y="31" type="move" name="nukta"/>
    </contour>
    <contour>
      <point x="512" y="0" type="move" name="bottom"/>
    </contour>
    <contour>
      <point x="366" y="634" type="move" name="top"/>
    </contour>
  </outline>
</glyph>
<glyph name="uni0926094D092E" format="1">
  <advance width="728"/>
  <outline>
    <contour>
      <point x="276" y="310" type="line"/>
      <point x="276" y="125" type="line"/>
      <point x="590" y="125" type="line"/>
      <point x="590" y="169" type="line"/>
      <point x="194" y="169" type="line"/>
      <point x="186" y="93"/>
      <point x="231" y="46"/>
      <point x="275" y="46" type="curve"/>
      <point x="326" y="46"/>
      <point x="330" y="109"/>
      <point x="330" y="143" type="curve"/>
      <point x="330" y="310" type="line"/>
    </contour>
    <contour>
      <point x="-29" y="634" type="line"/>
      <point x="-29" y="624" type="line"/>
      <point x="-11" y="590" type="line"/>
      <point x="558" y="590" type="line"/>
      <point x="557" y="13" type="line"/>
      <point x="599" y="-11" type="line"/>
      <point x="611" y="-11" type="line"/>
      <point x="611" y="590" type="line"/>
      <point x="728" y="590" type="line"/>
      <point x="728" y="601" type="line"/>
      <point x="709" y="634" type="line"/>
    </contour>
    <contour>
      <point x="247" y="610" type="line"/>
      <point x="247" y="480" type="line"/>
      <point x="301" y="476" type="line"/>
      <point x="301" y="610" type="line"/>
    </contour>
    <contour>
      <point x="184" y="495" type="line" smooth="yes"/>
      <point x="75" y="495"/>
      <point x="23" y="473"/>
      <point x="23" y="413" type="curve" smooth="yes"/>
      <point x="23" y="332"/>
      <point x="73" y="283"/>
      <point x="199" y="283" type="curve" smooth="yes"/>
      <point x="330" y="283" type="line"/>
      <point x="330" y="327" type="line"/>
      <point x="185" y="327" type="line" smooth="yes"/>
      <point x="105" y="327"/>
      <point x="67" y="344"/>
      <point x="67" y="388" type="curve" smooth="yes"/>
      <point x="67" y="441"/>
      <point x="101" y="451"/>
      <point x="198" y="451" type="curve" smooth="yes"/>
      <point x="301" y="451" type="line"/>
      <point x="301" y="495" type="line"/>
    </contour>
    <contour>
      <point x="113" y="0" type="move" name="nukta"/>
    </contour>
    <contour>
      <point x="585" y="0" type="move" name="bottom"/>
    </contour>
    <contour>
      <point x="585" y="634" type="move" name="top"/>
    </contour>
  </outline>
</glyph>
<glyph name="uni0926094D0928" format="1">
  <advance width="522"/>
  <outline>
    <contour>
      <point x="-29" y="634" type="line"/>
      <point x="-29" y="624" type="line"/>
      <point x="-12" y="590" type="line"/>
      <point x="326" y="590" type="line"/>
      <point x="326" y="487" type="line"/>
      <point x="255" y="487" type="line" smooth="yes"/>
      <point x="127" y="487"/>
      <point x="65" y="424"/>
      <point x="65" y="312" type="curve" smooth="yes"/>
      <point x="65" y="175"/>
      <point x="178" y="104"/>
      <point x="274" y="104" type="curve" smooth="yes"/>
      <point x="305" y="104"/>
      <point x="337" y="109"/>
      <point x="363" y="118" type="curve"/>
      <point x="450" y="-86" type="line"/>
      <point x="511" y="-56" type="line"/>
      <point x="402" y="136" type="line"/>
      <point x="430" y="156"/>
      <point x="446" y="185"/>
      <point x="446" y="215" type="curve" smooth="yes"/>
      <point x="446" y="256"/>
      <point x="421" y="294"/>
      <point x="370" y="294" type="curve" smooth="yes"/>
      <point x="348" y="294"/>
      <point x="325" y="286"/>
      <point x="301" y="263" type="curve"/>
      <point x="344" y="161" type="line"/>
      <point x="324" y="156"/>
      <point x="300" y="154"/>
      <point x="276" y="154" type="curve" smooth="yes"/>
      <point x="220" y="154"/>
      <point x="109" y="184"/>
      <point x="109" y="296" type="curve" smooth="yes"/>
      <point x="109" y="383"/>
      <point x="158" y="443"/>
      <point x="268" y="443" type="curve" smooth="yes"/>
      <point x="380" y="443" type="line"/>
      <point x="380" y="590" type="line"/>
      <point x="522" y="590" type="line"/>
      <point x="522" y="601" type="line"/>
      <point x="503" y="634" type="line"/>
    </contour>
    <contour>
      <point x="295" y="133"/>
      <point x="168" y="84"/>
      <point x="116" y="62" type="curve" smooth="yes"/>
      <point x="62" y="39"/>
      <point x="35" y="14"/>
      <point x="36" y="-27" type="curve" smooth="yes"/>
      <point x="37" y="-67"/>
      <point x="73" y="-101"/>
      <point x="118" y="-101" type="curve" smooth="yes"/>
      <point x="146" y="-101"/>
      <point x="176" y="-93"/>
      <point x="196" y="-71" type="curve"/>
      <point x="133" y="9" type="line"/>
      <point x="380" y="127" type="line"/>
      <point x="379" y="160" type="line"/>
    </contour>
    <contour>
      <point x="347" y="-189" type="move" name="nukta"/>
    </contour>
    <contour>
      <point x="359" y="-50" type="move" name="bottom"/>
    </contour>
    <contour>
      <point x="353" y="634" type="move" name="top"/>
    </contour>
  </outline>
</glyph>
<glyph name="uni0926094D0935" format="1">
  <advance width="522"/>
  <outline>
    <contour>
      <point x="172" y="132"/>
      <point x="87" y="59"/>
      <point x="87" y="-17" type="curve" smooth="yes"/>
      <point x="87" y="-99"/>
      <point x="141" y="-155"/>
      <point x="229" y="-155" type="curve" smooth="yes"/>
      <point x="320" y="-155"/>
      <point x="395" y="-68"/>
      <point x="421" y="22" type="curve"/>
      <point x="391" y="101" type="line"/>
      <point x="370" y="3"/>
      <point x="298" y="-113"/>
      <point x="210" y="-113" type="curve" smooth="yes"/>
      <point x="164" y="-113"/>
      <point x="137" y="-94"/>
      <point x="137" y="-41" type="curve" smooth="yes"/>
      <point x="137" y="24"/>
      <point x="214" y="97"/>
      <point x="282" y="97" type="curve" smooth="yes"/>
      <point x="329" y="97"/>
      <point x="372" y="88"/>
      <point x="419" y="45" type="curve"/>
      <point x="371" y="123" type="line"/>
      <point x="335" y="127"/>
      <point x="293" y="132"/>
      <point x="232" y="132" type="curve"/>
    </contour>
    <contour>
      <point x="-29" y="634" type="line"/>
      <point x="-29" y="624" type="line"/>
      <point x="-12" y="590" type="line"/>
      <point x="326" y="590" type="line"/>
      <point x="326" y="487" type="line"/>
      <point x="255" y="487" type="line" smooth="yes"/>
      <point x="127" y="487"/>
      <point x="65" y="424"/>
      <point x="65" y="312" type="curve" smooth="yes"/>
      <point x="65" y="175"/>
      <point x="178" y="104"/>
      <point x="274" y="104" type="curve" smooth="yes"/>
      <point x="305" y="104"/>
      <point x="337" y="109"/>
      <point x="363" y="118" type="curve"/>
      <point x="450" y="-86" type="line"/>
      <point x="511" y="-56" type="line"/>
      <point x="402" y="136" type="line"/>
      <point x="430" y="156"/>
      <point x="446" y="185"/>
      <point x="446" y="215" type="curve" smooth="yes"/>
      <point x="446" y="256"/>
      <point x="421" y="294"/>
      <point x="370" y="294" type="curve" smooth="yes"/>
      <point x="348" y="294"/>
      <point x="325" y="286"/>
      <point x="301" y="263" type="curve"/>
      <point x="344" y="161" type="line"/>
      <point x="324" y="156"/>
      <point x="300" y="154"/>
      <point x="276" y="154" type="curve" smooth="yes"/>
      <point x="220" y="154"/>
      <point x="109" y="184"/>
      <point x="109" y="296" type="curve" smooth="yes"/>
      <point x="109" y="383"/>
      <point x="158" y="443"/>
      <point x="268" y="443" type="curve" smooth="yes"/>
      <point x="380" y="443" type="line"/>
      <point x="380" y="590" type="line"/>
      <point x="522" y="590" type="line"/>
      <point x="522" y="601" type="line"/>
      <point x="503" y="634" type="line"/>
    </contour>
    <contour>
      <point x="387" y="-249" type="move" name="nukta"/>
    </contour>
    <contour>
      <point x="399" y="-110" type="move" name="bottom"/>
    </contour>
    <contour>
      <point x="353" y="634" type="move" name="top"/>
    </contour>
  </outline>
</glyph>
<glyph name="uni0926094D092F" format="1">
  <advance width="672"/>
  <outline>
    <contour>
      <point x="-29" y="634" type="line"/>
      <point x="-29" y="625" type="line"/>
      <point x="-12" y="590" type="line"/>
      <point x="502" y="590" type="line"/>
      <point x="502" y="170" type="line"/>
      <point x="460" y="170" type="line"/>
      <point x="502" y="154" type="line"/>
      <point x="502" y="13" type="line"/>
      <point x="544" y="-11" type="line"/>
      <point x="556" y="-11" type="line"/>
      <point x="556" y="590" type="line"/>
      <point x="672" y="590" type="line"/>
      <point x="672" y="601" type="line"/>
      <point x="653" y="634" type="line"/>
    </contour>
    <contour>
      <point x="292" y="618" type="line"/>
      <point x="292" y="496" type="line"/>
      <point x="182" y="496" type="line" smooth="yes"/>
      <point x="91" y="496"/>
      <point x="51" y="463"/>
      <point x="51" y="398" type="curve"/>
      <point x="51" y="344"/>
      <point x="91" y="314"/>
      <point x="156" y="286" type="curve"/>
      <point x="109" y="262"/>
      <point x="81" y="229"/>
      <point x="82" y="193" type="curve" smooth="yes"/>
      <point x="84" y="99"/>
      <point x="181" y="47"/>
      <point x="279" y="47" type="curve" smooth="yes"/>
      <point x="362" y="47"/>
      <point x="431" y="91"/>
      <point x="512" y="164" type="curve"/>
      <point x="511" y="230" type="line"/>
      <point x="428" y="148"/>
      <point x="352" y="97"/>
      <point x="259" y="97" type="curve" smooth="yes"/>
      <point x="202" y="97"/>
      <point x="131" y="115"/>
      <point x="127" y="170" type="curve" smooth="yes"/>
      <point x="124" y="208"/>
      <point x="166" y="264"/>
      <point x="270" y="265" type="curve" smooth="yes"/>
      <point x="294" y="265"/>
      <point x="304" y="264"/>
      <point x="323" y="259" type="curve"/>
      <point x="326" y="268" type="line"/>
      <point x="319" y="284"/>
      <point x="308" y="306"/>
      <point x="308" y="306" type="curve"/>
      <point x="290" y="311"/>
      <point x="265" y="315"/>
      <point x="240" y="315" type="curve" smooth="yes"/>
      <point x="232" y="315"/>
      <point x="223" y="314"/>
      <point x="217" y="314" type="curve" smooth="yes"/>
      <point x="181" y="314"/>
      <point x="101" y="343"/>
      <point x="101" y="390" type="curve"/>
      <point x="101" y="428"/>
      <point x="127" y="452"/>
      <point x="195" y="452" type="curve" smooth="yes"/>
      <point x="346" y="452" type="line"/>
      <point x="346" y="618" type="line"/>
    </contour>
    <contour>
      <point x="73" y="0" type="move" name="nukta"/>
    </contour>
    <contour>
      <point x="528" y="0" type="move" name="bottom"/>
    </contour>
    <contour>
      <point x="528" y="634" type="move" name="top"/>
    </contour>
  </outline>
</glyph>
<glyph name="uni0921094D0930" format="1">
  <advance width="551"/>
  <outline>
    <contour>
      <point x="287" y="-1" type="line"/>
      <point x="435" y="-149" type="line"/>
      <point x="469" y="-123" type="line"/>
      <point x="290" y="51" type="line"/>
      <point x="56" y="-97" type="line"/>
      <point x="101" y="-137" type="line"/>
    </contour>
    <component base="ddadeva"/>
    <contour>
      <point x="277" y="-183" type="move" name="nukta"/>
    </contour>
    <contour>
      <point x="282" y="-90" type="move" name="bottom"/>
    </contour>
    <contour>
      <point x="421" y="634" type="move" name="top"/>
    </contour>
  </outline>
</glyph>
<glyph name="uni0921094D092F" format="1">
  <advance width="1161"/>
  <outline>
    <contour>
      <point x="-29" y="634" type="line"/>
      <point x="-29" y="624" type="line"/>
      <point x="-12" y="590" type="line"/>
      <point x="992" y="590" type="line"/>
      <point x="991" y="141" type="line"/>
      <point x="991" y="120" type="line"/>
      <point x="991" y="13" type="line"/>
      <point x="1033" y="-11" type="line"/>
      <point x="1045" y="-11" type="line"/>
      <point x="1045" y="590" type="line"/>
      <point x="1161" y="590" type="line"/>
      <point x="1161" y="601" type="line"/>
      <point x="1143" y="634" type="line"/>
    </contour>
    <contour>
      <point x="722" y="416"/>
      <point x="744" y="392"/>
      <point x="744" y="351" type="curve" smooth="yes"/>
      <point x="744" y="302"/>
      <point x="677" y="270"/>
      <point x="619" y="255" type="curve"/>
      <point x="659" y="143"/>
      <point x="720" y="74"/>
      <point x="828" y="74" type="curve" smooth="yes"/>
      <point x="889" y="74"/>
      <point x="949" y="106"/>
      <point x="988" y="134" type="curve"/>
      <point x="999" y="126" type="line"/>
      <point x="1002" y="213" type="line"/>
      <point x="958" y="165"/>
      <point x="878" y="124"/>
      <point x="807" y="124" type="curve" smooth="yes"/>
      <point x="731" y="124"/>
      <point x="687" y="181"/>
      <point x="679" y="220" type="curve"/>
      <point x="719" y="234"/>
      <point x="794" y="266"/>
      <point x="794" y="331" type="curve" smooth="yes"/>
      <point x="794" y="428"/>
      <point x="732" y="460"/>
      <point x="631" y="460" type="curve" smooth="yes"/>
      <point x="206" y="460" type="line" smooth="yes"/>
      <point x="147" y="460"/>
      <point x="104" y="417"/>
      <point x="104" y="356" type="curve" smooth="yes"/>
      <point x="104" y="290"/>
      <point x="172" y="219"/>
      <point x="243" y="219" type="curve" smooth="yes"/>
      <point x="312" y="219"/>
      <point x="353" y="259"/>
      <point x="435" y="259" type="curve"/>
      <point x="448" y="252"/>
      <point x="471" y="221"/>
      <point x="471" y="176" type="curve" smooth="yes"/>
      <point x="471" y="96"/>
      <point x="397" y="60"/>
      <point x="334" y="60" type="curve" smooth="yes"/>
      <point x="253" y="60"/>
      <point x="168" y="97"/>
      <point x="64" y="216" type="curve"/>
      <point x="37" y="190" type="line"/>
      <point x="157" y="60"/>
      <point x="245" y="15"/>
      <point x="359" y="15" type="curve" smooth="yes"/>
      <point x="464" y="15"/>
      <point x="521" y="77"/>
      <point x="521" y="160" type="curve" smooth="yes"/>
      <point x="521" y="223"/>
      <point x="471" y="303"/>
      <point x="414" y="303" type="curve" smooth="yes"/>
      <point x="349" y="303"/>
      <point x="283" y="263"/>
      <point x="217" y="263" type="curve" smooth="yes"/>
      <point x="188" y="263"/>
      <point x="154" y="298"/>
      <point x="154" y="330" type="curve" smooth="yes"/>
      <point x="154" y="374"/>
      <point x="171" y="416"/>
      <point x="229" y="416" type="curve" smooth="yes"/>
      <point x="649" y="416" type="line"/>
    </contour>
    <contour>
      <point x="448" y="436" type="line"/>
      <point x="448" y="610" type="line"/>
      <point x="394" y="610" type="line"/>
      <point x="394" y="436" type="line"/>
    </contour>
    <contour>
      <point x="348" y="-130" type="move" name="nukta"/>
    </contour>
    <contour>
      <point x="1019" y="0" type="move" name="bottom"/>
    </contour>
    <contour>
      <point x="1019" y="634" type="move" name="top"/>
    </contour>
  </outline>
</glyph>
<glyph name="uni0922094D0922" format="1">
  <advance width="523"/>
  <outline>
    <contour>
      <point x="242" y="153"/>
      <point x="97" y="221"/>
      <point x="97" y="326" type="curve" smooth="yes"/>
      <point x="97" y="396"/>
      <point x="145" y="439"/>
      <point x="255" y="439" type="curve" smooth="yes"/>
      <point x="398" y="439" type="line"/>
      <point x="398" y="590" type="line"/>
      <point x="527" y="590" type="line"/>
      <point x="527" y="601" type="line"/>
      <point x="507" y="634" type="line"/>
      <point x="-29" y="634" type="line"/>
      <point x="-29" y="624" type="line"/>
      <point x="-12" y="590" type="line"/>
      <point x="344" y="590" type="line"/>
      <point x="344" y="483" type="line"/>
      <point x="241" y="483" type="line" smooth="yes"/>
      <point x="112" y="483"/>
      <point x="50" y="433"/>
      <point x="50" y="351" type="curve" smooth="yes"/>
      <point x="50" y="209"/>
      <point x="199" y="109"/>
      <point x="321" y="109" type="curve" smooth="yes"/>
      <point x="385" y="109"/>
      <point x="478" y="153"/>
      <point x="478" y="232" type="curve" smooth="yes"/>
      <point x="478" y="303"/>
      <point x="415" y="356"/>
      <point x="345" y="356" type="curve" smooth="yes"/>
      <point x="294" y="356"/>
      <point x="230" y="321"/>
      <point x="228" y="253" type="curve" smooth="yes"/>
      <point x="227" y="210"/>
      <point x="251" y="170"/>
      <point x="272" y="148" type="curve"/>
      <point x="302" y="151" type="line"/>
      <point x="282" y="172"/>
      <point x="272" y="198"/>
      <point x="272" y="220" type="curve" smooth="yes"/>
      <point x="272" y="280"/>
      <point x="329" y="312"/>
      <point x="366" y="312" type="curve" smooth="yes"/>
      <point x="396" y="312"/>
      <point x="433" y="290"/>
      <point x="434" y="253" type="curve" smooth="yes"/>
      <point x="436" y="192"/>
      <point x="373" y="153"/>
      <point x="301" y="153" type="curve"/>
    </contour>
    <contour>
      <point x="111" y="142"/>
      <point x="63" y="86"/>
      <point x="63" y="15" type="curve" smooth="yes"/>
      <point x="63" y="-121"/>
      <point x="203" y="-212"/>
      <point x="321" y="-212" type="curve" smooth="yes"/>
      <point x="385" y="-212"/>
      <point x="478" y="-168"/>
      <point x="478" y="-89" type="curve" smooth="yes"/>
      <point x="478" y="-18"/>
      <point x="415" y="35"/>
      <point x="345" y="35" type="curve" smooth="yes"/>
      <point x="294" y="35"/>
      <point x="230" y="0"/>
      <point x="228" y="-68" type="curve" smooth="yes"/>
      <point x="227" y="-111"/>
      <point x="251" y="-151"/>
      <point x="272" y="-173" type="curve"/>
      <point x="302" y="-170" type="line"/>
      <point x="282" y="-149"/>
      <point x="272" y="-123"/>
      <point x="272" y="-101" type="curve" smooth="yes"/>
      <point x="272" y="-41"/>
      <point x="329" y="-9"/>
      <point x="366" y="-9" type="curve" smooth="yes"/>
      <point x="396" y="-9"/>
      <point x="433" y="-31"/>
      <point x="434" y="-68" type="curve" smooth="yes"/>
      <point x="436" y="-129"/>
      <point x="373" y="-168"/>
      <point x="301" y="-168" type="curve" smooth="yes"/>
      <point x="249" y="-168"/>
      <point x="110" y="-110"/>
      <point x="110" y="-10" type="curve" smooth="yes"/>
      <point x="110" y="46"/>
      <point x="153" y="113"/>
      <point x="215" y="137" type="curve"/>
      <point x="157" y="165" type="line"/>
    </contour>
    <contour>
      <point x="40" y="-223" type="move" name="nukta"/>
    </contour>
    <contour>
      <point x="311" y="-189" type="move" name="bottom"/>
    </contour>
    <contour>
      <point x="371" y="634" type="move" name="top"/>
    </contour>
  </outline>
</glyph>
<glyph name="uni09470930094D" format="1">
  <advance width="0"/>
  <outline>
    <contour>
      <point x="-509" y="1010"/>
      <point x="-533" y="990"/>
      <point x="-533" y="956" type="curve" smooth="yes"/>
      <point x="-533" y="929"/>
      <point x="-517" y="905"/>
      <point x="-503" y="894" type="curve"/>
      <point x="-389" y="928" type="line"/>
      <point x="-372" y="917"/>
      <point x="-329" y="848"/>
      <point x="-276" y="748" type="curve" smooth="yes"/>
      <point x="-265" y="727"/>
      <point x="-236" y="667"/>
      <point x="-221" y="633" type="curve"/>
      <point x="-171" y="633" type="line"/>
      <point x="-213" y="724"/>
      <point x="-240" y="773"/>
      <point x="-240" y="824" type="curve" smooth="yes"/>
      <point x="-240" y="888"/>
      <point x="-190" y="922"/>
      <point x="-135" y="922" type="curve" smooth="yes"/>
      <point x="-93" y="922"/>
      <point x="-59" y="902"/>
      <point x="-29" y="882" type="curve"/>
      <point x="-7" y="915" type="line"/>
      <point x="-45" y="948"/>
      <point x="-96" y="972"/>
      <point x="-146" y="972" type="curve" smooth="yes"/>
      <point x="-220" y="972"/>
      <point x="-290" y="912"/>
      <point x="-290" y="839" type="curve" smooth="yes"/>
      <point x="-290" y="830"/>
      <point x="-289" y="821"/>
      <point x="-288" y="812" type="curve"/>
      <point x="-260" y="812" type="line"/>
      <point x="-319" y="922"/>
      <point x="-379" y="1010"/>
      <point x="-471" y="1010" type="curve" smooth="yes"/>
    </contour>
    <contour>
      <point x="-163" y="634" type="move" name="_top"/>
    </contour>
  </outline>
</glyph>
<glyph name="uni09470930094D0902" format="1">
  <advance width="0"/>
  <outline>
    <contour>
      <point x="-174" y="794" type="line"/>
      <point x="-111" y="731" type="line"/>
      <point x="-48" y="794" type="line"/>
      <point x="-111" y="857" type="line"/>
    </contour>
    <component base="uni09470930094D"/>
    <contour>
      <point x="-163" y="634" type="move" name="_top"/>
    </contour>
  </outline>
</glyph>
<glyph name="eightdeva.loclNEP" format="1">
  <advance width="631"/>
  <outline>
    <contour>
      <point x="314" y="519" type="line"/>
      <point x="169" y="354" type="line" smooth="yes"/>
      <point x="81" y="253"/>
      <point x="77" y="203"/>
      <point x="76" y="160" type="curve" smooth="yes"/>
      <point x="74" y="65"/>
      <point x="152" y="-18"/>
      <point x="283" y="-18" type="curve" smooth="yes"/>
      <point x="377" y="-18"/>
      <point x="453" y="14"/>
      <point x="558" y="119" type="curve"/>
      <point x="515" y="160" type="line"/>
      <point x="434" y="82"/>
      <point x="346" y="26"/>
      <point x="260" y="26" type="curve" smooth="yes"/>
      <point x="173" y="26"/>
      <point x="126" y="88"/>
      <point x="126" y="138" type="curve" smooth="yes"/>
      <point x="126" y="206"/>
      <point x="149" y="249"/>
      <point x="269" y="385" type="curve" smooth="yes"/>
      <point x="386" y="517" type="line"/>
    </contour>
    <contour>
      <point x="546" y="494" type="line"/>
      <point x="546" y="505" type="line"/>
      <point x="527" y="538" type="line"/>
      <point x="47" y="538" type="line"/>
      <point x="47" y="528" type="line"/>
      <point x="64" y="494" type="line"/>
    </contour>
  </outline>
</glyph>
<glyph name="uni095E094D0930" format="1">
  <advance width="787"/>
  <outline>
    <component base="uni092B094D0930"/>
    <contour>
      <point x="248" y="-48" type="move" name="nukta"/>
    </contour>
    <contour>
      <point x="399" y="0" type="move" name="bottom"/>
    </contour>
    <contour>
      <point x="399" y="634" type="move" name="top"/>
    </contour>
  </outline>
</glyph>
<glyph name="foundryicon" format="1">
  <advance width="947"/>
  <outline>
    <contour>
      <point x="321" y="831"/>
      <point x="337" y="843"/>
      <point x="337" y="859" type="curve" smooth="yes"/>
      <point x="337" y="876"/>
      <point x="324" y="906"/>
      <point x="302" y="938" type="curve"/>
      <point x="288" y="914"/>
      <point x="268" y="875"/>
      <point x="268" y="859" type="curve" smooth="yes"/>
      <point x="268" y="843"/>
      <point x="283" y="831"/>
      <point x="302" y="831" type="curve" smooth="yes"/>
    </contour>
    <contour>
      <point x="295" y="-25"/>
      <point x="332" y="-53"/>
      <point x="391" y="-53" type="curve" smooth="yes"/>
      <point x="453" y="-53"/>
      <point x="481" y="-9"/>
      <point x="481" y="87" type="curve"/>
      <point x="471" y="86" type="line"/>
      <point x="471" y="444" type="line"/>
      <point x="846" y="444" type="line"/>
      <point x="846" y="578"/>
      <point x="676" y="695"/>
      <point x="468" y="691" type="curve"/>
      <point x="464" y="770" type="line"/>
      <point x="444" y="770" type="line"/>
      <point x="442" y="691" type="line"/>
      <point x="234" y="695"/>
      <point x="64" y="578"/>
      <point x="64" y="444" type="curve"/>
      <point x="443" y="444" type="line"/>
      <point x="443" y="350" type="line"/>
      <point x="433" y="347"/>
      <point x="426" y="338"/>
      <point x="426" y="327" type="curve"/>
      <point x="443" y="327" type="line"/>
      <point x="443" y="86" type="line"/>
      <point x="432" y="86" type="line"/>
      <point x="432" y="10"/>
      <point x="416" y="-6"/>
      <point x="391" y="-6" type="curve" smooth="yes"/>
      <point x="357" y="-6"/>
      <point x="346" y="10"/>
      <point x="346" y="63" type="curve" smooth="yes"/>
      <point x="346" y="84"/>
      <point x="333" y="92"/>
      <point x="321" y="92" type="curve" smooth="yes"/>
      <point x="312" y="92"/>
      <point x="295" y="84"/>
      <point x="295" y="63" type="curve" smooth="yes"/>
    </contour>
  </outline>
</glyph>
<glyph name="uni0917094D0928" format="1">
  <advance width="575"/>
  <outline>
    <contour>
      <point x="-29" y="634" type="line"/>
      <point x="-29" y="624" type="line"/>
      <point x="-12" y="590" type="line"/>
      <point x="405" y="590" type="line"/>
      <point x="404" y="13" type="line"/>
      <point x="447" y="-11" type="line"/>
      <point x="459" y="-11" type="line"/>
      <point x="459" y="590" type="line"/>
      <point x="575" y="590" type="line"/>
      <point x="575" y="601" type="line"/>
      <point x="556" y="634" type="line"/>
    </contour>
    <contour>
      <point x="284" y="198"/>
      <point x="213" y="154"/>
      <point x="165" y="122" type="curve" smooth="yes"/>
      <point x="141" y="106"/>
      <point x="96" y="79"/>
      <point x="97" y="41" type="curve" smooth="yes"/>
      <point x="98" y="1"/>
      <point x="134" y="-33"/>
      <point x="179" y="-33" type="curve" smooth="yes"/>
      <point x="207" y="-33"/>
      <point x="237" y="-25"/>
      <point x="257" y="-3" type="curve"/>
      <point x="194" y="77" type="line"/>
      <point x="409" y="228" type="line"/>
      <point x="411" y="228" type="line"/>
      <point x="408" y="271" type="line"/>
    </contour>
    <contour>
      <point x="153" y="612" type="line"/>
      <point x="153" y="394" type="line"/>
      <point x="58" y="409" type="line"/>
      <point x="55" y="401"/>
      <point x="54" y="392"/>
      <point x="54" y="381" type="curve" smooth="yes"/>
      <point x="54" y="350"/>
      <point x="78" y="284"/>
      <point x="145" y="284" type="curve" smooth="yes"/>
      <point x="208" y="284"/>
      <point x="212" y="345"/>
      <point x="212" y="377" type="curve" smooth="yes"/>
      <point x="212" y="451"/>
      <point x="207" y="525"/>
      <point x="200" y="606" type="curve"/>
    </contour>
    <contour>
      <point x="72" y="189" type="move" name="nukta"/>
    </contour>
    <contour>
      <point x="432" y="0" type="move" name="bottom"/>
    </contour>
    <contour>
      <point x="432" y="634" type="move" name="top"/>
    </contour>
  </outline>
</glyph>
<glyph name="uni0917094D0930094D" format="1">
  <advance width="274"/>
  <outline>
    <contour>
      <point x="356" y="233" type="line"/>
      <point x="115" y="49" type="line"/>
      <point x="157" y="4" type="line"/>
      <point x="375" y="187" type="line"/>
    </contour>
    <component base="uni0917094D"/>
  </outline>
</glyph>
<glyph name="glyph242" format="1">
  <advance width="0"/>
  <outline>
    <contour>
      <point x="-542" y="-155" type="line"/>
      <point x="-427" y="-271"/>
      <point x="-331" y="-307"/>
      <point x="-242" y="-307" type="curve" smooth="yes"/>
      <point x="-144" y="-307"/>
      <point x="-91" y="-254"/>
      <point x="-91" y="-213" type="curve" smooth="yes"/>
      <point x="-91" y="-156"/>
      <point x="-167" y="-91"/>
      <point x="-245" y="-91" type="curve" smooth="yes"/>
      <point x="-270" y="-91"/>
      <point x="-304" y="-100"/>
      <point x="-327" y="-111" type="curve"/>
      <point x="-293" y="-161" type="line"/>
      <point x="-269" y="-149"/>
      <point x="-234" y="-141"/>
      <point x="-210" y="-141" type="curve" smooth="yes"/>
      <point x="-157" y="-141"/>
      <point x="-141" y="-174"/>
      <point x="-141" y="-195" type="curve" smooth="yes"/>
      <point x="-141" y="-228"/>
      <point x="-182" y="-257"/>
      <point x="-254" y="-257" type="curve" smooth="yes"/>
      <point x="-351" y="-257"/>
      <point x="-448" y="-201"/>
      <point x="-521" y="-134" type="curve"/>
    </contour>
  </outline>
</glyph>
<glyph name="glyph244" format="1">
  <advance width="0"/>
  <outline>
    <contour>
      <point x="-370" y="-81"/>
      <point x="-426" y="-132"/>
      <point x="-426" y="-194" type="curve" smooth="yes"/>
      <point x="-426" y="-282"/>
      <point x="-363" y="-322"/>
      <point x="-299" y="-322" type="curve" smooth="yes"/>
      <point x="-243" y="-322"/>
      <point x="-189" y="-282"/>
      <point x="-156" y="-255" type="curve"/>
      <point x="-161" y="-205" type="line"/>
      <point x="-203" y="-239"/>
      <point x="-260" y="-277"/>
      <point x="-319" y="-277" type="curve" smooth="yes"/>
      <point x="-354" y="-277"/>
      <point x="-385" y="-255"/>
      <point x="-385" y="-219" type="curve" smooth="yes"/>
      <point x="-385" y="-163"/>
      <point x="-341" y="-127"/>
      <point x="-291" y="-126" type="curve" smooth="yes"/>
      <point x="-237" y="-125"/>
      <point x="-190" y="-179"/>
      <point x="-156" y="-235" type="curve"/>
      <point x="-157" y="-181" type="line"/>
      <point x="-186" y="-141"/>
      <point x="-240" y="-81"/>
      <point x="-311" y="-81" type="curve"/>
    </contour>
    <contour>
      <point x="-171" y="21" type="line"/>
      <point x="-171" y="-266" type="line"/>
      <point x="-169" y="-267" type="line"/>
      <point x="-171" y="-381" type="line"/>
      <point x="-128" y="-405" type="line"/>
      <point x="-116" y="-405" type="line"/>
      <point x="-116" y="21" type="line"/>
    </contour>
  </outline>
</glyph>
